<?xml version="1.0" encoding="iso-8859-1"?>
<!-- Generator: Adobe Illustrator 19.0.0, SVG Export Plug-In . SVG Version: 6.00 Build 0)  -->
<svg xmlns="http://www.w3.org/2000/svg" xmlns:xlink="http://www.w3.org/1999/xlink" version="1.1" id="Capa_1" x="0px" y="0px" viewBox="0 0 512 512" style="enable-background:new 0 0 512 512;" xml:space="preserve">
<path style="fill:#EBEEF7;" d="M86.086,126.895c-3.072,16.861-4.62,34.106-4.62,51.258v66.211h349.091v-66.199  c0-17.164-1.559-34.409-4.62-51.258l-2.839-15.558c-8.052-44.288-46.569-76.439-91.59-76.439h-5.993  c-2.804,0-5.295,0.756-7.028,2.129C301.335,50.665,279.145,58.182,256,58.182c-23.145,0-45.335-7.517-62.487-21.143  c-1.722-1.373-4.212-2.129-7.017-2.129h-5.993c-45.021,0-83.537,32.151-91.59,76.439L86.086,126.895z"/>
<g>
	<path style="fill:#CCD9E4;" d="M170.24,37.039c17.164,13.626,39.354,21.143,62.487,21.143c3.921,0,7.796-0.291,11.636-0.721   c-18.851-2.083-36.596-9.1-50.851-20.433c-1.722-1.361-4.212-2.118-7.017-2.118h-6.004c-4.271,0-8.46,0.256-12.591,0.815   C168.751,36.061,169.588,36.515,170.24,37.039z"/>
	<path style="fill:#CCD9E4;" d="M425.926,126.895l-2.816-15.546c-8.064-44.288-46.58-76.439-91.59-76.439h-6.004   c-1.757,0-3.619,0.396-5.015,0.943c39.436,5.353,72.041,35.398,79.337,75.497l2.816,15.546c3.072,16.896,4.62,34.141,4.62,51.258   v66.211h23.273v-66.199C430.545,161.036,428.998,143.791,425.926,126.895z"/>
</g>
<path style="fill:#EBEEF7;" d="M34.909,290.909h442.182c6.412,0,11.636-5.225,11.636-11.636s-5.225-11.636-11.636-11.636H34.909  c-6.412,0-11.636,5.225-11.636,11.636S28.497,290.909,34.909,290.909z"/>
<rect x="81.455" y="197.818" style="fill:#AFC3D7;" width="349.091" height="46.545"/>
<path style="fill:#004463;" d="M477.091,244.364h-23.273v-58.182v-8.017c0-18.548-1.687-37.201-5.004-55.424l-2.828-15.546  c-10.054-55.377-58.205-95.558-114.479-95.558h-5.993c-8.041,0-15.674,2.548-21.504,7.18C290.956,29.196,273.908,34.909,256,34.909  s-34.956-5.713-48.012-16.093c-5.818-4.631-13.452-7.18-21.492-7.18h-5.993c-56.273,0-104.425,40.18-114.49,95.546l-2.828,15.546  c-3.316,18.223-5.004,36.876-5.004,55.424v8.029v58.182H34.909C15.663,244.364,0,260.026,0,279.273  c0,19.247,15.663,34.909,34.909,34.909h442.182c19.247,0,34.909-15.663,34.909-34.909C512,260.026,496.349,244.364,477.091,244.364z   M88.913,111.348c8.052-44.288,46.569-76.439,91.59-76.439h5.993c2.804,0,5.295,0.756,7.028,2.129  c17.14,13.626,39.343,21.143,62.476,21.143c23.133,0,45.335-7.517,62.487-21.143c1.734-1.373,4.224-2.129,7.028-2.129h5.993  c45.021,0,83.537,32.151,91.59,76.439l2.828,15.558c2.851,15.674,4.259,31.674,4.457,47.639H81.617  c0.198-15.965,1.606-31.977,4.457-47.651L88.913,111.348z M81.455,197.818h349.091v46.545H81.455L81.455,197.818L81.455,197.818z   M477.091,290.909H34.909c-6.412,0-11.636-5.225-11.636-11.636s5.225-11.636,11.636-11.636h442.182  c6.412,0,11.636,5.225,11.636,11.636S483.514,290.909,477.091,290.909z"/>
<path style="fill:#D3E2EC;" d="M256,151.273c-57.74,0-104.727,46.988-104.727,104.727S198.26,360.727,256,360.727  S360.727,313.74,360.727,256S313.751,151.273,256,151.273z"/>
<path style="fill:#ACD6F2;" d="M199.052,314.182c14.685,14.383,34.769,23.273,56.948,23.273s42.263-8.89,56.948-23.273H199.052z"/>
<path style="fill:#EF4C4E;" d="M488.727,453.818L488.727,453.818c0,7.447-2.956,14.592-8.227,19.863l-6.819,6.819  c-5.26,5.271-12.404,8.227-19.863,8.227l0,0c-7.447,0-14.592-2.956-19.863-8.227l-84.864-84.864l46.545-46.545l84.864,84.864  C485.772,439.226,488.727,446.371,488.727,453.818z"/>
<path style="fill:#004463;" d="M488.727,425.728l-84.864-84.864c-4.55-4.55-11.904-4.55-16.454,0l-15.046,15.046l-18.06-18.06  C372.829,315.648,384,287.116,384,256c0-70.575-57.425-128-128-128s-128,57.425-128,128s57.425,128,128,128  c31.104,0,59.636-11.183,81.85-29.696l18.06,18.06l-15.046,15.046c-4.55,4.55-4.55,11.904,0,16.454l84.864,84.864  c7.505,7.505,17.478,11.636,28.09,11.636s20.596-4.131,28.09-11.636l6.819-6.819c7.505-7.505,11.636-17.478,11.636-28.09  S496.233,433.222,488.727,425.728z M151.273,256c0-57.74,46.988-104.727,104.727-104.727S360.727,198.26,360.727,256  S313.74,360.727,256,360.727S151.273,313.74,151.273,256z M472.273,465.455l-6.819,6.819c-6.121,6.121-17.152,6.121-23.273,0  l-76.637-76.637l30.092-30.092l76.637,76.637c3.06,3.06,4.817,7.308,4.817,11.636C477.091,458.147,475.345,462.394,472.273,465.455z  "/>
<path style="fill:#DB3440;" d="M472.273,442.182l-11.555-11.555c3.107,3.119,4.817,7.238,4.817,11.636s-1.711,8.518-4.817,11.636  l-6.819,6.819c-6.225,6.202-17.047,6.202-23.273,0l11.555,11.555c6.4,6.4,16.873,6.4,23.273,0l6.819-6.819  c3.107-3.119,4.817-7.238,4.817-11.636S475.38,445.3,472.273,442.182z"/>
<path style="fill:#96BBD5;" d="M187.229,244.364h137.542c-3.258-19.398-14.452-36.084-30.208-46.545h-77.126  C201.693,208.279,190.499,224.966,187.229,244.364z"/>
<path style="fill:#79A5C1;" d="M209.455,279.273c0-38.563,31.255-69.818,69.818-69.818c13.312,0,25.705,3.793,36.294,10.252  c-12.265-20.073-34.316-33.524-59.567-33.524c-38.563,0-69.818,31.255-69.818,69.818c0,25.251,13.452,47.302,33.524,59.567  C213.248,304.977,209.455,292.585,209.455,279.273z"/>
<path style="fill:#D3E6F6;" d="M324.771,267.636H197.818v23.273h118.586C320.5,283.834,323.375,275.991,324.771,267.636z"/>
<path style="fill:#A6C5D8;" d="M195.596,290.909h14.953c-0.652-3.793-1.094-7.657-1.094-11.636c0-3.968,0.407-7.843,1.047-11.636  h-23.238C188.684,275.98,191.488,283.857,195.596,290.909z"/>
<path style="fill:#004362;" d="M256,162.909c-51.328,0-93.091,41.763-93.091,93.091s41.763,93.091,93.091,93.091  s93.091-41.763,93.091-93.091S307.34,162.909,256,162.909z M195.631,290.909c-4.108-7.075-6.982-14.918-8.39-23.273h137.53  c-1.408,8.355-4.294,16.198-8.39,23.273H195.631z M217.495,197.818h77.021c15.756,10.461,26.985,27.159,30.255,46.545h-137.53  C190.511,224.977,201.728,208.279,217.495,197.818z M217.495,314.182h77.021c-11.055,7.343-24.285,11.636-38.516,11.636  C241.769,325.818,228.538,321.524,217.495,314.182z"/>
<rect x="407.273" y="197.818" style="fill:#90ABC2;" width="23.273" height="46.545"/>
<g>
</g>
<g>
</g>
<g>
</g>
<g>
</g>
<g>
</g>
<g>
</g>
<g>
</g>
<g>
</g>
<g>
</g>
<g>
</g>
<g>
</g>
<g>
</g>
<g>
</g>
<g>
</g>
<g>
</g>
</svg>
