<?xml version="1.0" encoding="iso-8859-1"?>
<!-- Generator: Adobe Illustrator 19.0.0, SVG Export Plug-In . SVG Version: 6.00 Build 0)  -->
<svg xmlns="http://www.w3.org/2000/svg" xmlns:xlink="http://www.w3.org/1999/xlink" version="1.1" id="Capa_1" x="0px" y="0px" viewBox="0 0 512 512" style="enable-background:new 0 0 512 512;" xml:space="preserve">
<g>
	<circle style="fill:#004463;" cx="186.182" cy="465.455" r="23.273"/>
	<circle style="fill:#004463;" cx="395.636" cy="465.455" r="23.273"/>
</g>
<path style="fill:#EBEEF7;" d="M112.268,151.273l36.922,186.182h286.243c11.38,0,21.236-8.495,22.935-19.77l28.218-166.412H112.268z  "/>
<path style="fill:#CCD9E4;" d="M464.465,151.273l-24.995,143.151c-1.699,11.264-11.567,19.759-22.935,19.759H144.547l4.643,23.273  h286.243c11.38,0,21.236-8.495,22.935-19.759l28.486-166.423H464.465z"/>
<g>
	<path style="fill:#004463;" d="M407.273,290.909c-6.423,0-11.636-5.213-11.636-11.636v-93.091c0-6.423,5.213-11.636,11.636-11.636   s11.636,5.213,11.636,11.636v93.091C418.909,285.696,413.696,290.909,407.273,290.909z"/>
	<path style="fill:#004463;" d="M337.455,290.909c-6.423,0-11.636-5.213-11.636-11.636v-93.091c0-6.423,5.213-11.636,11.636-11.636   s11.636,5.213,11.636,11.636v93.091C349.091,285.696,343.878,290.909,337.455,290.909z"/>
	<path style="fill:#004463;" d="M267.636,290.909c-6.423,0-11.636-5.213-11.636-11.636v-93.091c0-6.423,5.213-11.636,11.636-11.636   c6.423,0,11.636,5.213,11.636,11.636v93.091C279.273,285.696,274.06,290.909,267.636,290.909z"/>
	<path style="fill:#004463;" d="M197.818,290.909c-6.423,0-11.636-5.213-11.636-11.636v-93.091c0-6.423,5.213-11.636,11.636-11.636   c6.423,0,11.636,5.213,11.636,11.636v93.091C209.455,285.696,204.241,290.909,197.818,290.909z"/>
</g>
<circle style="fill:#EBEEF7;" cx="34.909" cy="58.182" r="11.636"/>
<path style="fill:#004463;" d="M509.254,132.119c-2.211-2.607-5.469-4.119-8.89-4.119H108.067L96.291,52.084  c-2.956-16.698-17.373-28.812-34.269-28.812H34.909C15.663,23.273,0,38.935,0,58.182s15.663,34.909,34.909,34.909  s34.909-15.663,34.909-34.909c0-3.351-0.628-6.528-1.513-9.6c2.548,1.687,4.48,4.224,5.027,7.308l13.265,85.527  c0.012,0.093,0.07,0.163,0.093,0.256c0.012,0.07-0.023,0.14,0,0.221l40.192,202.647c-13.242,8.215-22.156,22.772-22.156,39.459  c0,25.67,20.876,46.545,46.545,46.545h302.545c6.423,0,11.636-5.213,11.636-11.636s-5.213-11.636-11.636-11.636H151.273  C138.438,407.273,128,396.835,128,384c0-12.835,10.438-23.273,23.273-23.273h284.16c22.796,0,42.554-17.012,45.917-39.366  l30.487-179.782C512.407,138.205,511.465,134.749,509.254,132.119z M34.909,69.818c-6.412,0-11.636-5.225-11.636-11.636  s5.225-11.636,11.636-11.636s11.636,5.225,11.636,11.636S41.321,69.818,34.909,69.818z M458.368,317.684  c-1.699,11.276-11.555,19.77-22.935,19.77H149.19l-36.922-186.182h374.319L458.368,317.684z"/>
<g>
</g>
<g>
</g>
<g>
</g>
<g>
</g>
<g>
</g>
<g>
</g>
<g>
</g>
<g>
</g>
<g>
</g>
<g>
</g>
<g>
</g>
<g>
</g>
<g>
</g>
<g>
</g>
<g>
</g>
</svg>
