<?xml version="1.0" encoding="iso-8859-1"?>
<!-- Generator: Adobe Illustrator 19.0.0, SVG Export Plug-In . SVG Version: 6.00 Build 0)  -->
<svg xmlns="http://www.w3.org/2000/svg" xmlns:xlink="http://www.w3.org/1999/xlink" version="1.1" id="Capa_1" x="0px" y="0px" viewBox="0 0 512 512" style="enable-background:new 0 0 512 512;" xml:space="preserve">
<path style="fill:#EBEEF7;" d="M392.308,488.727c8.25,0,14.964-6.714,14.964-14.964c0-3.06-0.919-6.004-2.665-8.506l-79.302-114.56  c-14.895-21.504-22.761-46.697-22.761-72.867v-91.648h-93.091v91.648c0,26.159-7.866,51.363-22.761,72.855l-79.302,114.56  c-1.745,2.513-2.665,5.457-2.665,8.518c0,8.25,6.714,14.964,14.964,14.964H392.308z"/>
<circle style="fill:#8EC861;" cx="290.909" cy="34.909" r="11.636"/>
<path style="fill:#004463;" d="M290.909,69.818C271.663,69.818,256,54.156,256,34.909S271.663,0,290.909,0  c19.247,0,34.909,15.663,34.909,34.909S310.156,69.818,290.909,69.818z M290.909,23.273c-6.412,0-11.636,5.225-11.636,11.636  s5.225,11.636,11.636,11.636c6.412,0,11.636-5.225,11.636-11.636S297.321,23.273,290.909,23.273z"/>
<circle style="fill:#8EC861;" cx="209.455" cy="81.455" r="11.636"/>
<path style="fill:#004463;" d="M209.455,116.364c-19.247,0-34.909-15.663-34.909-34.909s15.663-34.909,34.909-34.909  s34.909,15.663,34.909,34.909S228.701,116.364,209.455,116.364z M209.455,69.818c-6.412,0-11.636,5.225-11.636,11.636  c0,6.412,5.225,11.636,11.636,11.636c6.412,0,11.636-5.225,11.636-11.636C221.091,75.043,215.866,69.818,209.455,69.818z"/>
<circle style="fill:#8EC861;" cx="279.273" cy="151.273" r="11.636"/>
<path style="fill:#004463;" d="M279.273,186.182c-19.247,0-34.909-15.663-34.909-34.909s15.663-34.909,34.909-34.909  s34.909,15.663,34.909,34.909S298.519,186.182,279.273,186.182z M279.273,139.636c-6.412,0-11.636,5.225-11.636,11.636  c0,6.412,5.225,11.636,11.636,11.636s11.636-5.225,11.636-11.636C290.909,144.861,285.684,139.636,279.273,139.636z"/>
<path style="fill:#CCD9E4;" d="M404.608,465.245l-79.302-114.56c-14.883-21.504-22.761-46.697-22.761-72.855v-91.648h-23.273v91.648  c0,26.159,7.878,51.351,22.761,72.867l79.302,114.56c1.745,2.502,2.665,5.446,2.665,8.506c0,8.25-6.714,14.964-14.964,14.964h23.273  c8.25,0,14.964-6.714,14.964-14.964C407.273,470.703,406.353,467.759,404.608,465.245z"/>
<path style="fill:#8EC861;" d="M392.262,488.727c8.425,0,15.011-6.598,15.011-15.011c0-3.014-0.931-5.946-2.7-8.495l-49.804-71.971  c-32.012,5.353-67.409,1.455-92.16-10.391c-25.367-12.288-65.583-13.952-95.197-4.236l-59.974,86.598  c-1.78,2.548-2.711,5.481-2.711,8.495c0,3.968,1.594,7.831,4.387,10.624c2.793,2.793,6.656,4.387,10.624,4.387H392.262z"/>
<path style="fill:#70B856;" d="M404.585,465.222l-49.967-72.204c-7.145,1.187-14.301,2.083-21.632,2.362l48.326,69.841  c1.757,2.537,2.688,5.481,2.688,8.495c0,8.425-6.586,15.011-15.011,15.011h23.273c8.425,0,15.011-6.586,15.011-15.011  C407.273,470.703,406.342,467.759,404.585,465.222z"/>
<g>
	<circle style="fill:#004463;" cx="256" cy="407.273" r="11.636"/>
	<circle style="fill:#004463;" cx="197.818" cy="407.273" r="11.636"/>
	<circle style="fill:#004463;" cx="290.909" cy="442.182" r="11.636"/>
	<circle style="fill:#004463;" cx="209.455" cy="465.455" r="11.636"/>
	<circle style="fill:#004463;" cx="349.091" cy="453.818" r="11.636"/>
	<path style="fill:#004463;" d="M423.75,452.003l-79.302-114.56c-12.195-17.594-18.63-38.202-18.63-59.613v-68.375   c0-12.835,10.438-23.273,23.273-23.273c6.423,0,11.636-5.213,11.636-11.636c0-6.423-5.213-11.636-11.636-11.636h-34.909H197.818   h-34.909c-6.423,0-11.636,5.213-11.636,11.636c0,6.423,5.213,11.636,11.636,11.636c12.835,0,23.273,10.438,23.273,23.273v68.375   c0,21.399-6.435,42.019-18.63,59.613L88.25,452.003c-4.445,6.423-6.796,13.94-6.796,21.76c0,21.085,17.152,38.237,38.237,38.237   h272.617c21.085,0,38.237-17.152,38.237-38.237C430.545,465.943,428.195,458.426,423.75,452.003z M302.545,186.182v91.648   c0,26.159,7.866,51.363,22.761,72.855l14.476,20.911c-24.157,2.141-49.478-1.28-67.072-9.705   c-23.424-11.345-56.111-15.174-85.993-11.229c14.871-21.492,22.737-46.685,22.737-72.832v-91.648H302.545z M392.308,488.727   H119.692c-8.25,0-14.964-6.714-14.964-14.964c0-3.06,0.919-6.004,2.665-8.506l59.823-86.423   c29.638-9.821,69.946-8.297,95.395,4.026c17.431,8.355,40.145,12.742,63.255,12.742c9.67,0,19.316-1.012,28.753-2.583   l50.001,72.227c1.734,2.513,2.653,5.457,2.653,8.518C407.273,482.013,400.559,488.727,392.308,488.727z"/>
</g>
<g>
</g>
<g>
</g>
<g>
</g>
<g>
</g>
<g>
</g>
<g>
</g>
<g>
</g>
<g>
</g>
<g>
</g>
<g>
</g>
<g>
</g>
<g>
</g>
<g>
</g>
<g>
</g>
<g>
</g>
</svg>
