<?xml version="1.0" encoding="iso-8859-1"?>
<!-- Generator: Adobe Illustrator 19.0.0, SVG Export Plug-In . SVG Version: 6.00 Build 0)  -->
<svg xmlns="http://www.w3.org/2000/svg" xmlns:xlink="http://www.w3.org/1999/xlink" version="1.1" id="Capa_1" x="0px" y="0px" viewBox="0 0 512.005 512.005" style="enable-background:new 0 0 512.005 512.005;" xml:space="preserve">
<g>
	<path style="fill:#EBEEF7;" d="M123.93,384.005l-41.821,94.092c-0.431,0.977-0.652,2.013-0.652,3.072   c0,4.177,3.398,7.564,7.564,7.564h14.988c2.956,0,5.655-1.734,6.877-4.433l45.591-100.294H123.93z"/>
	<path style="fill:#EBEEF7;" d="M353.167,488.733c4.166,0,7.564-3.398,7.564-7.564c0-1.071-0.221-2.106-0.652-3.072l-41.821-94.092   h-32.547l45.58,100.294c1.233,2.7,3.933,4.433,6.9,4.433H353.167z"/>
</g>
<g>
	<path style="fill:#CCD9E4;" d="M318.269,384.005h-32.559l22.435,49.361c8.855-4.364,17.396-9.263,25.449-14.86L318.269,384.005z"/>
	<path style="fill:#CCD9E4;" d="M108.594,418.519c8.052,5.597,16.593,10.484,25.449,14.86l22.435-49.373h-32.559L108.594,418.519z"/>
</g>
<path style="fill:#EBEEF7;" d="M232.73,58.187c0-6.412-5.225-11.636-11.636-11.636c-6.412,0-11.636,5.225-11.636,11.636v11.636  h23.273V58.187z"/>
<circle style="fill:#FFC95C;" cx="221.094" cy="256.005" r="162.909"/>
<circle style="fill:#EBEEF7;" cx="221.094" cy="256.005" r="104.727"/>
<path style="fill:#004463;" d="M221.094,384.005c-70.575,0-128-57.425-128-128s57.425-128,128-128s128,57.425,128,128  S291.669,384.005,221.094,384.005z M221.094,151.278c-57.74,0-104.727,46.988-104.727,104.727s46.988,104.727,104.727,104.727  s104.727-46.988,104.727-104.727S278.834,151.278,221.094,151.278z"/>
<circle style="fill:#EF4C4E;" cx="221.094" cy="256.005" r="46.545"/>
<g>
	<path style="fill:#004463;" d="M221.094,325.824c-38.505,0-69.818-31.313-69.818-69.818s31.313-69.818,69.818-69.818   s69.818,31.313,69.818,69.818S259.599,325.824,221.094,325.824z M221.094,209.46c-25.67,0-46.545,20.876-46.545,46.545   c0,25.67,20.876,46.545,46.545,46.545s46.545-20.876,46.545-46.545C267.639,230.336,246.764,209.46,221.094,209.46z"/>
	<circle style="fill:#004463;" cx="221.094" cy="256.005" r="23.273"/>
</g>
<path style="fill:#EBEEF7;" d="M419.506,50.24l-5.679-17.047l-28.148,28.137l7.517,22.563l22.563,7.517l28.148-28.148l-17.047-5.679  C423.392,56.43,420.669,53.707,419.506,50.24z"/>
<path style="fill:#C3D6E4;" d="M298.429,185.454l-24.739,24.774c5.248,6.016,9.46,12.928,12.416,20.492l26.182-26.182  C308.378,197.661,303.724,191.261,298.429,185.454z"/>
<polygon style="fill:#EBEEF7;" points="243.25,233.85 282.173,217.175 259.925,194.938 "/>
<path style="fill:#004463;" d="M476.78,55.511c-0.931-3.921-3.817-7.087-7.645-8.367l-17.047-5.679l9.961-9.961  c4.55-4.55,4.55-11.904,0-16.454s-11.904-4.55-16.454,0l-9.961,9.961l-5.679-17.047c-1.28-3.828-4.445-6.714-8.367-7.645  c-3.956-0.943-8.052,0.233-10.903,3.095L364.14,49.96c-3.119,3.119-4.201,7.727-2.816,11.904l9.367,28.09l-91.415,91.415  l-15.046-15.046c-2.735-2.735-6.633-3.933-10.426-3.2c-3.793,0.721-6.982,3.293-8.495,6.842L210.4,251.421  c-1.873,4.375-0.896,9.449,2.467,12.812c2.223,2.234,5.201,3.409,8.227,3.409c1.548,0,3.107-0.303,4.585-0.943l81.455-34.909  c3.549-1.513,6.109-4.701,6.842-8.495c0.733-3.793-0.465-7.703-3.2-10.426l-15.046-15.046l91.415-91.415l28.09,9.367  c1.21,0.407,2.444,0.593,3.677,0.593c3.037,0,6.016-1.199,8.227-3.409l46.545-46.545C476.535,63.563,477.711,59.444,476.78,55.511z   M243.25,233.85l16.687-38.924l22.237,22.237L243.25,233.85z M385.679,61.329l28.148-28.148l3.409,10.228l-28.148,28.148  L385.679,61.329z M415.77,91.421l-10.228-3.409l28.148-28.148l10.228,3.409L415.77,91.421z"/>
<path style="fill:#F4B344;" d="M319.398,174.132c3.549,4.259,6.854,8.762,9.833,13.463l25.239-25.263  c-3.188-4.527-6.679-8.797-10.31-12.963L319.398,174.132z"/>
<path style="fill:#004463;" d="M347.442,392.36c36.689-34.025,59.834-82.479,59.834-136.355  c0-90.717-65.257-166.388-151.273-182.784V58.187c0-19.247-15.663-34.909-34.909-34.909s-34.909,15.663-34.909,34.909v15.034  C100.169,89.629,34.912,165.288,34.912,256.005c0,53.876,23.145,102.33,59.834,136.355l-33.908,76.288  c-1.757,3.968-2.653,8.18-2.653,12.521c0,17.001,13.836,30.836,30.836,30.836h14.988c12.067,0,23.087-7.098,28.067-18.083  l28.241-62.127c19.084,6.621,39.471,10.391,60.777,10.391s41.693-3.77,60.777-10.391l28.241,62.127  c4.992,10.985,16,18.083,28.079,18.083h14.988c17.001,0,30.836-13.836,30.836-30.836c0-4.34-0.896-8.553-2.665-12.521  L347.442,392.36z M209.458,69.824V58.187c0-6.412,5.225-11.636,11.636-11.636c6.412,0,11.636,5.225,11.636,11.636v11.636H209.458z   M110.886,484.299c-1.222,2.7-3.921,4.433-6.877,4.433H89.021c-4.166,0-7.564-3.386-7.564-7.564c0-1.071,0.221-2.095,0.652-3.072  l31.325-70.481c8.029,5.713,16.524,10.752,25.414,15.162L110.886,484.299z M221.094,418.914  c-89.833,0-162.909-73.076-162.909-162.909S131.261,93.096,221.094,93.096s162.909,73.076,162.909,162.909  S310.927,418.914,221.094,418.914z M353.167,488.733h-14.988c-2.956,0-5.655-1.734-6.877-4.433l-27.962-61.521  c8.89-4.41,17.396-9.449,25.414-15.162l31.325,70.481c0.431,0.977,0.652,2.013,0.652,3.072  C360.73,485.346,357.344,488.733,353.167,488.733z"/>
<g>
</g>
<g>
</g>
<g>
</g>
<g>
</g>
<g>
</g>
<g>
</g>
<g>
</g>
<g>
</g>
<g>
</g>
<g>
</g>
<g>
</g>
<g>
</g>
<g>
</g>
<g>
</g>
<g>
</g>
</svg>
