<?xml version="1.0" encoding="iso-8859-1"?>
<!-- Generator: Adobe Illustrator 19.0.0, SVG Export Plug-In . SVG Version: 6.00 Build 0)  -->
<svg xmlns="http://www.w3.org/2000/svg" xmlns:xlink="http://www.w3.org/1999/xlink" version="1.1" id="Capa_1" x="0px" y="0px" viewBox="0 0 512 512" style="enable-background:new 0 0 512 512;" xml:space="preserve">
<path style="fill:#70B6E4;" d="M34.909,349.091h315.357c18.653,0,36.177-7.261,49.373-20.445l84.271-84.282  c3.107-3.107,4.817-7.238,4.817-11.636c0-4.329-1.757-8.576-4.817-11.636l-84.282-84.282c-13.184-13.184-30.72-20.445-49.361-20.445  H34.909c-6.412,0-11.636,5.225-11.636,11.636v209.455C23.273,343.866,28.497,349.091,34.909,349.091z M395.636,197.818  c19.247,0,34.909,15.663,34.909,34.909s-15.663,34.909-34.909,34.909c-19.247,0-34.909-15.663-34.909-34.909  S376.39,197.818,395.636,197.818z"/>
<path style="fill:#4C9BD5;" d="M483.91,221.091l-39.866,39.866c-5.725-4.236-11.916-7.796-18.56-10.391  c-6.109,10.182-17.14,17.071-29.847,17.071c-1.396,0-2.723-0.256-4.073-0.407c1.431,0.628,3.002,1.001,4.666,1.001  c0.116,0,0.221,0,0.337,0c14.732,0.093,21.469,18.746,11.055,29.161l-7.983,7.983c-13.103,13.091-30.86,20.445-49.373,20.445H34.909  c-6.423,0-11.636-5.213-11.636-11.636v23.273c0,6.423,5.213,11.636,11.636,11.636h315.357c18.513,0,36.259-7.354,49.35-20.445  l40.239-40.239l16.442-16.442l27.613-27.601c3.119-3.107,4.817-7.238,4.817-11.636S487.017,224.209,483.91,221.091z"/>
<g>
	<path style="fill:#004463;" d="M162.909,174.545H69.818c-6.423,0-11.636-5.213-11.636-11.636c0-6.423,5.213-11.636,11.636-11.636   h93.091c6.423,0,11.636,5.213,11.636,11.636C174.545,169.332,169.332,174.545,162.909,174.545z"/>
	<path style="fill:#004463;" d="M162.909,209.455h-58.182c-6.423,0-11.636-5.213-11.636-11.636c0-6.423,5.213-11.636,11.636-11.636   h58.182c6.423,0,11.636,5.213,11.636,11.636C174.545,204.241,169.332,209.455,162.909,209.455z"/>
	<path style="fill:#004463;" d="M162.909,244.364h-58.182c-6.423,0-11.636-5.213-11.636-11.636s5.213-11.636,11.636-11.636h58.182   c6.423,0,11.636,5.213,11.636,11.636S169.332,244.364,162.909,244.364z"/>
	<path style="fill:#004463;" d="M162.909,279.273h-58.182c-6.423,0-11.636-5.213-11.636-11.636c0-6.423,5.213-11.636,11.636-11.636   h58.182c6.423,0,11.636,5.213,11.636,11.636C174.545,274.06,169.332,279.273,162.909,279.273z"/>
	<path style="fill:#004463;" d="M162.909,314.182H69.818c-6.423,0-11.636-5.213-11.636-11.636s5.213-11.636,11.636-11.636h93.091   c6.423,0,11.636,5.213,11.636,11.636S169.332,314.182,162.909,314.182z"/>
	<circle style="fill:#004463;" cx="69.818" cy="197.818" r="11.636"/>
	<circle style="fill:#004463;" cx="69.818" cy="232.727" r="11.636"/>
	<circle style="fill:#004463;" cx="69.818" cy="267.636" r="11.636"/>
	<path style="fill:#004463;" d="M512,232.727c0-10.612-4.131-20.596-11.636-28.09l-84.282-84.282   c-17.571-17.583-40.96-27.264-65.815-27.264H34.909C15.663,93.091,0,108.753,0,128v209.455c0,19.247,15.663,34.909,34.909,34.909   h280.367c16.535,28.416,47.174,46.545,80.361,46.545c51.328,0,93.091-41.763,93.091-93.091c0-15.453-3.84-29.999-10.531-42.833   l22.167-22.167C507.869,253.312,512,243.34,512,232.727z M465.455,325.818c0,38.505-31.313,69.818-69.818,69.818   c-20.038,0-38.912-8.751-51.991-23.273h6.609c24.867,0,48.244-9.681,65.827-27.264l44.556-44.556   C463.709,308.387,465.455,316.893,465.455,325.818z M483.91,244.364l-19.235,19.223c-9.519-10.554-21.376-18.932-34.804-24.262   c0.419-2.129,0.675-4.34,0.675-6.598c0-19.247-15.663-34.909-34.909-34.909c-19.247,0-34.909,15.663-34.909,34.909   s15.663,34.909,34.909,34.909c8.378,0,15.977-3.095,22.004-8.029c11.974,3.991,22.481,11.124,30.592,20.433l-48.605,48.593   c-13.184,13.196-30.72,20.457-49.361,20.457H34.909c-6.412,0-11.636-5.225-11.636-11.636V128c0-6.412,5.225-11.636,11.636-11.636   h315.357c18.653,0,36.177,7.261,49.373,20.445l84.271,84.282c3.06,3.06,4.817,7.308,4.817,11.636   C488.727,237.126,487.017,241.257,483.91,244.364z M395.636,232.727c-4.259,0-7.82,2.397-9.844,5.818   c-1.036-1.745-1.792-3.654-1.792-5.818c0-6.412,5.225-11.636,11.636-11.636s11.636,5.225,11.636,11.636   c0,0.279-0.14,0.512-0.163,0.78C403.34,233.041,399.535,232.727,395.636,232.727z"/>
</g>
<g>
</g>
<g>
</g>
<g>
</g>
<g>
</g>
<g>
</g>
<g>
</g>
<g>
</g>
<g>
</g>
<g>
</g>
<g>
</g>
<g>
</g>
<g>
</g>
<g>
</g>
<g>
</g>
<g>
</g>
</svg>
