<?xml version="1.0" encoding="iso-8859-1"?>
<!-- Generator: Adobe Illustrator 19.0.0, SVG Export Plug-In . SVG Version: 6.00 Build 0)  -->
<svg xmlns="http://www.w3.org/2000/svg" xmlns:xlink="http://www.w3.org/1999/xlink" version="1.1" id="Capa_1" x="0px" y="0px" viewBox="0 0 512 512" style="enable-background:new 0 0 512 512;" xml:space="preserve">
<path style="fill:#004463;" d="M407.273,488.727H104.727c-44.916,0-81.455-36.55-81.455-81.455V104.727  c0-44.916,36.538-81.455,81.455-81.455h302.545c44.916,0,81.455,36.538,81.455,81.455v302.545  C488.727,452.177,452.189,488.727,407.273,488.727z M104.727,46.545c-32.081,0-58.182,26.1-58.182,58.182v302.545  c0,32.081,26.1,58.182,58.182,58.182h302.545c32.081,0,58.182-26.1,58.182-58.182V104.727c0-32.081-26.1-58.182-58.182-58.182  H104.727z"/>
<path style="fill:#EBEEF7;" d="M256,34.909C133.9,34.909,34.909,133.9,34.909,256S133.9,477.091,256,477.091  S477.091,378.1,477.091,256S378.1,34.909,256,34.909z M256,372.364c-64.268,0-116.364-52.096-116.364-116.364  S191.732,139.636,256,139.636S372.364,191.732,372.364,256S320.268,372.364,256,372.364z"/>
<path style="fill:#CCD9E4;" d="M393.809,83.281c30.208,37.807,48.372,85.655,48.372,137.809c0,122.1-98.991,221.091-221.091,221.091  c-52.154,0-100.003-18.164-137.809-48.372c40.518,50.711,102.772,83.281,172.719,83.281c122.1,0,221.091-98.991,221.091-221.091  C477.091,186.054,444.521,123.799,393.809,83.281z"/>
<path style="fill:#EF4C4E;" d="M358.179,451.828c20.224-10.484,38.4-23.738,54.156-39.494  c15.756-15.744,29.009-33.932,39.494-54.156l-80.361-47.116c-6.237,13.207-14.755,24.948-25.111,35.305  c-10.356,10.356-22.086,18.851-35.281,25.088L358.179,451.828z"/>
<path style="fill:#DB3440;" d="M410.833,334.15c-18.816,31.511-45.184,57.868-76.684,76.684l24.029,40.995  c20.224-10.484,38.412-23.75,54.156-39.494c15.756-15.756,29.009-33.943,39.494-54.156L410.833,334.15z"/>
<g>
	<path style="fill:#EF4C4E;" d="M99.665,99.665c-15.756,15.744-29.009,33.932-39.494,54.156l80.442,47.151   c6.237-13.207,14.72-24.879,25.088-35.235c10.368-10.356,22.074-18.886,35.281-25.135L153.833,60.16   C133.585,70.656,115.409,83.91,99.665,99.665z"/>
	<path style="fill:#EF4C4E;" d="M358.202,60.137l-47.174,80.465c13.207,6.237,24.879,14.72,35.235,25.088   s18.886,22.074,25.135,35.281l80.465-47.174c-10.484-20.224-23.773-38.388-39.529-54.132   C396.591,83.91,378.426,70.633,358.202,60.137z"/>
	<path style="fill:#EF4C4E;" d="M140.614,311.028l-80.465,47.174c10.484,20.224,23.773,38.388,39.529,54.132   c15.756,15.756,33.932,29.009,54.156,39.494l47.151-80.442c-13.079-6.458-25.053-14.604-35.34-25.03   C156.137,336.733,146.851,324.236,140.614,311.028z"/>
</g>
<g>
	<path style="fill:#DB3440;" d="M434.641,163.898l17.222-10.1c-10.473-20.212-23.773-38.377-39.517-54.132   c-5.772-5.772-11.974-11.089-18.374-16.175C412.625,106.903,426.659,134.156,434.641,163.898z"/>
	<path style="fill:#DB3440;" d="M163.863,434.688c-29.731-7.983-56.972-22.063-80.384-40.716c5.085,6.4,10.193,12.602,15.965,18.374   c15.756,15.756,34.129,29.033,54.353,39.529L163.863,434.688z"/>
</g>
<g>
	<path style="fill:#EF4C4E;" d="M158.394,467.025l59.357-101.248"/>
	<path style="fill:#EF4C4E;" d="M146.223,294.249L44.975,353.606"/>
</g>
<path style="fill:#004463;" d="M500.364,232.727c-0.419,0-0.768,0.198-1.164,0.233C488.25,116.585,395.415,23.75,279.04,12.8  c0.035-0.396,0.233-0.745,0.233-1.164C279.273,5.213,274.06,0,267.636,0h-23.273c-6.423,0-11.636,5.213-11.636,11.636  c0,0.419,0.198,0.768,0.233,1.164C116.585,23.75,23.75,116.585,12.8,232.96c-0.396-0.035-0.745-0.233-1.164-0.233  C5.213,232.727,0,237.94,0,244.364v23.273c0,6.423,5.213,11.636,11.636,11.636c0.419,0,0.768-0.198,1.164-0.233  C23.738,395.415,116.585,488.25,232.96,499.2c-0.035,0.396-0.233,0.745-0.233,1.164c0,6.435,5.213,11.636,11.636,11.636h23.273  c6.423,0,11.636-5.201,11.636-11.636c0-0.419-0.198-0.768-0.233-1.164c116.375-10.938,209.21-103.785,220.16-220.16  c0.396,0.035,0.745,0.233,1.164,0.233c6.423,0,11.636-5.213,11.636-11.636v-23.273C512,237.94,506.787,232.727,500.364,232.727z   M451.863,153.798l-80.465,47.174c-12.637-26.38-33.978-47.732-60.358-60.358l47.174-80.465  C398.161,81.082,430.918,113.839,451.863,153.798z M360.727,256c0,57.74-46.988,104.727-104.727,104.727S151.273,313.74,151.273,256  S198.26,151.273,256,151.273S360.727,198.26,360.727,256z M256,34.909c28.567,0,55.808,5.632,80.896,15.546l-48.058,81.978  C278.342,129.629,267.369,128,256,128s-22.342,1.629-32.849,4.433l-48.058-81.978C200.192,40.541,227.433,34.909,256,34.909z   M153.798,60.137l47.174,80.465c-26.38,12.637-47.732,33.978-60.358,60.358l-80.465-47.174  C81.082,113.839,113.839,81.082,153.798,60.137z M34.909,256c0-28.567,5.632-55.808,15.546-80.896l81.978,48.058  C129.629,233.658,128,244.631,128,256s1.629,22.342,4.433,32.849l-81.978,48.058C40.541,311.808,34.909,284.567,34.909,256z   M60.137,358.202l80.465-47.174c12.637,26.38,33.978,47.732,60.358,60.358l-47.174,80.477  C113.839,430.918,81.082,398.161,60.137,358.202z M256,477.091c-28.567,0-55.808-5.632-80.896-15.535l48.058-81.978  C233.658,382.371,244.631,384,256,384s22.342-1.629,32.849-4.433l48.058,81.978C311.808,471.459,284.567,477.091,256,477.091z   M358.202,451.863l-47.174-80.477c26.38-12.637,47.732-33.978,60.358-60.358l80.465,47.174  C430.918,398.161,398.161,430.918,358.202,451.863z M461.545,336.896l-81.978-48.058C382.371,278.342,384,267.369,384,256  s-1.629-22.342-4.433-32.849l81.978-48.058c9.914,25.1,15.546,52.34,15.546,80.908C477.091,284.567,471.459,311.808,461.545,336.896  z"/>
<g>
</g>
<g>
</g>
<g>
</g>
<g>
</g>
<g>
</g>
<g>
</g>
<g>
</g>
<g>
</g>
<g>
</g>
<g>
</g>
<g>
</g>
<g>
</g>
<g>
</g>
<g>
</g>
<g>
</g>
</svg>
