<?xml version="1.0" encoding="iso-8859-1"?>
<!-- Generator: Adobe Illustrator 19.0.0, SVG Export Plug-In . SVG Version: 6.00 Build 0)  -->
<svg xmlns="http://www.w3.org/2000/svg" xmlns:xlink="http://www.w3.org/1999/xlink" version="1.1" id="Capa_1" x="0px" y="0px" viewBox="0 0 512 512" style="enable-background:new 0 0 512 512;" xml:space="preserve">
<path style="fill:#AFC3D7;" d="M290.909,290.909h-69.818c-0.849,0-1.699-0.093-2.525-0.279L45.568,252.183  c-8.32-1.839-15.849-5.364-22.295-10.147v200.145c0,6.412,5.225,11.636,11.636,11.636h442.182c6.412,0,11.636-5.225,11.636-11.636  V242.036c-6.447,4.794-13.975,8.308-22.295,10.159l-173.009,38.447C292.608,290.816,291.759,290.909,290.909,290.909z"/>
<path style="fill:#90ABC2;" d="M465.455,197.818H23.273v67.235c6.47,4.841,13.917,8.553,22.284,10.415l172.975,38.435  c0.861,0.093,1.699,0.186,2.56,0.279h69.818c0.861-0.093,1.699-0.186,2.56-0.279l122.217-27.159  c25.542-5.679,49.769,13.766,49.769,39.924v92.241c0,6.423-5.213,11.636-11.636,11.636H23.273v11.636  c0,6.423,5.213,11.636,11.636,11.636h442.182c6.423,0,11.636-5.213,11.636-11.636V265.053v-67.235H465.455z"/>
<path style="fill:#AFC3D7;" d="M50.607,229.469l171.764,38.167h67.258l171.764-38.167c16.093-3.572,27.334-17.594,27.334-34.071  v-55.761c0-6.412-5.225-11.636-11.636-11.636H34.909c-6.412,0-11.636,5.225-11.636,11.636v55.761  C23.273,211.875,34.513,225.897,50.607,229.469z"/>
<path style="fill:#90ABC2;" d="M477.091,128h-23.273c6.423,0,11.636,5.213,11.636,11.636v55.75  c0,16.489-11.241,30.499-27.334,34.083l-171.753,38.167h23.273l171.764-38.167c16.081-3.584,27.322-17.594,27.322-34.083v-55.75  C488.727,133.213,483.514,128,477.091,128z"/>
<path style="fill:#004463;" d="M477.091,104.727H371.002c-5.015,0-9.449-3.2-11.031-7.959l-12.66-37.993  c-4.771-14.278-18.083-23.866-33.129-23.866H197.818c-15.046,0-28.358,9.588-33.117,23.866l-12.66,37.993  c-1.594,4.759-6.028,7.959-11.043,7.959H34.909C15.663,104.727,0,120.39,0,139.636v302.545c0,19.247,15.663,34.909,34.909,34.909  h442.182c19.247,0,34.909-15.663,34.909-34.909V139.636C512,120.39,496.337,104.727,477.091,104.727z M174.115,104.134l12.66-37.993  c1.594-4.759,6.028-7.959,11.043-7.959h116.364c5.015,0,9.449,3.2,11.043,7.959l12.66,37.981c0.07,0.209,0.186,0.396,0.256,0.605  H173.859C173.929,104.518,174.045,104.343,174.115,104.134z M488.727,442.182c0,6.412-5.225,11.636-11.636,11.636H34.909  c-6.412,0-11.636-5.225-11.636-11.636V241.78c6.47,4.841,13.917,8.553,22.295,10.415l173.009,38.447  c0.815,0.175,1.664,0.268,2.513,0.268h69.818c0.849,0,1.699-0.093,2.525-0.279l173.009-38.447  c8.367-1.862,15.814-5.562,22.295-10.415v200.413H488.727z M488.727,195.398c0,16.489-11.241,30.499-27.334,34.083l-171.764,38.156  h-67.258L50.607,229.469c-16.093-3.572-27.334-17.594-27.334-34.071v-55.761c0-6.412,5.225-11.636,11.636-11.636h442.182  c6.412,0,11.636,5.225,11.636,11.636V195.398z"/>
<path style="fill:#FFC95C;" d="M244.364,314.182h23.273c6.412,0,11.636-5.225,11.636-11.636v-23.273  c0-6.412-5.225-11.636-11.636-11.636h-23.273c-6.412,0-11.636,5.225-11.636,11.636v23.273  C232.727,308.957,237.952,314.182,244.364,314.182z"/>
<path style="fill:#004463;" d="M267.636,337.455h-23.273c-19.247,0-34.909-15.663-34.909-34.909v-23.273  c0-19.247,15.663-34.909,34.909-34.909h23.273c19.247,0,34.909,15.663,34.909,34.909v23.273  C302.545,321.792,286.883,337.455,267.636,337.455z M244.364,267.636c-6.412,0-11.636,5.225-11.636,11.636v23.273  c0,6.412,5.225,11.636,11.636,11.636h23.273c6.412,0,11.636-5.225,11.636-11.636v-23.273c0-6.412-5.225-11.636-11.636-11.636  H244.364z"/>
<g>
</g>
<g>
</g>
<g>
</g>
<g>
</g>
<g>
</g>
<g>
</g>
<g>
</g>
<g>
</g>
<g>
</g>
<g>
</g>
<g>
</g>
<g>
</g>
<g>
</g>
<g>
</g>
<g>
</g>
</svg>
