<?xml version="1.0" encoding="iso-8859-1"?>
<!-- Generator: Adobe Illustrator 19.0.0, SVG Export Plug-In . SVG Version: 6.00 Build 0)  -->
<svg xmlns="http://www.w3.org/2000/svg" xmlns:xlink="http://www.w3.org/1999/xlink" version="1.1" id="Capa_1" x="0px" y="0px" viewBox="0 0 512 512" style="enable-background:new 0 0 512 512;" xml:space="preserve">
<circle style="fill:#D3E2EC;" cx="256" cy="302.545" r="186.182"/>
<circle style="fill:#FFFFFF;" cx="256" cy="302.545" r="139.636"/>
<path style="fill:#004463;" d="M256,465.455c-89.833,0-162.909-73.076-162.909-162.909S166.167,139.636,256,139.636  s162.909,73.076,162.909,162.909S345.833,465.455,256,465.455z M256,162.909c-76.998,0-139.636,62.639-139.636,139.636  S179.002,442.182,256,442.182s139.636-62.639,139.636-139.636S332.998,162.909,256,162.909z"/>
<rect x="244.364" y="46.545" style="fill:#AFC3D7;" width="23.273" height="46.545"/>
<path style="fill:#EBEEF7;" d="M197.818,46.545h116.364c6.412,0,11.636-5.225,11.636-11.636s-5.225-11.636-11.636-11.636H197.818  c-6.412,0-11.636,5.225-11.636,11.636S191.407,46.545,197.818,46.545z"/>
<g>
	<circle style="fill:#004463;" cx="151.273" cy="302.545" r="11.636"/>
	<circle style="fill:#004463;" cx="256" cy="407.273" r="11.636"/>
</g>
<path style="fill:#C3D6E4;" d="M314.182,46.545H197.818c-6.423,0-11.636-5.213-11.636-11.636h139.636  C325.818,41.332,320.605,46.545,314.182,46.545z"/>
<path style="fill:#AFC3D7;" d="M256,186.182v116.364l82.281,82.281c21.062-21.062,34.083-50.153,34.083-82.281  C372.364,238.278,320.268,186.182,256,186.182z"/>
<circle style="fill:#004463;" cx="256" cy="197.818" r="11.636"/>
<path style="fill:#EF4D4E;" d="M337.455,395.636c-2.979,0-5.958-1.14-8.227-3.409L212.864,275.863c-4.55-4.55-4.55-11.904,0-16.454  c4.55-4.55,11.904-4.55,16.454,0l116.364,116.364c4.55,4.55,4.55,11.904,0,16.454C343.412,394.496,340.433,395.636,337.455,395.636z  "/>
<g>
	<circle style="fill:#004463;" cx="256" cy="302.545" r="23.273"/>
	<circle style="fill:#004463;" cx="360.727" cy="302.545" r="11.636"/>
	<path style="fill:#004463;" d="M411.869,163.13l18.676-18.676l3.409,3.409c2.269,2.269,5.248,3.409,8.227,3.409   s5.958-1.14,8.227-3.409c4.55-4.55,4.55-11.904,0-16.454l-23.273-23.273c-4.55-4.55-11.904-4.55-16.454,0   c-4.55,4.55-4.55,11.904,0,16.454l3.409,3.409l-18.676,18.676c-28.823-25.821-64.733-43.718-104.506-50.432V69.818h23.273   c19.247,0,34.909-15.663,34.909-34.909S333.428,0,314.182,0H197.818c-19.247,0-34.909,15.663-34.909,34.909   s15.663,34.909,34.909,34.909h23.273v26.426c-39.773,6.714-75.683,24.611-104.506,50.432L97.908,128l3.409-3.409   c4.55-4.55,4.55-11.904,0-16.454c-4.55-4.55-11.904-4.55-16.454,0l-23.273,23.273c-4.55,4.55-4.55,11.904,0,16.454   c2.269,2.269,5.248,3.409,8.227,3.409s5.958-1.14,8.227-3.409l3.409-3.409l18.676,18.676   c-33.199,37.073-53.585,85.853-53.585,139.415C46.545,418.036,140.509,512,256,512s209.455-93.964,209.455-209.455   C465.455,248.983,445.068,200.204,411.869,163.13z M197.818,46.545c-6.412,0-11.636-5.225-11.636-11.636   s5.225-11.636,11.636-11.636h116.364c6.412,0,11.636,5.225,11.636,11.636s-5.225,11.636-11.636,11.636H197.818z M244.364,69.818   h23.273v23.866c-3.875-0.221-7.703-0.593-11.636-0.593c-3.933,0-7.761,0.372-11.636,0.593V69.818z M256,488.727   c-102.656,0-186.182-83.526-186.182-186.182S153.344,116.364,256,116.364s186.182,83.526,186.182,186.182   S358.656,488.727,256,488.727z"/>
</g>
<g>
</g>
<g>
</g>
<g>
</g>
<g>
</g>
<g>
</g>
<g>
</g>
<g>
</g>
<g>
</g>
<g>
</g>
<g>
</g>
<g>
</g>
<g>
</g>
<g>
</g>
<g>
</g>
<g>
</g>
</svg>
