<?xml version="1.0" encoding="iso-8859-1"?>
<!-- Generator: Adobe Illustrator 19.0.0, SVG Export Plug-In . SVG Version: 6.00 Build 0)  -->
<svg xmlns="http://www.w3.org/2000/svg" xmlns:xlink="http://www.w3.org/1999/xlink" version="1.1" id="Capa_1" x="0px" y="0px" viewBox="0 0 512 512" style="enable-background:new 0 0 512 512;" xml:space="preserve">
<path style="fill:#EEC8AD;" d="M302.545,162.909c0-25.67-20.876-46.545-46.545-46.545c-25.67,0-46.545,20.876-46.545,46.545v23.273  c0,25.67,20.876,46.545,46.545,46.545c25.67,0,46.545-20.876,46.545-46.545V162.909z"/>
<path style="fill:#E1B597;" d="M290.909,168.134L290.909,168.134c-27.055-3.479-54.586-3.107-81.455,1.815v11.636  c20.422-3.526,41.181-4.561,61.836-3.34c10.892,0.64,17.664,12.928,11.648,22.028c-8.285,12.532-22.435,20.817-38.575,20.817  c-9.868,0-18.991-3.13-26.519-8.378c9.135,13.103,24.785,21.353,42.263,19.84c24.425-2.118,42.438-19.584,42.438-48.547v-2.42  v-11.729C298.671,169.181,294.807,168.634,290.909,168.134z"/>
<path style="fill:#8EC861;" d="M349.091,263.447v74.007h128c6.412,0,11.636-5.225,11.636-11.636v-62.371  c0-5.527-3.933-10.333-9.356-11.415l-16.652-3.328c-28.788-5.748-58.833-5.748-87.61,0l-16.652,3.328  C353.024,253.114,349.091,257.92,349.091,263.447z"/>
<path style="fill:#004463;" d="M477.091,360.727H337.455c-6.423,0-11.636-5.213-11.636-11.636v-85.644  c0-16.582,11.799-30.988,28.067-34.234l16.652-3.328c31.791-6.353,64.966-6.353,96.745,0l16.663,3.328  C500.201,232.46,512,246.854,512,263.447v62.371C512,345.065,496.337,360.727,477.091,360.727z M349.091,337.455h128  c6.412,0,11.636-5.225,11.636-11.636v-62.371c0-5.527-3.933-10.333-9.356-11.415l-16.652-3.328c-28.788-5.748-58.833-5.748-87.61,0  l-16.652,3.328c-5.434,1.082-9.367,5.888-9.367,11.415V337.455z"/>
<path style="fill:#70B856;" d="M479.372,252.032l-2.281-0.465v50.956c0,6.412-5.213,11.636-11.636,11.636H349.091v23.296h128  c6.423,0,11.636-5.225,11.636-11.636v-62.371C488.727,257.92,484.794,253.114,479.372,252.032z"/>
<path style="fill:#EF4C4E;" d="M23.273,263.447v62.371c0,6.412,5.225,11.636,11.636,11.636h128v-74.007  c0-5.527-3.933-10.333-9.356-11.415l-16.652-3.328c-14.394-2.886-29.137-4.34-43.811-4.34s-29.417,1.455-43.811,4.34l-16.652,3.328  C27.206,253.114,23.273,257.92,23.273,263.447z"/>
<path style="fill:#004463;" d="M174.545,360.727H34.909C15.663,360.727,0,345.065,0,325.818v-62.371  c0-16.582,11.799-30.988,28.067-34.234l16.652-3.328c31.791-6.353,64.966-6.353,96.745,0l16.663,3.328  c16.256,3.247,28.055,17.641,28.055,34.234v85.644C186.182,355.514,180.969,360.727,174.545,360.727z M93.091,244.364  c-14.673,0-29.417,1.455-43.811,4.34l-16.652,3.328c-5.423,1.082-9.356,5.888-9.356,11.415v62.371  c0,6.412,5.225,11.636,11.636,11.636h128v-74.007c0-5.527-3.933-10.333-9.356-11.415l-16.652-3.328  C122.508,245.818,107.764,244.364,93.091,244.364z"/>
<path style="fill:#DB3440;" d="M153.553,252.032l-2.281-0.465v39.343c0,12.858-10.415,23.273-23.273,23.273H23.273v11.636  c0,6.412,5.213,11.636,11.636,11.636h128v-74.007C162.909,257.92,158.976,253.114,153.553,252.032z"/>
<path style="fill:#70B6E4;" d="M349.091,412.369v-89.647c0-5.748-4.294-10.694-9.984-11.52l-44.241-6.319  c-10.903-1.548-22.016-2.339-33.012-2.339h-11.718c-10.996,0-22.097,0.791-33.012,2.339l-44.23,6.319  c-5.69,0.826-9.984,5.772-9.984,11.52v89.647c0,5.353,3.631,9.996,8.82,11.287l64.175,16.035c13.149,3.281,27.066,3.281,40.192,0  l64.186-16.035C345.46,422.365,349.091,417.722,349.091,412.369z"/>
<g>
	<path style="fill:#004463;" d="M256,465.455c-8.669,0-17.327-1.071-25.74-3.165l-64.175-16.035   c-15.569-3.898-26.449-17.827-26.449-33.885v-89.647c0-17.257,12.881-32.116,29.975-34.548l44.23-6.319   c11.997-1.711,24.215-2.583,36.305-2.583h11.718c12.09,0,24.297,0.873,36.294,2.583l44.241,6.319   c17.082,2.444,29.964,17.292,29.964,34.548v89.647c0,16.047-10.88,29.975-26.438,33.873l0,0l-64.186,16.035   C273.327,464.384,264.669,465.455,256,465.455z M250.147,302.545c-10.996,0-22.097,0.791-33.012,2.339l-44.23,6.319   c-5.702,0.826-9.996,5.772-9.996,11.52v89.647c0,5.353,3.631,9.996,8.82,11.287l64.175,16.035c13.149,3.281,27.066,3.281,40.192,0   l64.186-16.035c5.19-1.292,8.82-5.935,8.82-11.287v-89.647c0-5.748-4.294-10.694-9.984-11.52l-44.241-6.319   c-10.915-1.548-22.028-2.339-33.024-2.339H250.147z M343.098,434.956h0.116H343.098z"/>
	<path style="fill:#004463;" d="M395.636,465.455c-6.423,0-11.636-5.213-11.636-11.636s5.213-11.636,11.636-11.636   c32.081,0,58.182-26.1,58.182-58.182c0-6.423,5.213-11.636,11.636-11.636s11.636,5.213,11.636,11.636   C477.091,428.916,440.553,465.455,395.636,465.455z"/>
	<path style="fill:#004463;" d="M116.364,465.455c-44.916,0-81.455-36.538-81.455-81.455c0-6.423,5.213-11.636,11.636-11.636   S58.182,377.577,58.182,384c0,32.081,26.1,58.182,58.182,58.182c6.423,0,11.636,5.213,11.636,11.636   S122.787,465.455,116.364,465.455z"/>
</g>
<path style="fill:#4C9BD5;" d="M339.107,311.215l-1.652-0.244v71.971c0,10.682-7.273,19.991-17.629,22.575l-43.718,10.927  c-13.196,3.293-27.008,3.293-40.204,0l-64.163-16.035c-5.201-1.292-8.832-5.935-8.832-11.287v23.249  c0,5.341,3.631,9.996,8.82,11.299l64.163,16.035c13.196,3.305,27.008,3.305,40.204,0l61.359-15.337l0,0l2.828-0.71  c5.178-1.292,8.809-5.935,8.809-11.287V389.12v-66.397C349.091,316.975,344.797,312.017,339.107,311.215z"/>
<path style="fill:#D88A36;" d="M256,142.557c18.467,0,36.922,1.734,55.087,5.178c-8.052-25.367-29.673-43.008-55.087-43.008  s-47.034,17.641-55.087,43.008C219.078,144.291,237.533,142.557,256,142.557z"/>
<path style="fill:#C77629;" d="M295.482,145.524c5.213,0.698,10.438,1.233,15.604,2.211c-8.064-25.367-29.673-43.008-55.087-43.008  c-2.502,0-4.945,0.128-7.366,0.465C270.033,108.137,287.744,123.846,295.482,145.524z"/>
<path style="fill:#004463;" d="M256,81.455c-42.752,0-77.754,34.618-81.42,80.524c-0.291,3.747,1.222,7.401,4.096,9.821  c2.118,1.792,4.794,2.723,7.505,2.735v11.648C186.182,224.687,217.495,256,256,256s69.818-31.313,69.818-69.818v-11.636  c2.711,0,5.376-0.954,7.505-2.746c2.874-2.42,4.387-6.074,4.096-9.821C333.754,116.073,298.752,81.455,256,81.455z M256,104.727  c25.414,0,47.034,17.641,55.087,43.008c-18.164-3.444-36.62-5.178-55.087-5.178s-36.922,1.734-55.087,5.178  C208.966,122.368,230.586,104.727,256,104.727z M256,232.727c-25.67,0-46.545-20.876-46.545-46.545v-16.233  c30.755-5.306,62.336-5.306,93.091,0v16.233C302.545,211.852,281.67,232.727,256,232.727z"/>
<path style="fill:#EEC8AD;" d="M453.818,116.364c0-19.247-15.663-34.909-34.909-34.909c-19.247,0-34.909,15.663-34.909,34.909  v23.273c0,19.247,15.663,34.909,34.909,34.909c19.247,0,34.909-15.663,34.909-34.909V116.364z"/>
<path style="fill:#D88A36;" d="M418.909,97.466c14.394,0,28.788,1.257,42.973,3.747c-7.168-18.676-23.715-31.395-42.973-31.395  c-19.258,0-35.805,12.719-42.973,31.395C390.121,98.723,404.515,97.466,418.909,97.466z"/>
<path style="fill:#E1B597;" d="M442.182,122.065L442.182,122.065c-19.363-2.001-38.935-1.489-58.182,1.524v11.636  c15.558-2.432,31.337-3.13,47.034-2.257c5.969,0.337,9.46,7.017,6.516,12.218c-5.981,10.566-17.28,17.722-30.278,17.722  c-6.644,0-12.788-1.967-18.083-5.19c7.308,11.974,21.481,19.305,37.108,16.058c16.361-3.398,27.52-15.709,27.52-35.433v-3.119  V123.59C449.955,122.985,446.08,122.461,442.182,122.065z"/>
<path style="fill:#C77629;" d="M445.696,99.095c5.411,0.593,10.822,1.187,16.186,2.129c-7.168-18.688-23.715-31.407-42.973-31.407  c-2.595,0-5.12,0.186-7.599,0.64C426.508,73.181,439.168,84.061,445.696,99.095z"/>
<path style="fill:#004463;" d="M418.909,46.545c-36.643,0-66.653,29.615-69.783,68.887c-0.291,3.747,1.222,7.401,4.096,9.821  c2.118,1.792,4.783,2.723,7.505,2.723v11.66c0,32.081,26.1,58.182,58.182,58.182s58.182-26.1,58.182-58.182V128  c2.711,0,5.388-0.954,7.505-2.746c2.874-2.42,4.387-6.074,4.096-9.821C485.562,76.16,455.552,46.545,418.909,46.545z   M418.909,69.818c19.258,0,35.805,12.719,42.973,31.395c-14.185-2.49-28.579-3.747-42.973-3.747  c-14.394,0-28.788,1.257-42.973,3.747C383.104,82.537,399.651,69.818,418.909,69.818z M418.909,174.545  c-19.247,0-34.909-15.663-34.909-34.909V123.59c23.11-3.607,46.708-3.607,69.818,0v16.047  C453.818,158.883,438.156,174.545,418.909,174.545z"/>
<path style="fill:#EEC8AD;" d="M128,116.364c0-19.247-15.663-34.909-34.909-34.909s-34.909,15.663-34.909,34.909v23.273  c0,19.247,15.663,34.909,34.909,34.909S128,158.883,128,139.636V116.364z"/>
<path style="fill:#D88A36;" d="M93.091,97.466c14.394,0,28.788,1.257,42.973,3.747c-7.168-18.676-23.715-31.395-42.973-31.395  s-35.793,12.719-42.973,31.395C64.314,98.723,78.697,97.466,93.091,97.466z"/>
<path style="fill:#E1B597;" d="M116.364,122.065L116.364,122.065c-19.363-2.001-38.935-1.489-58.182,1.524v11.636  c15.558-2.432,31.337-3.13,47.034-2.257c5.969,0.337,9.46,7.017,6.516,12.218c-5.981,10.566-17.28,17.722-30.278,17.722  c-6.644,0-12.788-1.967-18.083-5.19c7.308,11.974,21.481,19.305,37.108,16.058c16.361-3.398,27.52-15.709,27.52-35.433v-3.119  V123.59C124.137,122.985,120.262,122.461,116.364,122.065z"/>
<path style="fill:#C77629;" d="M119.878,99.095c5.411,0.593,10.822,1.187,16.186,2.129c-7.168-18.688-23.715-31.407-42.973-31.407  c-2.595,0-5.12,0.186-7.599,0.64C100.689,73.181,113.35,84.061,119.878,99.095z"/>
<path style="fill:#004463;" d="M93.091,46.545c-36.643,0-66.641,29.615-69.783,68.887c-0.291,3.747,1.222,7.401,4.096,9.821  c2.118,1.792,4.794,2.723,7.505,2.723v11.66c0,32.081,26.1,58.182,58.182,58.182s58.182-26.1,58.182-58.182V128  c2.711,0,5.388-0.954,7.505-2.746c2.874-2.42,4.387-6.074,4.096-9.821C159.744,76.16,129.745,46.545,93.091,46.545z M93.091,69.818  c19.258,0,35.805,12.719,42.973,31.395c-14.185-2.49-28.579-3.747-42.973-3.747s-28.777,1.257-42.973,3.747  C57.297,82.537,73.833,69.818,93.091,69.818z M93.091,174.545c-19.247,0-34.909-15.663-34.909-34.909V123.59  c23.11-3.607,46.708-3.607,69.818,0v16.047C128,158.883,112.337,174.545,93.091,174.545z"/>
<g>
</g>
<g>
</g>
<g>
</g>
<g>
</g>
<g>
</g>
<g>
</g>
<g>
</g>
<g>
</g>
<g>
</g>
<g>
</g>
<g>
</g>
<g>
</g>
<g>
</g>
<g>
</g>
<g>
</g>
</svg>
