<?xml version="1.0" encoding="iso-8859-1"?>
<!-- Generator: Adobe Illustrator 19.0.0, SVG Export Plug-In . SVG Version: 6.00 Build 0)  -->
<svg xmlns="http://www.w3.org/2000/svg" xmlns:xlink="http://www.w3.org/1999/xlink" version="1.1" id="Capa_1" x="0px" y="0px" viewBox="0 0 512 512" style="enable-background:new 0 0 512 512;" xml:space="preserve">
<g>
	<rect x="58.182" y="384" style="fill:#EBEEF7;" width="128" height="46.545"/>
	<rect x="325.818" y="384" style="fill:#EBEEF7;" width="128" height="46.545"/>
</g>
<path style="fill:#CCD9E4;" d="M314.182,232.727H197.818H58.182v-12.684c8.192-1.338,16.151-3.933,23.273-8.122  c20.945,12.335,48.873,12.335,69.818,0c20.945,12.335,48.873,12.335,69.818,0c20.945,12.335,48.873,12.335,69.818,0  c20.945,12.335,48.873,12.335,69.818,0c20.945,12.335,48.873,12.335,69.818,0c7.121,4.189,15.081,6.842,23.273,8.192v12.614H314.182  z"/>
<g>
	<rect x="209.455" y="256" style="fill:#B0C4D8;" width="93.091" height="174.545"/>
	<path style="fill:#B0C4D8;" d="M488.727,465.455c0-6.412-5.225-11.636-11.636-11.636H34.909c-6.412,0-11.636,5.225-11.636,11.636   v11.636h465.455V465.455z"/>
</g>
<circle style="fill:#004463;" cx="279.273" cy="372.364" r="11.636"/>
<rect x="244.364" y="290.909" style="fill:#70B6E4;" width="23.273" height="34.909"/>
<path style="fill:#004463;" d="M279.273,349.091h-46.545c-6.423,0-11.636-5.213-11.636-11.636v-58.182  c0-6.423,5.213-11.636,11.636-11.636h46.545c6.423,0,11.636,5.213,11.636,11.636v58.182  C290.909,343.878,285.696,349.091,279.273,349.091z M244.364,325.818h23.273v-34.909h-23.273V325.818z"/>
<g>
	<rect x="58.182" y="256" style="fill:#70B6E4;" width="128" height="104.727"/>
	<rect x="325.818" y="256" style="fill:#70B6E4;" width="128" height="104.727"/>
</g>
<g>
	<polygon style="fill:#ACD6F2;" points="104.727,360.727 81.455,360.727 116.364,256 139.636,256  "/>
	<polygon style="fill:#ACD6F2;" points="128,360.727 116.364,360.727 151.273,256 162.909,256  "/>
	<polygon style="fill:#ACD6F2;" points="372.364,360.727 349.091,360.727 384,256 407.273,256  "/>
	<polygon style="fill:#ACD6F2;" points="395.636,360.727 384,360.727 418.909,256 430.545,256  "/>
</g>
<polygon style="fill:#F16A5F;" points="53.737,104.727 30.464,151.273 481.536,151.273 458.263,104.727 "/>
<g>
	<polygon style="fill:#FFFFFF;" points="142.883,151.273 158.406,104.727 123.555,104.727 100.282,151.273  "/>
	<polygon style="fill:#FFFFFF;" points="353.594,104.727 369.117,151.273 411.718,151.273 388.445,104.727  "/>
	<polygon style="fill:#FFFFFF;" points="234.833,151.273 277.167,151.273 269.417,104.727 242.583,104.727  "/>
</g>
<path style="fill:#EF4B4D;" d="M23.273,191.756c15.162,8.972,37.283,7.959,50.886-2.991c4.259-3.433,10.333-3.433,14.592,0  c14.964,12.044,40.262,12.044,55.226,0c4.259-3.433,10.333-3.433,14.592,0c14.964,12.044,40.262,12.044,55.226,0  c4.259-3.433,10.333-3.433,14.592,0c14.964,12.044,40.262,12.044,55.226,0c4.259-3.433,10.333-3.433,14.592,0  c14.964,12.044,40.262,12.044,55.226,0c4.259-3.433,10.333-3.433,14.592,0c14.964,12.044,40.262,12.044,55.226,0  c2.129-1.722,4.713-2.583,7.296-2.583s5.167,0.861,7.296,2.572c13.603,10.95,35.735,11.962,50.886,2.991v-17.199H23.273V191.756z"/>
<g>
	<path style="fill:#D3E2EC;" d="M93.091,174.545v17.21c13.638,8.052,32.908,8.052,46.545,0v-17.21H93.091z"/>
	<path style="fill:#D3E2EC;" d="M232.727,174.545v17.21c13.638,8.052,32.908,8.052,46.545,0v-17.21H232.727z"/>
	<path style="fill:#D3E2EC;" d="M372.364,174.545v17.21c13.638,8.052,32.908,8.052,46.545,0v-17.21H372.364z"/>
</g>
<path style="fill:#EBEEF7;" d="M453.818,46.545c0-6.412-5.225-11.636-11.636-11.636H69.818c-6.412,0-11.636,5.225-11.636,11.636  v34.909h395.636V46.545z"/>
<g>
	<circle style="fill:#004463;" cx="349.091" cy="58.182" r="11.636"/>
	<circle style="fill:#004463;" cx="162.909" cy="58.182" r="11.636"/>
	<path style="fill:#004463;" d="M314.182,69.818H197.818c-6.423,0-11.636-5.213-11.636-11.636s5.213-11.636,11.636-11.636h116.364   c6.423,0,11.636,5.213,11.636,11.636S320.605,69.818,314.182,69.818z"/>
	<path style="fill:#004463;" d="M507.66,206.883c2.746-2.211,4.34-5.539,4.34-9.065v-34.909c0-1.873-0.442-3.631-1.222-5.201   l-33.687-67.363V46.545c0-19.247-15.663-34.909-34.909-34.909H69.818c-19.247,0-34.909,15.663-34.909,34.909v43.799L1.222,157.708   c-0.058,0.14-0.314,0.896-0.407,1.199c-0.291,0.861-0.768,2.339-0.815,3.549c0,0.163,0,0.291,0,0.454v34.909   c0,3.526,1.594,6.854,4.34,9.065c8.785,7.075,19.456,11.38,30.569,13.196v210.467C15.663,430.545,0,446.208,0,465.455v23.273   c0,6.423,5.213,11.636,11.636,11.636h488.727c6.423,0,11.636-5.213,11.636-11.636v-23.273c0-19.247-15.663-34.909-34.909-34.909   V220.207C488.215,218.391,498.863,213.958,507.66,206.883z M325.818,360.727V256h128v104.727H325.818z M453.818,384v46.545h-128   V384H453.818z M314.182,232.727H197.818H58.182v-12.684c8.192-1.338,16.151-3.933,23.273-8.122   c20.945,12.335,48.873,12.335,69.818,0c20.945,12.335,48.873,12.335,69.818,0c20.945,12.335,48.873,12.335,69.818,0   c20.945,12.335,48.873,12.335,69.818,0c20.945,12.335,48.873,12.335,69.818,0c7.121,4.189,15.081,6.842,23.273,8.192v12.614   H314.182z M302.545,256v174.545h-93.091V256H302.545z M58.182,384h128v46.545h-128V384z M58.182,360.727V256h128v104.727H58.182z    M139.636,174.545v17.047c-13.661,8.111-32.884,8.111-46.545,0v-17.047H139.636z M100.282,151.273l23.273-46.545h34.851   l-15.511,46.545H100.282z M209.455,174.545v17.047c-13.661,8.111-32.884,8.111-46.545,0v-17.047H209.455z M167.424,151.273   l15.511-46.545h36.061l-7.761,46.545H167.424z M279.273,174.545v17.047c-13.661,8.111-32.884,8.111-46.545,0v-17.047H279.273z    M234.833,151.273l7.761-46.545h26.833l7.761,46.545H234.833z M300.765,151.273l-7.761-46.545h36.061l15.511,46.545H300.765z    M349.091,174.545v17.047c-13.661,8.111-32.884,8.111-46.545,0v-17.047H349.091z M369.117,151.273l-15.511-46.545h34.851   l23.273,46.545H369.117z M418.909,174.545v17.047c-13.661,8.111-32.884,8.111-46.545,0v-17.047H418.909z M488.727,191.756   c-13.649,8.076-32.908,7.983-46.545-0.105v-17.105h46.545V191.756z M481.536,151.273h-43.799l-23.273-46.545h43.799   L481.536,151.273z M58.182,46.545c0-6.412,5.225-11.636,11.636-11.636h372.364c6.412,0,11.636,5.225,11.636,11.636v34.909H58.182   V46.545z M53.737,104.727h43.799l-23.273,46.545H30.464L53.737,104.727z M23.273,174.545h46.545v17.105   c-13.638,8.087-32.884,8.18-46.545,0.105V174.545z M488.727,465.455v11.636H23.273v-11.636c0-6.412,5.225-11.636,11.636-11.636   h442.182C483.503,453.818,488.727,459.043,488.727,465.455z"/>
</g>
<g>
</g>
<g>
</g>
<g>
</g>
<g>
</g>
<g>
</g>
<g>
</g>
<g>
</g>
<g>
</g>
<g>
</g>
<g>
</g>
<g>
</g>
<g>
</g>
<g>
</g>
<g>
</g>
<g>
</g>
</svg>
