<?xml version="1.0" encoding="iso-8859-1"?>
<!-- Generator: Adobe Illustrator 19.0.0, SVG Export Plug-In . SVG Version: 6.00 Build 0)  -->
<svg xmlns="http://www.w3.org/2000/svg" xmlns:xlink="http://www.w3.org/1999/xlink" version="1.1" id="Capa_1" x="0px" y="0px" viewBox="0 0 512 512" style="enable-background:new 0 0 512 512;" xml:space="preserve">
<g>
	<path style="fill:#D3E2EC;" d="M69.818,232.727h372.364c6.412,0,11.636-5.225,11.636-11.636v-69.818   c0-6.412-5.225-11.636-11.636-11.636H69.818c-6.412,0-11.636,5.225-11.636,11.636v69.818   C58.182,227.503,63.407,232.727,69.818,232.727z"/>
	<path style="fill:#D3E2EC;" d="M69.818,349.091h372.364c6.412,0,11.636-5.225,11.636-11.636v-69.818   c0-6.412-5.225-11.636-11.636-11.636H69.818c-6.412,0-11.636,5.225-11.636,11.636v69.818   C58.182,343.866,63.407,349.091,69.818,349.091z"/>
</g>
<g>
	<path style="fill:#AFC3D7;" d="M442.182,256v69.818c0,6.412-5.213,11.636-11.636,11.636H58.182c0,6.412,5.213,11.636,11.636,11.636   h372.364c6.423,0,11.636-5.225,11.636-11.636v-69.818C453.818,261.225,448.605,256,442.182,256z"/>
	<path style="fill:#AFC3D7;" d="M442.182,139.636v69.818c0,6.412-5.213,11.636-11.636,11.636H58.182   c0,6.412,5.213,11.636,11.636,11.636h372.364c6.423,0,11.636-5.225,11.636-11.636v-69.818   C453.818,144.861,448.605,139.636,442.182,139.636z"/>
</g>
<g>
	<path style="fill:#004463;" d="M418.909,314.182H302.545c-6.423,0-11.636-5.213-11.636-11.636s5.213-11.636,11.636-11.636h116.364   c6.423,0,11.636,5.213,11.636,11.636S425.332,314.182,418.909,314.182z"/>
	<path style="fill:#004463;" d="M418.909,197.818H302.545c-6.423,0-11.636-5.213-11.636-11.636s5.213-11.636,11.636-11.636h116.364   c6.423,0,11.636,5.213,11.636,11.636S425.332,197.818,418.909,197.818z"/>
</g>
<g>
	<circle style="fill:#004362;" cx="93.091" cy="302.545" r="11.636"/>
	<circle style="fill:#004362;" cx="139.636" cy="186.182" r="11.636"/>
	<circle style="fill:#004362;" cx="139.636" cy="302.545" r="11.636"/>
	<circle style="fill:#004362;" cx="186.182" cy="186.182" r="11.636"/>
	<circle style="fill:#004362;" cx="186.182" cy="302.545" r="11.636"/>
	<circle style="fill:#004362;" cx="256" cy="186.182" r="11.636"/>
	<circle style="fill:#004362;" cx="256" cy="302.545" r="11.636"/>
</g>
<path style="fill:#D3E2EC;" d="M69.818,116.364h372.364c6.412,0,11.636-5.225,11.636-11.636V34.909  c0-6.412-5.225-11.636-11.636-11.636H69.818c-6.412,0-11.636,5.225-11.636,11.636v69.818  C58.182,111.139,63.407,116.364,69.818,116.364z"/>
<path style="fill:#AFC3D7;" d="M442.182,23.273v69.818c0,6.412-5.213,11.636-11.636,11.636H58.182  c0,6.412,5.213,11.636,11.636,11.636h372.364c6.423,0,11.636-5.225,11.636-11.636V34.909  C453.818,28.497,448.605,23.273,442.182,23.273z"/>
<path style="fill:#004463;" d="M418.909,81.455H302.545c-6.423,0-11.636-5.213-11.636-11.636s5.213-11.636,11.636-11.636h116.364  c6.423,0,11.636,5.213,11.636,11.636S425.332,81.455,418.909,81.455z"/>
<g>
	<circle style="fill:#004362;" cx="93.091" cy="69.818" r="11.636"/>
	<circle style="fill:#004362;" cx="139.636" cy="69.818" r="11.636"/>
	<circle style="fill:#004362;" cx="186.182" cy="69.818" r="11.636"/>
	<circle style="fill:#004362;" cx="256" cy="69.818" r="11.636"/>
	<circle style="fill:#004362;" cx="93.091" cy="186.182" r="11.636"/>
</g>
<circle style="fill:#70B6E4;" cx="256" cy="465.455" r="23.273"/>
<path style="fill:#004463;" d="M477.091,34.909C477.091,15.663,461.428,0,442.182,0H69.818C50.572,0,34.909,15.663,34.909,34.909  v69.818c0,8.972,3.503,17.082,9.076,23.273c-5.574,6.191-9.076,14.301-9.076,23.273v69.818c0,8.972,3.503,17.082,9.076,23.273  c-5.574,6.191-9.076,14.301-9.076,23.273v69.818c0,19.247,15.663,34.909,34.909,34.909h174.545v48.198  c-16.279,4.236-29.021,16.977-33.257,33.257h-59.834c-6.423,0-11.636,5.213-11.636,11.636s5.213,11.636,11.636,11.636h59.834  C216.308,497.105,234.38,512,256,512s39.692-14.895,44.893-34.909h59.834c6.423,0,11.636-5.213,11.636-11.636  s-5.213-11.636-11.636-11.636h-59.834c-4.236-16.279-16.977-29.021-33.257-33.257v-48.198h174.545  c19.247,0,34.909-15.663,34.909-34.909v-69.818c0-8.972-3.503-17.082-9.076-23.273c5.585-6.191,9.076-14.301,9.076-23.273v-69.818  c0-8.972-3.503-17.082-9.076-23.273c5.574-6.191,9.076-14.301,9.076-23.273V34.909z M279.273,465.455  c0,12.835-10.438,23.273-23.273,23.273c-12.835,0-23.273-10.438-23.273-23.273s10.438-23.273,23.273-23.273  C268.835,442.182,279.273,452.62,279.273,465.455z M58.182,34.909c0-6.412,5.225-11.636,11.636-11.636h372.364  c6.412,0,11.636,5.225,11.636,11.636v69.818c0,6.412-5.225,11.636-11.636,11.636H69.818c-6.412,0-11.636-5.225-11.636-11.636V34.909  z M453.818,151.273v69.818c0,6.412-5.225,11.636-11.636,11.636H69.818c-6.412,0-11.636-5.225-11.636-11.636v-69.818  c0-6.412,5.225-11.636,11.636-11.636h372.364C448.593,139.636,453.818,144.861,453.818,151.273z M453.818,337.455  c0,6.412-5.225,11.636-11.636,11.636H69.818c-6.412,0-11.636-5.225-11.636-11.636v-69.818c0-6.412,5.225-11.636,11.636-11.636  h372.364c6.412,0,11.636,5.225,11.636,11.636V337.455z"/>
<g>
</g>
<g>
</g>
<g>
</g>
<g>
</g>
<g>
</g>
<g>
</g>
<g>
</g>
<g>
</g>
<g>
</g>
<g>
</g>
<g>
</g>
<g>
</g>
<g>
</g>
<g>
</g>
<g>
</g>
</svg>
