<?xml version="1.0" encoding="iso-8859-1"?>
<!-- Generator: Adobe Illustrator 19.0.0, SVG Export Plug-In . SVG Version: 6.00 Build 0)  -->
<svg xmlns="http://www.w3.org/2000/svg" xmlns:xlink="http://www.w3.org/1999/xlink" version="1.1" id="Capa_1" x="0px" y="0px" viewBox="0 0 512 512" style="enable-background:new 0 0 512 512;" xml:space="preserve">
<path style="fill:#EBEEF7;" d="M347.31,161.86C336.884,90.087,279.319,33.65,207.348,24.609c-7.052-0.884-14.08-1.327-21.073-1.327  c-43.264,0-84.41,16.826-115.293,47.709c-35.852,35.852-52.759,85.562-46.371,136.367c9.041,71.971,65.478,129.524,137.251,139.962  c37.737,5.516,74.764-1.745,107.043-20.934c17.094-10.17,37.62-10.787,54.749-2.735c-8.064-17.129-7.436-37.644,2.723-54.749  C345.565,236.612,352.803,199.597,347.31,161.86z"/>
<circle style="fill:#ACD6F2;" cx="186.182" cy="186.18" r="116.364"/>
<path style="fill:#004463;" d="M186.182,325.816c-76.998,0-139.636-62.639-139.636-139.636S109.184,46.543,186.182,46.543  s139.636,62.639,139.636,139.636S263.179,325.816,186.182,325.816z M186.182,69.816c-64.163,0-116.364,52.201-116.364,116.364  s52.201,116.364,116.364,116.364s116.364-52.201,116.364-116.364S250.345,69.816,186.182,69.816z"/>
<path style="fill:#D3EEFB;" d="M93.091,197.816c-6.423,0-11.636-5.213-11.636-11.636c0-57.74,46.988-104.727,104.727-104.727  c6.423,0,11.636,5.213,11.636,11.636c0,6.423-5.213,11.636-11.636,11.636c-44.916,0-81.455,36.538-81.455,81.455  C104.727,192.603,99.514,197.816,93.091,197.816z"/>
<path style="fill:#EF4C4E;" d="M453.818,500.141c-7.54,0-14.778-2.921-19.863-8.006L331.636,389.816l58.182-58.182l102.319,102.319  c5.225,5.225,8.227,12.463,8.227,19.863c0,7.401-3.002,14.639-8.227,19.863l-18.455,18.455  C468.596,497.22,461.358,500.141,453.818,500.141z"/>
<path style="fill:#004463;" d="M500.363,425.726L398.045,323.408c-4.55-4.55-11.904-4.55-16.454,0l-15.046,15.046l-15.011-15.011  c-11.264-11.264-13.382-28.812-5.155-42.659c21.946-36.911,30.231-79.197,23.971-122.275  C358.411,76.402,292.573,11.844,210.246,1.511C152.297-5.774,95.511,13.543,54.528,54.526S-5.783,152.272,1.513,210.244  C11.857,292.56,76.416,358.398,158.51,370.337c43.089,6.249,85.376-2.036,122.275-23.971c13.859-8.215,31.395-6.097,42.659,5.155  l15.011,15.011l-15.046,15.046c-4.55,4.55-4.55,11.904,0,16.454l102.319,102.33c7.505,7.505,17.478,11.636,28.09,11.636  s20.596-4.131,28.09-11.636l18.455-18.455c7.505-7.505,11.636-17.478,11.636-28.09C512,443.204,507.869,433.22,500.363,425.726z   M323.642,323.64c-17.117-8.052-37.644-7.436-54.749,2.735c-32.279,19.188-69.306,26.449-107.043,20.934  C90.089,336.871,33.652,279.317,24.599,207.346C18.211,156.542,35.13,106.843,70.982,70.98  c30.883-30.883,72.029-47.709,115.293-47.709c6.982,0,14.01,0.442,21.073,1.327c71.971,9.041,129.524,65.478,139.962,137.263  c5.492,37.737-1.745,74.752-20.934,107.043C316.218,285.997,315.578,306.512,323.642,323.64z M483.91,465.453l-18.455,18.455  c-6.121,6.121-17.152,6.121-23.273,0l-94.092-94.092l41.728-41.728l94.092,94.092c3.06,3.06,4.817,7.308,4.817,11.636  C488.727,458.145,486.97,462.392,483.91,465.453z"/>
<path style="fill:#DC343F;" d="M483.91,443.181l-18.455,18.455c-6.225,6.202-17.047,6.202-23.273,0l-82.956-82.956l-11.136,11.136  l94.092,94.092c6.225,6.202,17.047,6.202,23.273,0l18.455-18.455c3.107-3.119,4.817-7.238,4.817-11.636  c0-4.189-1.652-8.076-4.48-11.136C484.107,442.832,484.049,443.029,483.91,443.181z"/>
<path style="fill:#DD333F;" d="M197.818,244.362h-23.273c-6.423,0-11.636-5.213-11.636-11.636V127.998  c0-6.423,5.213-11.636,11.636-11.636h23.273c6.423,0,11.636,5.213,11.636,11.636v104.727  C209.454,239.149,204.241,244.362,197.818,244.362z"/>
<path style="fill:#0E9247;" d="M256,244.362h-23.273c-6.423,0-11.636-5.213-11.636-11.636v-69.818  c0-6.423,5.213-11.636,11.636-11.636H256c6.423,0,11.636,5.213,11.636,11.636v69.818C267.636,239.149,262.423,244.362,256,244.362z"/>
<path style="fill:#1470B7;" d="M139.636,244.362h-23.273c-6.423,0-11.636-5.213-11.636-11.636V186.18  c0-6.423,5.213-11.636,11.636-11.636h23.273c6.423,0,11.636,5.213,11.636,11.636v46.545  C151.273,239.149,146.059,244.362,139.636,244.362z"/>
<g>
</g>
<g>
</g>
<g>
</g>
<g>
</g>
<g>
</g>
<g>
</g>
<g>
</g>
<g>
</g>
<g>
</g>
<g>
</g>
<g>
</g>
<g>
</g>
<g>
</g>
<g>
</g>
<g>
</g>
</svg>
