<?xml version="1.0" encoding="iso-8859-1"?>
<!-- Generator: Adobe Illustrator 19.0.0, SVG Export Plug-In . SVG Version: 6.00 Build 0)  -->
<svg xmlns="http://www.w3.org/2000/svg" xmlns:xlink="http://www.w3.org/1999/xlink" version="1.1" id="Capa_1" x="0px" y="0px" viewBox="0 0 512.003 512.003" style="enable-background:new 0 0 512.003 512.003;" xml:space="preserve">
<g>
	<path style="fill:#004463;" d="M58.185,465.456c-2.979,0-5.958-1.14-8.227-3.409c-4.55-4.55-4.55-11.904,0-16.454l69.818-69.818   c4.55-4.55,11.904-4.55,16.454,0c4.55,4.55,4.55,11.904,0,16.454l-69.818,69.818C64.143,464.316,61.164,465.456,58.185,465.456z"/>
	<path style="fill:#004463;" d="M11.639,512.001c-2.979,0-5.958-1.14-8.227-3.409c-4.55-4.55-4.55-11.904,0-16.454l23.273-23.273   c4.55-4.55,11.904-4.55,16.454,0s4.55,11.904,0,16.454l-23.273,23.273C17.597,510.861,14.618,512.001,11.639,512.001z"/>
</g>
<path style="fill:#EBEEF7;" d="M438.799,23.274c-47.244,0-91.648,18.397-125.056,51.793L132.82,256.001l123.183,123.183  L436.937,198.25c33.396-33.396,51.793-77.812,51.793-125.044V51.364c0-7.389-3.002-14.639-8.227-19.863  c-5.306-5.306-12.358-8.227-19.863-8.227H438.799z"/>
<path style="fill:#CCD9E4;" d="M483.913,35.644v2.641c0,47.232-18.397,91.636-51.793,125.056L251.185,344.275L147.866,240.956  l-15.046,15.046l123.183,123.183L436.937,198.25c33.396-33.408,51.793-77.812,51.793-125.056v-21.83  C488.73,45.674,487.031,40.252,483.913,35.644z"/>
<polygon style="fill:#AFC3D7;" points="337.457,367.548 337.457,330.637 295.729,372.365 314.185,390.82 "/>
<path style="fill:#EBEEF7;" d="M382.583,355.329l-75.217,75.217l30.092,30.092l75.217-75.229c4.026-4.015,6.237-9.356,6.237-15.046  c0-11.729-9.542-21.271-21.283-21.271C391.951,349.092,386.609,351.303,382.583,355.329z"/>
<path style="fill:#CCD9E4;" d="M413.629,356.353c-0.849,3.956-2.839,7.68-5.772,10.601l-75.217,75.229l-18.455-18.455l-6.819,6.819  l30.092,30.092l75.229-75.217c4.015-4.026,6.225-9.367,6.225-15.046C418.912,365.011,416.911,360.1,413.629,356.353z"/>
<path style="fill:#AFC3D7;" d="M135.66,308.377c-4.806,1.606-9.402,3.852-13.638,6.644l74.961,74.95  c2.793-4.236,5.039-8.832,6.633-13.626l4.154-12.474l-59.648-59.648L135.66,308.377z"/>
<path style="fill:#97B3CC;" d="M148.122,304.223l-11.706,3.91l42.636,42.636c7.11,7.11,9.6,17.804,5.935,27.171l-0.012,0.035  l12.009,12.009c2.793-4.236,5.05-8.832,6.633-13.626l4.154-12.474L148.122,304.223z"/>
<polygon style="fill:#AFC3D7;" points="139.639,216.275 181.367,174.547 144.457,174.547 121.184,197.82 "/>
<path style="fill:#EBEEF7;" d="M126.583,99.329l-75.217,75.217l30.092,30.092l75.217-75.229c4.026-4.015,6.237-9.356,6.237-15.046  c0-11.729-9.542-21.271-21.283-21.271C135.951,93.092,130.609,95.303,126.583,99.329z"/>
<g>
	<path style="fill:#004463;" d="M267.639,512.001c-2.979,0-5.958-1.14-8.227-3.409c-4.55-4.55-4.55-11.904,0-16.454l23.273-23.273   c4.55-4.55,11.904-4.55,16.454,0s4.55,11.904,0,16.454l-23.273,23.273C273.597,510.861,270.618,512.001,267.639,512.001z"/>
	<path style="fill:#004463;" d="M139.639,453.82c-2.979,0-5.958-1.14-8.227-3.409c-4.55-4.55-4.55-11.904,0-16.454l23.273-23.273   c4.55-4.55,11.904-4.55,16.454,0c4.55,4.55,4.55,11.904,0,16.454l-23.273,23.273C145.597,452.679,142.618,453.82,139.639,453.82z"/>
	<path style="fill:#004463;" d="M69.821,384.001c-2.979,0-5.958-1.14-8.227-3.409c-4.55-4.55-4.55-11.904,0-16.454l23.273-23.273   c4.55-4.55,11.904-4.55,16.454,0s4.55,11.904,0,16.454l-23.273,23.273C75.779,382.861,72.8,384.001,69.821,384.001z"/>
	<path style="fill:#004463;" d="M11.639,256.001c-2.979,0-5.958-1.14-8.227-3.409c-4.55-4.55-4.55-11.904,0-16.454l23.273-23.273   c4.55-4.55,11.904-4.55,16.454,0c4.55,4.55,4.55,11.904,0,16.454l-23.273,23.273C17.597,254.861,14.618,256.001,11.639,256.001z"/>
</g>
<circle style="fill:#ACD6F2;" cx="337.457" cy="174.547" r="34.909"/>
<path style="fill:#70B6E4;" d="M319.351,204.383c-3.235-5.295-5.167-11.555-5.167-18.199c0-19.247,15.663-34.909,34.909-34.909  c6.644,0,12.87,1.862,18.153,5.097c-6.132-10.054-17.175-16.733-29.789-16.733c-19.247,0-34.909,15.663-34.909,34.909  C302.548,187.161,309.297,198.25,319.351,204.383z"/>
<path style="fill:#EF4C4E;" d="M438.799,23.274c-17.024,0-34.141,2.327-50.909,7.436c10.845,45.452,46.255,81.862,93.405,93.405  c5.108-16.78,7.436-33.897,7.436-50.909V51.364c0-7.389-3.002-14.639-8.227-19.863c-5.306-5.306-12.358-8.227-19.863-8.227H438.799z  "/>
<path style="fill:#DB3440;" d="M483.913,38.285c0,28.451-6.796,55.831-19.398,80.442c5.341,2.129,11.113,3.968,16.791,5.376  c0.128-0.431,0.163-0.849,0.314-1.28c5.027-16.163,7.11-32.57,7.11-49.629v-21.83c0-5.69-1.699-11.113-4.817-15.721V38.285z"/>
<line style="fill:none;stroke:#004463;stroke-width:2;stroke-linecap:round;stroke-linejoin:round;stroke-miterlimit:10;" x1="162.912" y1="209.456" x2="302.548" y2="349.092"/>
<rect x="188.2" y="215.458" transform="matrix(-0.7071 0.7071 -0.7071 -0.7071 571.5428 368.3813)" style="fill:#EF4C4E;" width="42.554" height="174.206"/>
<path style="fill:#DB3440;" d="M236.14,329.229l-88.273-88.273l-15.046,15.046l123.183,123.183l30.092-30.092l-19.863-19.863l0,0  C257.923,337.537,244.448,337.537,236.14,329.229z"/>
<rect x="318.573" y="415.125" transform="matrix(-0.7071 0.7071 -0.7071 -0.7071 874.6989 510.4924)" style="fill:#EF4C4E;" width="26.1" height="42.554"/>
<path style="fill:#DB3440;" d="M344.276,430.547L344.276,430.547c-6.423,6.423-16.849,6.423-23.273,0l-6.819-6.819l-6.819,6.819  l30.092,30.092l18.455-18.455L344.276,430.547z"/>
<path style="fill:#CCD9E4;" d="M157.711,100.435c-0.849,3.956-2.921,7.599-5.841,10.531L76.64,186.183l-18.455-18.455l-6.819,6.819  l30.092,30.092l75.229-75.217c4.015-4.026,6.225-9.367,6.225-15.046C162.912,109.011,160.992,104.182,157.711,100.435z"/>
<rect x="62.574" y="159.089" transform="matrix(-0.7068 0.7074 -0.7074 -0.7068 256.6538 254.3474)" style="fill:#EF4C4E;" width="26.088" height="42.542"/>
<path style="fill:#DB3440;" d="M88.276,174.547L88.276,174.547c-6.423,6.423-16.849,6.423-23.273,0l-6.819-6.819l-6.819,6.819  l30.092,30.057l18.455-18.42L88.276,174.547z"/>
<g>
	<path style="fill:#004463;" d="M337.457,232.729c-32.081,0-58.182-26.1-58.182-58.182s26.1-58.182,58.182-58.182   s58.182,26.1,58.182,58.182S369.539,232.729,337.457,232.729z M337.457,139.638c-19.247,0-34.909,15.663-34.909,34.909   s15.663,34.909,34.909,34.909c19.247,0,34.909-15.663,34.909-34.909S356.704,139.638,337.457,139.638z"/>
	<path style="fill:#004463;" d="M496.969,15.047c-9.705-9.705-22.598-15.046-36.329-15.046h-21.83   c-53.457,0-103.715,20.817-141.51,58.612l-92.66,92.66h-36.911l5.399-5.399c8.425-8.413,13.056-19.607,13.056-31.511   c0-24.564-19.98-44.544-44.556-44.544c-11.892,0-23.075,4.631-31.5,13.044L26.685,166.32c-4.55,4.55-4.55,11.904,0,16.454   l46.545,46.545c2.176,2.188,5.143,3.409,8.227,3.409s6.051-1.222,8.227-3.409l15.046-15.046l18.455,18.455l-15.046,15.046   c-4.55,4.55-4.55,11.904,0,16.454l21.597,21.597l-1.431,0.477c-11.916,3.968-22.912,10.764-31.802,19.654   c-4.55,4.55-4.55,11.904,0,16.454l93.091,93.091c2.269,2.269,5.248,3.409,8.227,3.409c2.979,0,5.958-1.14,8.227-3.409   c8.89-8.89,15.686-19.875,19.654-31.791l0.477-1.431l21.597,21.597c2.269,2.257,5.248,3.398,8.227,3.398   c2.979,0,5.958-1.14,8.227-3.409l15.046-15.046l18.455,18.455l-15.046,15.046c-4.55,4.55-4.55,11.904,0,16.454l46.545,46.545   c2.176,2.188,5.143,3.409,8.227,3.409c3.084,0,6.051-1.222,8.227-3.409l83.444-83.444c8.425-8.413,13.056-19.607,13.056-31.511   c0-24.564-19.98-44.544-44.556-44.544c-11.892,0-23.075,4.631-31.5,13.044l-5.399,5.411v-36.899l92.66-92.66   c37.795-37.807,58.612-88.064,58.612-141.51V51.364C512.003,37.645,506.662,24.74,496.969,15.047z M126.583,99.329   c4.026-4.026,9.367-6.237,15.046-6.237c11.741,0,21.283,9.542,21.283,21.271c0,5.69-2.211,11.031-6.237,15.046l-40.308,40.32   l-30.092-30.092L126.583,99.329z M81.457,204.639l-30.092-30.092l18.455-18.455l30.092,30.092L81.457,204.639z M121.184,197.82   l23.273-23.273h36.911l-41.728,41.728L121.184,197.82z M203.628,376.345c-1.606,4.806-3.852,9.402-6.633,13.626l-74.961-74.95   c4.236-2.793,8.832-5.039,13.638-6.644l12.474-4.154l59.648,59.648L203.628,376.345z M256.003,379.184L132.82,256.001   l30.092-30.092l123.183,123.183L256.003,379.184z M337.457,460.639l-30.092-30.092l18.455-18.455l30.092,30.092L337.457,460.639z    M382.583,355.329c4.026-4.026,9.367-6.237,15.046-6.237c11.741,0,21.283,9.542,21.283,21.271c0,5.69-2.211,11.031-6.237,15.046   l-40.308,40.32l-30.092-30.092L382.583,355.329z M337.457,367.548l-23.273,23.273l-18.455-18.455l41.728-41.728V367.548z    M436.937,198.25L302.548,332.639L179.366,209.456L313.754,75.068c15.348-15.348,33.094-27.357,52.305-36.038   c13.894,52.177,54.749,93.021,106.915,106.915C464.294,165.156,452.285,182.902,436.937,198.25z M488.73,73.206   c0,17.501-2.548,34.607-7.436,50.909c-46.033-11.322-82.083-47.372-93.405-93.405c16.314-4.887,33.42-7.436,50.909-7.436h21.83   c7.505,0,14.557,2.921,19.863,8.227c5.236,5.225,8.239,12.474,8.239,19.863V73.206z"/>
</g>
<g>
</g>
<g>
</g>
<g>
</g>
<g>
</g>
<g>
</g>
<g>
</g>
<g>
</g>
<g>
</g>
<g>
</g>
<g>
</g>
<g>
</g>
<g>
</g>
<g>
</g>
<g>
</g>
<g>
</g>
</svg>
