<?xml version="1.0" encoding="iso-8859-1"?>
<!-- Generator: Adobe Illustrator 19.0.0, SVG Export Plug-In . SVG Version: 6.00 Build 0)  -->
<svg xmlns="http://www.w3.org/2000/svg" xmlns:xlink="http://www.w3.org/1999/xlink" version="1.1" id="Capa_1" x="0px" y="0px" viewBox="0 0 512 512" style="enable-background:new 0 0 512 512;" xml:space="preserve">
<path style="fill:#EBEEF7;" d="M465.455,58.182H46.545v244.364c0,6.412,5.225,11.636,11.636,11.636h395.636  c6.412,0,11.636-5.225,11.636-11.636V58.182z"/>
<path style="fill:#CCD9E4;" d="M46.545,58.182v23.273h372.364c12.858,0,23.273,10.415,23.273,23.273v209.455h11.636  c6.423,0,11.636-5.213,11.636-11.636V58.182H46.545z"/>
<path style="fill:#004463;" d="M500.364,34.909H279.273V23.273c0-6.423-5.213-11.636-11.636-11.636  c-6.423,0-11.636,5.213-11.636,11.636v11.636H11.636C5.213,34.909,0,40.122,0,46.545s5.213,11.636,11.636,11.636h11.636v244.364  c0,19.247,15.663,34.909,34.909,34.909h142.86l-79.791,139.636h-4.887c-6.423,0-11.636,5.213-11.636,11.636  s5.213,11.636,11.636,11.636h23.273c6.423,0,11.636-5.213,11.636-11.636c0-3.77-1.908-6.959-4.678-9.088l81.245-142.185h16.524  v116.364c-6.423,0-11.636,5.213-11.636,11.636s5.213,11.636,11.636,11.636h23.273c6.423,0,11.636-5.213,11.636-11.636  s-5.213-11.636-11.636-11.636V337.455h16.524l81.245,142.185c-2.769,2.129-4.678,5.318-4.678,9.088  c0,6.423,5.213,11.636,11.636,11.636h23.273c6.423,0,11.636-5.213,11.636-11.636s-5.213-11.636-11.636-11.636h-4.887  l-79.791-139.636h142.86c19.247,0,34.909-15.663,34.909-34.909V58.182h11.636c6.423,0,11.636-5.213,11.636-11.636  S506.787,34.909,500.364,34.909z M465.455,302.545c0,6.412-5.225,11.636-11.636,11.636H58.182c-6.412,0-11.636-5.225-11.636-11.636  V58.182h418.909V302.545z"/>
<g>
	<path style="fill:#004362;" d="M104.727,267.636c-2.979,0-5.958-1.14-8.227-3.409c-4.55-4.55-4.55-11.904,0-16.454l93.091-93.091   c4.55-4.55,11.904-4.55,16.454,0c4.55,4.55,4.55,11.904,0,16.454l-93.091,93.091C110.685,266.496,107.706,267.636,104.727,267.636z   "/>
	<path style="fill:#004362;" d="M325.818,232.727c-1.617,0-3.247-0.337-4.806-1.047l-128-58.182   c-5.853-2.665-8.436-9.553-5.783-15.407c2.665-5.853,9.588-8.436,15.407-5.783l128,58.182c5.853,2.665,8.436,9.553,5.783,15.407   C334.464,230.191,330.228,232.727,325.818,232.727z"/>
	<path style="fill:#004362;" d="M325.818,232.727c-2.502,0-5.015-0.803-7.133-2.444c-5.073-3.945-5.993-11.264-2.048-16.326   l81.455-104.727c3.945-5.085,11.264-5.981,16.326-2.048c5.073,3.945,5.993,11.264,2.048,16.326l-81.455,104.727   C332.707,231.18,329.274,232.727,325.818,232.727z"/>
</g>
<circle style="fill:#F5B445;" cx="197.818" cy="162.909" r="23.273"/>
<circle style="fill:#4C9BD5;" cx="325.818" cy="221.091" r="23.273"/>
<circle style="fill:#88C663;" cx="407.273" cy="116.364" r="23.273"/>
<circle style="fill:#EF4B4D;" cx="104.727" cy="256" r="23.273"/>
<g>
</g>
<g>
</g>
<g>
</g>
<g>
</g>
<g>
</g>
<g>
</g>
<g>
</g>
<g>
</g>
<g>
</g>
<g>
</g>
<g>
</g>
<g>
</g>
<g>
</g>
<g>
</g>
<g>
</g>
</svg>
