<?xml version="1.0" encoding="iso-8859-1"?>
<!-- Generator: Adobe Illustrator 19.0.0, SVG Export Plug-In . SVG Version: 6.00 Build 0)  -->
<svg xmlns="http://www.w3.org/2000/svg" xmlns:xlink="http://www.w3.org/1999/xlink" version="1.1" id="Capa_1" x="0px" y="0px" viewBox="0 0 512 512" style="enable-background:new 0 0 512 512;" xml:space="preserve">
<path style="fill:#FFC95C;" d="M488.355,267.636H333.265l116.026,102.633C472.401,340.655,486.016,304.919,488.355,267.636z"/>
<path style="fill:#004463;" d="M450.548,398.569c-2.735,0-5.492-0.966-7.703-2.921L294.831,264.716  c-3.619-3.2-4.887-8.32-3.165-12.847c1.711-4.515,6.039-7.505,10.88-7.505h197.818c6.423,0,11.636,5.213,11.636,11.636  c0,51.002-18.723,100.236-52.736,138.647C456.972,397.242,453.772,398.569,450.548,398.569z M333.265,267.636l116.026,102.633  c23.121-29.615,36.724-65.35,39.075-102.633H333.265z"/>
<path style="fill:#70B6E4;" d="M314.182,23.633v174.185h174.185C482.583,104.413,407.587,29.417,314.182,23.633z"/>
<path style="fill:#004463;" d="M500.364,221.091H302.545c-6.423,0-11.636-5.213-11.636-11.636V11.636  C290.909,5.213,296.122,0,302.545,0C418.036,0,512,93.964,512,209.455C512,215.878,506.787,221.091,500.364,221.091z   M314.182,197.818h174.185c-5.783-93.405-80.78-168.401-174.185-174.185V197.818z"/>
<path style="fill:#8EC861;" d="M225.199,299.788c-2.607-2.211-4.108-5.457-4.108-8.879V93.091  c-109.079,0-197.818,88.739-197.818,197.818s88.739,197.818,197.818,197.818c56.46,0,110.394-24.378,148.038-66.897L225.199,299.788  z"/>
<g>
	<path style="fill:#004463;" d="M221.091,512C99.177,512,0,412.823,0,290.909S99.177,69.818,221.091,69.818h11.636   c6.423,0,11.636,5.213,11.636,11.636v204.067l148.864,126.243c2.385,2.025,3.852,4.922,4.084,8.029   c0.221,3.119-0.815,6.202-2.886,8.541l-7.703,8.727C344.669,484.689,284.3,512,221.091,512z M221.091,93.091   c-109.079,0-197.818,88.739-197.818,197.818s88.739,197.818,197.818,197.818c56.46,0,110.394-24.378,148.038-66.897   l-143.93-122.042c-2.607-2.211-4.108-5.457-4.108-8.879V93.091z"/>
	<circle style="fill:#004463;" cx="104.727" cy="290.909" r="23.273"/>
	<circle style="fill:#004463;" cx="174.545" cy="360.727" r="23.273"/>
	<path style="fill:#004463;" d="M104.716,384c-2.42,0-4.876-0.756-6.97-2.327c-5.143-3.852-6.179-11.148-2.327-16.291l69.818-93.091   c3.852-5.132,11.136-6.179,16.291-2.327c5.143,3.852,6.179,11.148,2.327,16.291l-69.818,93.091   C111.756,382.394,108.253,384,104.716,384z"/>
</g>
<g>
</g>
<g>
</g>
<g>
</g>
<g>
</g>
<g>
</g>
<g>
</g>
<g>
</g>
<g>
</g>
<g>
</g>
<g>
</g>
<g>
</g>
<g>
</g>
<g>
</g>
<g>
</g>
<g>
</g>
</svg>
