<?xml version="1.0" encoding="iso-8859-1"?>
<!-- Generator: Adobe Illustrator 19.0.0, SVG Export Plug-In . SVG Version: 6.00 Build 0)  -->
<svg xmlns="http://www.w3.org/2000/svg" xmlns:xlink="http://www.w3.org/1999/xlink" version="1.1" id="Capa_1" x="0px" y="0px" viewBox="0 0 512 512" style="enable-background:new 0 0 512 512;" xml:space="preserve">
<path style="fill:#FFC95C;" d="M186.182,372.34c12.218,0,24.436,3.072,34.909,9.216c17.257-10.124,39.261-11.904,58.182-5.353  V139.636H162.909v236.567C170.345,373.62,178.269,372.34,186.182,372.34z"/>
<path style="fill:#EEC8AD;" d="M228.364,404.713c-4.259,3.409-10.298,3.409-14.557,0c-12.474-9.996-32.105-11.683-46.976-5.015  l47.127,84.841c2.874,5.155,11.369,5.167,14.243-0.012l47.127-84.829C260.457,393.03,240.826,394.717,228.364,404.713z"/>
<path style="fill:#E1B597;" d="M255.395,395.799c0.186,0.07,0.419,0.058,0.605,0.14l-34.909,92.788  c2.863,5.155,4.247,0.989,7.11-4.189l47.139-84.829C269.219,396.963,262.295,395.718,255.395,395.799z"/>
<path style="fill:#EF4C4E;" d="M279.273,34.909c0-6.423-5.225-11.636-11.636-11.636h-93.091c-6.412,0-11.636,5.213-11.636,11.636  v34.909h116.364V34.909z"/>
<path style="fill:#AFC3D7;" d="M151.273,116.364h139.636c6.412,0,11.636-5.213,11.636-11.636c0-6.423-5.225-11.636-11.636-11.636  H151.273c-6.412,0-11.636,5.213-11.636,11.636C139.636,111.151,144.861,116.364,151.273,116.364z"/>
<path style="fill:#004463;" d="M221.091,349.091c-6.423,0-11.636-5.201-11.636-11.636V174.545c0-6.435,5.213-11.636,11.636-11.636  c6.423,0,11.636,5.201,11.636,11.636v162.909C232.727,343.889,227.514,349.091,221.091,349.091z"/>
<path style="fill:#97B3CC;" d="M290.909,116.364H256V93.091h34.909c6.423,0,11.636,5.213,11.636,11.636l0,0  C302.545,111.151,297.332,116.364,290.909,116.364z"/>
<path style="fill:#DB3440;" d="M279.273,69.818H256V23.273h11.636c6.423,0,11.636,5.213,11.636,11.636V69.818z"/>
<path style="fill:#F4B344;" d="M256,139.636h-93.091v11.636h81.455c6.423,0,11.636,5.213,11.636,11.636v209.478  c7.924,0,15.837,1.233,23.273,3.817V139.636H256z"/>
<g>
	<circle style="fill:#004463;" cx="384" cy="500.364" r="11.636"/>
	<path style="fill:#004463;" d="M349.091,488.727h-96.593l48.582-87.447c0.943-1.687,1.466-3.631,1.466-5.644V137.495   c13.51-4.817,23.273-17.617,23.273-32.768s-9.763-27.951-23.273-32.768v-37.05C302.545,15.663,286.883,0,267.636,0h-93.091   c-19.247,0-34.909,15.663-34.909,34.909v37.05c-13.51,4.817-23.273,17.617-23.273,32.768s9.763,27.951,23.273,32.768v258.141   c0,2.013,0.524,3.956,1.466,5.644l52.527,94.569c5.539,9.961,16.07,16.151,27.462,16.151h128c6.423,0,11.636-5.201,11.636-11.636   S355.514,488.727,349.091,488.727z M162.909,34.909c0-6.423,5.225-11.636,11.636-11.636h93.091c6.412,0,11.636,5.213,11.636,11.636   v34.909H162.909V34.909z M139.636,104.727c0-6.423,5.225-11.636,11.636-11.636h139.636c6.412,0,11.636,5.213,11.636,11.636   c0,6.423-5.225,11.636-11.636,11.636H151.273C144.861,116.364,139.636,111.151,139.636,104.727z M162.909,139.636h116.364v236.567   c-18.921-6.551-40.925-4.771-58.182,5.353c-10.473-6.144-22.691-9.216-34.909-9.216c-7.913,0-15.837,1.28-23.273,3.863V139.636z    M166.912,399.825c14.871-6.644,34.432-5.108,46.906,4.887c4.259,3.409,10.298,3.409,14.557,0   c12.474-9.996,32.035-11.543,46.906-4.887l-36.468,65.629h-35.444L166.912,399.825z"/>
</g>
<g>
</g>
<g>
</g>
<g>
</g>
<g>
</g>
<g>
</g>
<g>
</g>
<g>
</g>
<g>
</g>
<g>
</g>
<g>
</g>
<g>
</g>
<g>
</g>
<g>
</g>
<g>
</g>
<g>
</g>
</svg>
