<?xml version="1.0" encoding="iso-8859-1"?>
<!-- Generator: Adobe Illustrator 19.0.0, SVG Export Plug-In . SVG Version: 6.00 Build 0)  -->
<svg xmlns="http://www.w3.org/2000/svg" xmlns:xlink="http://www.w3.org/1999/xlink" version="1.1" id="Capa_1" x="0px" y="0px" viewBox="0 0 512 512" style="enable-background:new 0 0 512 512;" xml:space="preserve">
<path style="fill:#EBEEF7;" d="M488.727,325.818H23.273V384c0,6.412,5.225,11.636,11.636,11.636h442.182  c6.412,0,11.636-5.225,11.636-11.636V325.818z"/>
<path style="fill:#CCD9E4;" d="M477.091,325.818v46.545c0,6.423-5.213,11.636-11.636,11.636H23.273  c0,6.423,5.213,11.636,11.636,11.636h442.182c6.423,0,11.636-5.213,11.636-11.636v-58.182H477.091z"/>
<path style="fill:#70B6E4;" d="M488.727,58.182c0-6.412-5.225-11.636-11.636-11.636H34.909c-6.412,0-11.636,5.225-11.636,11.636  v244.364h465.455V58.182z"/>
<path style="fill:#EBEEF7;" d="M221.091,418.909v34.909c0,4.084-0.71,7.994-1.99,11.636h73.809  c-1.292-3.642-2.001-7.552-2.001-11.636v-34.909H221.091z"/>
<path style="fill:#004463;" d="M477.091,23.273H34.909C15.663,23.273,0,38.935,0,58.182V384c0,19.247,15.663,34.909,34.909,34.909  h162.909v34.909c0,6.412-5.225,11.636-11.636,11.636h-11.636c-6.423,0-11.636,5.213-11.636,11.636s5.213,11.636,11.636,11.636  h11.636h139.636h11.636c6.423,0,11.636-5.213,11.636-11.636s-5.213-11.636-11.636-11.636h-11.636  c-6.412,0-11.636-5.225-11.636-11.636v-34.909h162.909C496.337,418.909,512,403.247,512,384V58.182  C512,38.935,496.337,23.273,477.091,23.273z M23.273,58.182c0-6.412,5.225-11.636,11.636-11.636h442.182  c6.412,0,11.636,5.225,11.636,11.636v244.364H23.273V58.182z M292.899,465.455h-73.809c1.292-3.642,2.001-7.552,2.001-11.636  v-34.909h69.818v34.909C290.909,457.903,291.619,461.812,292.899,465.455z M488.727,384c0,6.412-5.225,11.636-11.636,11.636H302.545  h-93.091H34.909c-6.412,0-11.636-5.225-11.636-11.636v-58.182h465.455V384z"/>
<path style="fill:#CCD9E4;" d="M290.909,453.818v-23.273v-11.636h-13.626h-56.192v11.636h44.556c6.423,0,11.636,5.213,11.636,11.636  v11.636c0,4.084,0.71,8.006,1.99,11.636h13.626C291.619,461.824,290.909,457.903,290.909,453.818z"/>
<circle style="fill:#004463;" cx="256" cy="360.727" r="11.636"/>
<g>
	<path style="fill:#ACD6F2;" d="M93.091,256c-3.212,0-6.4-1.315-8.704-3.898c-4.271-4.806-3.84-12.16,0.966-16.431L190.08,142.58   c4.817-4.259,12.16-3.828,16.431,0.966c4.271,4.806,3.84,12.16-0.966,16.431l-104.727,93.091C98.607,255.034,95.849,256,93.091,256   z"/>
	<path style="fill:#ACD6F2;" d="M325.807,232.727c-1.885,0-3.793-0.454-5.562-1.42l-128-69.818   c-5.644-3.084-7.727-10.147-4.643-15.791c3.095-5.632,10.135-7.703,15.791-4.643l128,69.818c5.644,3.084,7.727,10.147,4.643,15.791   C333.917,230.54,329.926,232.727,325.807,232.727z"/>
	<path style="fill:#ACD6F2;" d="M325.818,232.727c-2.548,0-5.12-0.838-7.261-2.548c-5.027-4.015-5.83-11.334-1.815-16.349   l93.091-116.364c4.015-5.027,11.345-5.818,16.349-1.815c5.027,4.015,5.83,11.334,1.815,16.349l-93.091,116.364   C332.602,231.238,329.216,232.727,325.818,232.727z"/>
</g>
<g>
	<circle style="fill:#FFFFFF;" cx="197.818" cy="151.273" r="23.273"/>
	<circle style="fill:#FFFFFF;" cx="325.818" cy="221.091" r="23.273"/>
</g>
<path style="fill:#ACD6F2;" d="M465.455,116.364h-46.545c-6.423,0-11.636-5.213-11.636-11.636c0-6.423,5.213-11.636,11.636-11.636  h46.545c6.423,0,11.636,5.213,11.636,11.636C477.091,111.151,471.878,116.364,465.455,116.364z"/>
<circle style="fill:#FFFFFF;" cx="418.909" cy="104.727" r="23.273"/>
<path style="fill:#ACD6F2;" d="M58.193,279.273c-3.759,0-7.447-1.815-9.693-5.178c-3.561-5.341-2.118-12.579,3.223-16.14  l34.909-23.273c5.341-3.584,12.567-2.129,16.14,3.223c3.561,5.341,2.118,12.579-3.223,16.14L64.64,277.318  C62.65,278.644,60.404,279.273,58.193,279.273z"/>
<circle style="fill:#FFFFFF;" cx="93.091" cy="244.364" r="23.273"/>
<g>
</g>
<g>
</g>
<g>
</g>
<g>
</g>
<g>
</g>
<g>
</g>
<g>
</g>
<g>
</g>
<g>
</g>
<g>
</g>
<g>
</g>
<g>
</g>
<g>
</g>
<g>
</g>
<g>
</g>
</svg>
