<?xml version="1.0" encoding="iso-8859-1"?>
<!-- Generator: Adobe Illustrator 19.0.0, SVG Export Plug-In . SVG Version: 6.00 Build 0)  -->
<svg xmlns="http://www.w3.org/2000/svg" xmlns:xlink="http://www.w3.org/1999/xlink" version="1.1" id="Capa_1" x="0px" y="0px" viewBox="0 0 512 512" style="enable-background:new 0 0 512 512;" xml:space="preserve">
<path style="fill:#EEC8AD;" d="M190.639,301.661c-4.364,1.804-9.356,0.803-12.684-2.525l-46.127-46.127  c-5.574-5.574-12.986-8.646-20.864-8.646c-16.268,0-29.51,13.242-29.51,29.51v2.141c0,6.889,2.42,13.603,6.831,18.897  l114.618,123.997H400.57c19.631-34.897,29.975-74.298,29.975-114.397v-54.737c0-19.293-12.137-36.806-30.196-43.578l-26.589-9.972  c-33.687-12.625-71.145-13.324-105.228-1.943l-8.844,2.944c-3.549,1.175-7.459,0.593-10.484-1.594  c-3.037-2.188-4.841-5.713-4.841-9.449V69.818c0-12.835-10.438-23.273-23.273-23.273s-23.273,10.438-23.273,23.273v221.091  C197.818,295.61,194.979,299.857,190.639,301.661z"/>
<path style="fill:#E1B597;" d="M232.727,69.818v139.66c0,3.735,1.792,7.261,4.829,9.449c3.049,2.188,6.935,2.758,10.484,1.594  l2.793-0.931c-0.535-0.268-1.152-0.314-1.641-0.663c-3.037-2.199-4.829-5.713-4.829-9.449V69.818  c0-12.835-10.438-23.273-23.273-23.273c-2.025,0-3.945,0.221-5.818,0.71C225.28,49.862,232.727,59.008,232.727,69.818z"/>
<rect x="186.182" y="442.182" style="fill:#EBEEF7;" width="221.091" height="46.545"/>
<path style="fill:#E1B597;" d="M405.702,208.209L405.702,208.209c1.012,3.27,1.571,6.703,1.571,10.228v62.801  c0,27.415-4.829,54.516-14.161,80.058c-7.622,20.864-28.009,34.339-50.211,34.339H222.057c-12.276,0-24.087-4.759-32.943-13.265  L81.722,279.087c0.617,5.783,2.828,11.322,6.575,15.814l114.607,124.009h41.46h156.218c19.619-34.897,29.964-74.298,29.964-114.397  v-60.451C430.545,228.096,420.643,213.807,405.702,208.209z"/>
<path style="fill:#CCD9E4;" d="M384,442.182v23.273c0,6.423-5.213,11.636-11.636,11.636H186.182v11.636h221.091v-46.545H384z"/>
<circle style="fill:#004362;" cx="384" cy="465.455" r="11.636"/>
<circle style="fill:#FFC95C;" cx="337.455" cy="46.545" r="23.273"/>
<path style="fill:#004463;" d="M337.455,93.091c-25.67,0-46.545-20.876-46.545-46.545S311.785,0,337.455,0  C363.124,0,384,20.876,384,46.545S363.113,93.091,337.455,93.091z M337.455,23.273c-12.835,0-23.273,10.438-23.273,23.273  s10.438,23.273,23.273,23.273c12.835,0,23.273-10.438,23.273-23.273S350.289,23.273,337.455,23.273z"/>
<circle style="fill:#FFC95C;" cx="395.636" cy="93.091" r="34.909"/>
<path style="fill:#004463;" d="M436.759,134.214c-10.543,10.531-25.088,17.059-41.123,17.059c-32.081,0-58.182-26.1-58.182-58.182  l0,0c0-32.081,26.112-58.182,58.182-58.182c32.081,0,58.182,26.1,58.182,58.182C453.818,109.126,447.29,123.683,436.759,134.214z   M360.727,93.091c0,19.247,15.663,34.909,34.909,34.909c19.247-0.012,34.897-15.674,34.909-34.909  c0-19.247-15.663-34.909-34.909-34.909C376.39,58.182,360.727,73.844,360.727,93.091z"/>
<path style="fill:#FDE2D1;" d="M232.727,93.091h-23.273V69.818c0-6.423,5.213-11.636,11.636-11.636l0,0  c6.423,0,11.636,5.213,11.636,11.636V93.091z"/>
<path style="fill:#004463;" d="M453.818,249.775c0-28.94-18.199-55.215-45.3-65.373l-26.589-9.972  c-36.538-13.684-76.963-15.174-114.292-4.259V69.818c0-25.67-20.876-46.545-46.545-46.545s-46.545,20.876-46.545,46.545v193.001  l-26.263-26.263c-9.972-9.972-23.226-15.465-37.318-15.465c-29.103,0-52.783,23.68-52.783,52.783v2.141  c0,12.323,4.34,24.32,12.625,34.234l100.934,109.231c-5.027,1.28-8.832,5.632-8.832,11.066v69.818  c0,6.423,5.213,11.636,11.636,11.636h244.364c6.423,0,11.636-5.213,11.636-11.636v-69.818c0-3.84-1.99-7.087-4.864-9.204  c18.455-36.096,28.137-76.137,28.137-116.829V249.775z M407.273,488.727H186.182v-46.545h11.636h209.455V488.727z M430.545,304.512  c0,40.099-10.345,79.511-29.964,114.397H202.903L88.285,294.9c-4.41-5.283-6.831-11.997-6.831-18.886v-2.141  c0-16.268,13.242-29.51,29.51-29.51c7.878,0,15.29,3.072,20.864,8.646l42.717,42.717v6.819c0,6.423,5.213,11.636,11.636,11.636  s11.636-5.213,11.636-11.636V69.818c0-12.835,10.438-23.273,23.273-23.273s23.273,10.438,23.273,23.273v139.636  c0,6.423,5.213,11.636,11.636,11.636c6.423,0,11.636-5.213,11.636-11.636v-14.883l0.884-0.291  c34.095-11.369,71.552-10.682,105.228,1.943l26.589,9.972c18.071,6.772,30.208,24.285,30.208,43.578V304.512z"/>
<g>
</g>
<g>
</g>
<g>
</g>
<g>
</g>
<g>
</g>
<g>
</g>
<g>
</g>
<g>
</g>
<g>
</g>
<g>
</g>
<g>
</g>
<g>
</g>
<g>
</g>
<g>
</g>
<g>
</g>
</svg>
