<?xml version="1.0" encoding="iso-8859-1"?>
<!-- Generator: Adobe Illustrator 19.0.0, SVG Export Plug-In . SVG Version: 6.00 Build 0)  -->
<svg xmlns="http://www.w3.org/2000/svg" xmlns:xlink="http://www.w3.org/1999/xlink" version="1.1" id="Capa_1" x="0px" y="0px" viewBox="0 0 512 512" style="enable-background:new 0 0 512 512;" xml:space="preserve">
<path style="fill:#EBEEF7;" d="M488.727,104.727H23.273v314.182c0,6.412,5.225,11.636,11.636,11.636h442.182  c6.412,0,11.636-5.225,11.636-11.636V104.727z"/>
<path style="fill:#AFC3D7;" d="M488.727,46.545c0-6.412-5.225-11.636-11.636-11.636H34.909c-6.412,0-11.636,5.225-11.636,11.636  v34.909h465.455V46.545z"/>
<g>
	<path style="fill:#004463;" d="M477.091,11.636H34.909C15.663,11.636,0,27.299,0,46.545v372.364   c0,19.247,15.663,34.909,34.909,34.909h442.182c19.247,0,34.909-15.663,34.909-34.909V46.545   C512,27.299,496.337,11.636,477.091,11.636z M23.273,46.545c0-6.412,5.225-11.636,11.636-11.636h442.182   c6.412,0,11.636,5.225,11.636,11.636v34.909H23.273V46.545z M488.727,418.909c0,6.412-5.225,11.636-11.636,11.636H34.909   c-6.412,0-11.636-5.225-11.636-11.636V104.727h465.455V418.909z"/>
	<circle style="fill:#004463;" cx="58.182" cy="58.182" r="11.636"/>
	<circle style="fill:#004463;" cx="104.727" cy="58.182" r="11.636"/>
	<circle style="fill:#004463;" cx="151.273" cy="58.182" r="11.636"/>
</g>
<circle style="fill:#FFFFFF;" cx="256" cy="360.727" r="116.364"/>
<path style="fill:#C3D6E4;" d="M256,267.636v93.091l65.827,65.827c16.849-16.849,27.264-40.122,27.264-65.827  C349.091,309.318,307.409,267.636,256,267.636z"/>
<path style="fill:#EF4D4E;" d="M314.182,430.545c-2.979,0-5.958-1.14-8.227-3.409L224.5,345.681c-4.55-4.55-4.55-11.904,0-16.454  c4.55-4.55,11.904-4.55,16.454,0l81.455,81.455c4.55,4.55,4.55,11.904,0,16.454C320.14,429.405,317.161,430.545,314.182,430.545z"/>
<g>
	<circle style="fill:#004463;" cx="256" cy="360.727" r="23.273"/>
	<circle style="fill:#004463;" cx="162.909" cy="360.727" r="11.636"/>
	<circle style="fill:#004463;" cx="256" cy="453.818" r="11.636"/>
	<circle style="fill:#004463;" cx="256" cy="267.636" r="11.636"/>
	<circle style="fill:#004463;" cx="349.091" cy="360.727" r="11.636"/>
	<path style="fill:#004463;" d="M372.364,260.817l3.409,3.409c2.269,2.269,5.248,3.409,8.227,3.409s5.958-1.14,8.227-3.409   c4.55-4.55,4.55-11.904,0-16.454L368.954,224.5c-4.55-4.55-11.904-4.55-16.454,0c-4.55,4.55-4.55,11.904,0,16.454l3.409,3.409   l-9.833,9.833c-21.551-18.257-48.675-30.045-78.441-32.524v-23.855h11.636c6.423,0,11.636-5.213,11.636-11.636   s-5.213-11.636-11.636-11.636h-46.545c-6.423,0-11.636,5.213-11.636,11.636s5.213,11.636,11.636,11.636h11.636v23.866   c-29.766,2.479-56.879,14.266-78.441,32.524l-9.833-9.844l3.409-3.409c4.55-4.55,4.55-11.904,0-16.454   c-4.55-4.55-11.904-4.55-16.454,0l-23.273,23.273c-4.55,4.55-4.55,11.904,0,16.454c2.269,2.269,5.248,3.409,8.227,3.409   c2.979,0,5.958-1.14,8.227-3.409l3.409-3.409l9.833,9.833c-20.608,24.343-33.105,55.761-33.105,90.077   c0,76.998,62.639,139.636,139.636,139.636s139.636-62.639,139.636-139.636c0-34.316-12.497-65.734-33.105-90.077L372.364,260.817z    M256,477.091c-64.163,0-116.364-52.201-116.364-116.364S191.837,244.364,256,244.364s116.364,52.201,116.364,116.364   S320.163,477.091,256,477.091z"/>
</g>
<path style="fill:#C3D6E4;" d="M376.809,430.545h28.532c6.097-15.686,9.577-32.687,9.577-50.537  c0-43.473-19.875-82.292-51.014-107.904c19.817,24.111,31.732,54.97,31.732,88.623C395.636,386.188,388.713,409.996,376.809,430.545  z"/>
<g>
</g>
<g>
</g>
<g>
</g>
<g>
</g>
<g>
</g>
<g>
</g>
<g>
</g>
<g>
</g>
<g>
</g>
<g>
</g>
<g>
</g>
<g>
</g>
<g>
</g>
<g>
</g>
<g>
</g>
</svg>
