<?xml version="1.0" encoding="iso-8859-1"?>
<!-- Generator: Adobe Illustrator 19.0.0, SVG Export Plug-In . SVG Version: 6.00 Build 0)  -->
<svg xmlns="http://www.w3.org/2000/svg" xmlns:xlink="http://www.w3.org/1999/xlink" version="1.1" id="Capa_1" x="0px" y="0px" viewBox="0 0 512 512" style="enable-background:new 0 0 512 512;" xml:space="preserve">
<path style="fill:#EBEEF7;" d="M488.727,93.091H23.273v314.182c0,6.412,5.225,11.636,11.636,11.636h442.182  c6.412,0,11.636-5.225,11.636-11.636V93.091z"/>
<g>
	<path style="fill:#CCD9E4;" d="M212.852,380.602c-9.379-11.892-15.034-26.857-15.034-43.148c0-38.505,31.313-69.818,69.818-69.818   c16.291,0,31.255,5.655,43.148,15.034C297.984,266.461,278.214,256,256,256c-38.505,0-69.818,31.313-69.818,69.818   C186.182,348.032,196.643,367.802,212.852,380.602z"/>
	<path style="fill:#CCD9E4;" d="M296.204,171.031c1.501,5.981,5.713,10.659,11.322,12.695c0.291,0.105,0.57,0.244,0.861,0.361   c-0.163-0.477-0.419-0.908-0.535-1.408c-2.56-10.24-8.844-18.665-17.129-24.227C293.178,162.223,295.063,166.447,296.204,171.031z"/>
	<path style="fill:#CCD9E4;" d="M393.891,244.794c-3.177,5.306-3.503,11.613-0.966,17.036c1.908,4.049,3.631,8.215,5.178,12.463   c1.885,5.201,6.086,9.1,11.287,10.81c-1.466-3.956-3.06-7.866-4.841-11.636c-2.537-5.434-2.211-11.741,0.966-17.036   c9.798-16.326,7.238-37.143-6.237-50.618c-1.99-2.001-4.177-3.677-6.458-5.19C401.536,213.737,402.234,230.877,393.891,244.794z"/>
	<path style="fill:#CCD9E4;" d="M435.025,302.767c4.48,6.656,7.156,14.569,7.156,23.052c0,19.06-12.905,35.596-31.395,40.204   c-5.981,1.489-10.647,5.713-12.684,11.322c-1.548,4.259-3.27,8.425-5.178,12.486c-2.537,5.411-2.211,11.718,0.861,16.838   c0.116,0.198,0.186,0.407,0.303,0.605h-261.9c0.384,3.817-0.349,7.727-2.444,11.206c-0.081,0.14-0.128,0.291-0.209,0.431h276.177   c-0.116-0.198-0.186-0.407-0.303-0.605c-3.084-5.12-3.398-11.427-0.861-16.838c1.908-4.073,3.631-8.239,5.178-12.486   c2.036-5.609,6.703-9.821,12.684-11.322c18.502-4.608,31.407-21.143,31.407-40.204   C453.818,323.153,446.545,310.272,435.025,302.767z"/>
</g>
<path style="fill:#AFC3D7;" d="M488.727,34.909c0-6.412-5.225-11.636-11.636-11.636H34.909c-6.412,0-11.636,5.225-11.636,11.636  v34.909h465.455V34.909z"/>
<g>
	<path style="fill:#004463;" d="M477.091,0H34.909C15.663,0,0,15.663,0,34.909v372.364c0,19.247,15.663,34.909,34.909,34.909   h442.182c19.247,0,34.909-15.663,34.909-34.909V34.909C512,15.663,496.337,0,477.091,0z M23.273,34.909   c0-6.412,5.225-11.636,11.636-11.636h442.182c6.412,0,11.636,5.225,11.636,11.636v34.909H23.273V34.909z M488.727,407.273   c0,6.412-5.225,11.636-11.636,11.636H34.909c-6.412,0-11.636-5.225-11.636-11.636V93.091h465.455V407.273z"/>
	<circle style="fill:#004463;" cx="58.182" cy="46.545" r="11.636"/>
	<circle style="fill:#004463;" cx="104.727" cy="46.545" r="11.636"/>
	<circle style="fill:#004463;" cx="151.273" cy="46.545" r="11.636"/>
</g>
<path style="fill:#70B6E4;" d="M418.909,325.818c0-8.355-5.655-15.604-13.766-17.629c-13.51-3.386-24.25-13.068-28.928-25.961  c-1.303-3.596-2.758-7.098-4.364-10.531c-5.841-12.463-5.097-26.938,1.967-38.714c4.398-7.319,3.27-16.454-2.641-22.353  c-5.911-5.911-15.034-7.028-22.191-2.735c-11.927,7.168-26.426,7.913-38.877,2.071c-3.433-1.617-6.959-3.072-10.543-4.364  c-12.893-4.666-22.575-15.418-25.914-28.742c-2.048-8.297-9.297-13.952-17.652-13.952c-8.355,0-15.604,5.655-17.629,13.766  c-3.386,13.51-13.068,24.25-25.961,28.928c-3.584,1.303-7.098,2.758-10.531,4.364c-12.463,5.841-26.938,5.097-38.714-1.967  c-7.319-4.399-16.454-3.27-22.353,2.641c-5.911,5.911-7.028,15.034-2.735,22.191c7.168,11.939,7.913,26.415,2.071,38.877  c-1.606,3.433-3.072,6.947-4.364,10.531c-4.678,12.893-15.418,22.586-28.742,25.926c-8.297,2.048-13.952,9.297-13.952,17.652  c0,8.355,5.655,15.604,13.766,17.629c13.51,3.386,24.25,13.068,28.928,25.961c1.303,3.596,2.758,7.098,4.364,10.531  c5.841,12.474,5.097,26.938-1.967,38.714c-4.399,7.319-3.27,16.454,2.641,22.353c5.9,5.911,15.023,7.04,22.191,2.735  c6.609-3.968,14.01-5.969,21.411-5.969c5.958,0,11.904,1.292,17.466,3.898c3.433,1.617,6.959,3.072,10.543,4.364  c12.893,4.666,22.575,15.418,25.914,28.742c2.048,8.297,9.297,13.952,17.652,13.952c8.355,0,15.604-5.655,17.629-13.766  c3.386-13.51,13.068-24.25,25.961-28.928c3.584-1.303,7.098-2.758,10.531-4.364c12.474-5.841,26.95-5.097,38.714,1.967  c7.319,4.387,16.454,3.281,22.353-2.641c5.911-5.911,7.04-15.034,2.735-22.191c-7.168-11.939-7.913-26.415-2.071-38.877  c1.606-3.433,3.072-6.947,4.364-10.531c4.678-12.893,15.418-22.586,28.742-25.926C413.254,341.423,418.909,334.173,418.909,325.818z   M256,418.909c-51.328,0-93.091-41.763-93.091-93.091s41.763-93.091,93.091-93.091s93.091,41.763,93.091,93.091  S307.328,418.909,256,418.909z"/>
<g>
	<path style="fill:#004463;" d="M256,512c-19.06,0-35.596-12.905-40.204-31.395c-1.489-5.981-5.713-10.659-11.322-12.684   c-4.247-1.536-8.413-3.27-12.474-5.167c-5.434-2.548-11.741-2.211-16.849,0.861c-16.524,9.891-37.329,7.343-50.804-6.132   c-13.475-13.463-16.035-34.281-6.225-50.63c3.177-5.295,3.491-11.601,0.954-17.036c-1.908-4.049-3.631-8.215-5.167-12.463   c-2.025-5.609-6.703-9.821-12.509-11.276c-18.676-4.666-31.581-21.202-31.581-40.262c0-19.06,12.905-35.596,31.395-40.204   c5.981-1.489,10.659-5.713,12.684-11.322c1.536-4.247,3.258-8.413,5.167-12.474c2.537-5.434,2.223-11.729-0.861-16.849   c-9.903-16.512-7.343-37.329,6.132-50.804s34.304-16.023,50.63-6.225c5.306,3.177,11.601,3.479,17.036,0.954   c4.049-1.897,8.215-3.631,12.463-5.167c5.609-2.036,9.833-6.714,11.276-12.509c4.666-18.676,21.201-31.581,40.262-31.581   s35.596,12.905,40.204,31.395c1.489,5.981,5.713,10.659,11.322,12.684c4.247,1.536,8.413,3.27,12.474,5.167   c5.434,2.537,11.729,2.211,16.849-0.861c16.512-9.903,37.329-7.331,50.804,6.132c13.475,13.463,16.035,34.281,6.237,50.63   c-3.177,5.295-3.491,11.601-0.954,17.036c1.908,4.049,3.631,8.215,5.167,12.463c2.025,5.609,6.703,9.821,12.509,11.276   c18.665,4.666,31.569,21.201,31.569,40.262c0,19.06-12.905,35.596-31.395,40.204c-5.981,1.489-10.659,5.713-12.684,11.322   c-1.536,4.247-3.258,8.413-5.167,12.474c-2.537,5.434-2.223,11.729,0.861,16.849c9.903,16.512,7.343,37.329-6.132,50.804   c-13.475,13.463-34.281,16.035-50.63,6.225c-5.306-3.177-11.59-3.479-17.036-0.954c-4.049,1.897-8.215,3.631-12.463,5.167   c-5.609,2.036-9.833,6.714-11.276,12.509C291.596,499.095,275.06,512,256,512z M184.413,437.772c5.958,0,11.904,1.292,17.466,3.898   c3.433,1.617,6.959,3.072,10.543,4.364c12.893,4.666,22.575,15.418,25.914,28.742c2.06,8.297,9.309,13.952,17.664,13.952   c8.355,0,15.604-5.655,17.629-13.766c3.386-13.51,13.068-24.25,25.961-28.928c3.584-1.303,7.098-2.758,10.531-4.364   c12.474-5.841,26.95-5.097,38.714,1.967c7.319,4.387,16.454,3.281,22.353-2.641c5.911-5.911,7.04-15.034,2.735-22.191   c-7.168-11.939-7.913-26.415-2.071-38.877c1.606-3.433,3.072-6.947,4.364-10.531c4.678-12.893,15.418-22.586,28.742-25.926   c8.297-2.048,13.952-9.297,13.952-17.652c0-8.355-5.655-15.604-13.766-17.629c-13.51-3.386-24.25-13.068-28.928-25.961   c-1.303-3.596-2.758-7.098-4.364-10.531c-5.841-12.463-5.097-26.938,1.967-38.714c4.398-7.319,3.27-16.454-2.641-22.353   c-5.911-5.911-15.034-7.028-22.191-2.735c-11.927,7.168-26.426,7.913-38.877,2.071c-3.433-1.617-6.959-3.072-10.543-4.364   c-12.893-4.666-22.575-15.418-25.914-28.742c-2.048-8.297-9.297-13.952-17.652-13.952c-8.355,0-15.604,5.655-17.629,13.766   c-3.386,13.51-13.068,24.25-25.961,28.928c-3.584,1.303-7.098,2.758-10.531,4.364c-12.463,5.841-26.938,5.097-38.714-1.967   c-7.319-4.399-16.454-3.27-22.353,2.641c-5.911,5.911-7.028,15.034-2.735,22.191c7.168,11.939,7.913,26.415,2.071,38.877   c-1.606,3.433-3.072,6.947-4.364,10.531c-4.678,12.893-15.418,22.586-28.742,25.926c-8.297,2.048-13.952,9.297-13.952,17.652   c0,8.355,5.655,15.604,13.766,17.629c13.51,3.386,24.25,13.068,28.928,25.961c1.303,3.596,2.758,7.098,4.364,10.531   c5.841,12.474,5.097,26.938-1.967,38.714c-4.399,7.319-3.27,16.454,2.641,22.353c5.9,5.911,15.023,7.04,22.191,2.735   C169.612,439.773,177.012,437.772,184.413,437.772z M256,418.909c-51.328,0-93.091-41.763-93.091-93.091   s41.763-93.091,93.091-93.091s93.091,41.763,93.091,93.091S307.328,418.909,256,418.909z M256,256   c-38.505,0-69.818,31.313-69.818,69.818s31.313,69.818,69.818,69.818s69.818-31.313,69.818-69.818S294.505,256,256,256z"/>
	<circle style="fill:#004463;" cx="256" cy="325.818" r="23.273"/>
</g>
<path style="fill:#C3D6E4;" d="M197.818,337.455c0-38.563,31.255-69.818,69.818-69.818c16.256,0,31.185,5.609,43.055,14.929  C297.914,266.403,278.202,256,256,256c-38.563,0-69.818,31.255-69.818,69.818c0,22.202,10.403,41.914,26.566,54.691  C203.427,368.64,197.818,353.711,197.818,337.455z"/>
<g>
</g>
<g>
</g>
<g>
</g>
<g>
</g>
<g>
</g>
<g>
</g>
<g>
</g>
<g>
</g>
<g>
</g>
<g>
</g>
<g>
</g>
<g>
</g>
<g>
</g>
<g>
</g>
<g>
</g>
</svg>
