<?xml version="1.0" encoding="iso-8859-1"?>
<!-- Generator: Adobe Illustrator 19.0.0, SVG Export Plug-In . SVG Version: 6.00 Build 0)  -->
<svg xmlns="http://www.w3.org/2000/svg" xmlns:xlink="http://www.w3.org/1999/xlink" version="1.1" id="Capa_1" x="0px" y="0px" viewBox="0 0 512 512" style="enable-background:new 0 0 512 512;" xml:space="preserve">
<path style="fill:#EBEEF7;" d="M488.727,104.727H23.273v314.182c0,6.412,5.225,11.636,11.636,11.636h442.182  c6.412,0,11.636-5.225,11.636-11.636V104.727z"/>
<path style="fill:#AFC3D7;" d="M488.727,46.545c0-6.412-5.225-11.636-11.636-11.636H34.909c-6.412,0-11.636,5.225-11.636,11.636  v34.909h465.455V46.545z"/>
<g>
	<path style="fill:#004463;" d="M477.091,11.636H34.909C15.663,11.636,0,27.299,0,46.545v372.364   c0,19.247,15.663,34.909,34.909,34.909h442.182c19.247,0,34.909-15.663,34.909-34.909V46.545   C512,27.299,496.337,11.636,477.091,11.636z M23.273,46.545c0-6.412,5.225-11.636,11.636-11.636h442.182   c6.412,0,11.636,5.225,11.636,11.636v34.909H23.273V46.545z M488.727,418.909c0,6.412-5.225,11.636-11.636,11.636H34.909   c-6.412,0-11.636-5.225-11.636-11.636V104.727h465.455V418.909z"/>
	<circle style="fill:#004463;" cx="58.182" cy="58.182" r="11.636"/>
	<circle style="fill:#004463;" cx="104.727" cy="58.182" r="11.636"/>
	<circle style="fill:#004463;" cx="151.273" cy="58.182" r="11.636"/>
</g>
<path style="fill:#CCD9E4;" d="M308.271,174.639c21.551,26.135,32.931,60.963,28.079,98.444  c-7.331,56.646-53.167,102.481-109.812,109.812c-37.469,4.852-72.297-6.528-98.444-28.079  c27.439,33.28,71.354,52.468,119.273,45.056c54.063-8.367,97.583-51.898,105.949-105.949  C360.739,245.993,341.551,202.077,308.271,174.639z"/>
<path style="fill:#EF4C4E;" d="M349.091,365.545l-30.092,30.092l76.637,76.637c6.121,6.121,17.152,6.121,23.273,0l6.819-6.819  c3.06-3.06,4.817-7.308,4.817-11.636c0-4.329-1.757-8.576-4.817-11.636L349.091,365.545z"/>
<path style="fill:#DB3440;" d="M425.728,442.182l-11.555-11.555c3.107,3.119,4.817,7.238,4.817,11.636s-1.711,8.518-4.817,11.636  l-6.819,6.819c-6.225,6.202-17.047,6.202-23.273,0l11.555,11.555c6.4,6.4,16.873,6.4,23.273,0l6.819-6.819  c3.107-3.119,4.817-7.238,4.817-11.636S428.835,445.3,425.728,442.182z"/>
<circle style="fill:#EBEEF7;" cx="209.455" cy="256" r="104.727"/>
<path style="fill:#004463;" d="M442.182,425.728l-84.864-84.864c-4.55-4.55-11.904-4.55-16.454,0l-15.046,15.046l-18.06-18.06  c18.513-22.214,29.696-50.746,29.696-81.85c0-70.575-57.425-128-128-128s-128,57.425-128,128s57.425,128,128,128  c31.104,0,59.636-11.183,81.85-29.696l18.06,18.06l-15.046,15.046c-4.55,4.55-4.55,11.904,0,16.454l84.864,84.864  c7.505,7.505,17.478,11.636,28.09,11.636s20.596-4.131,28.09-11.636l6.819-6.819c7.505-7.505,11.636-17.478,11.636-28.09  S449.687,433.222,442.182,425.728z M104.727,256c0-57.74,46.988-104.727,104.727-104.727S314.182,198.26,314.182,256  s-46.988,104.727-104.727,104.727S104.727,313.74,104.727,256z M425.728,465.455l-6.819,6.819c-6.121,6.121-17.152,6.121-23.273,0  l-76.637-76.637l30.092-30.092l76.637,76.637c3.06,3.06,4.817,7.308,4.817,11.636C430.545,458.147,428.788,462.394,425.728,465.455z  "/>
<circle style="fill:#ACD6F2;" cx="209.455" cy="256" r="69.818"/>
<path style="fill:#004463;" d="M209.455,349.091c-51.328,0-93.091-41.763-93.091-93.091s41.763-93.091,93.091-93.091  s93.091,41.763,93.091,93.091S260.783,349.091,209.455,349.091z M209.455,186.182c-38.505,0-69.818,31.313-69.818,69.818  s31.313,69.818,69.818,69.818s69.818-31.313,69.818-69.818S247.959,186.182,209.455,186.182z"/>
<path style="fill:#D3EEFB;" d="M162.909,267.636c-6.423,0-11.636-5.213-11.636-11.636c0-32.081,26.1-58.182,58.182-58.182  c6.423,0,11.636,5.213,11.636,11.636c0,6.423-5.213,11.636-11.636,11.636c-19.247,0-34.909,15.663-34.909,34.909  C174.545,262.423,169.332,267.636,162.909,267.636z"/>
<g>
</g>
<g>
</g>
<g>
</g>
<g>
</g>
<g>
</g>
<g>
</g>
<g>
</g>
<g>
</g>
<g>
</g>
<g>
</g>
<g>
</g>
<g>
</g>
<g>
</g>
<g>
</g>
<g>
</g>
</svg>
