<?xml version="1.0" encoding="iso-8859-1"?>
<!-- Generator: Adobe Illustrator 19.0.0, SVG Export Plug-In . SVG Version: 6.00 Build 0)  -->
<svg xmlns="http://www.w3.org/2000/svg" xmlns:xlink="http://www.w3.org/1999/xlink" version="1.1" id="Capa_1" x="0px" y="0px" viewBox="0 0 512 512" style="enable-background:new 0 0 512 512;" xml:space="preserve">
<path style="fill:#EBEEF7;" d="M488.727,104.727H23.273v314.182c0,6.412,5.225,11.636,11.636,11.636h442.182  c6.412,0,11.636-5.225,11.636-11.636V104.727z"/>
<g>
	<path style="fill:#C3D6E4;" d="M320.175,207.325c0.989,3.793,3.98,6.784,7.773,7.773l5.353,1.396   c-2.967-6.679-8.087-12.032-14.732-15.29L320.175,207.325z"/>
	<path style="fill:#C3D6E4;" d="M364.73,295.005c-1.478-2.513-1.478-5.632,0-8.145l3.316-5.667   c4.992-8.541,5.679-18.676,1.897-27.823c-2.316-5.609-6.225-10.124-11.008-13.487c2.886,9.181,2.013,18.991-2.909,27.415   l-3.782,6.47c-1.99,3.398-1.99,7.61,0,10.996l3.782,6.481c5.446,9.309,6.202,20.364,2.071,30.324s-12.474,17.245-22.912,19.968   l-7.261,1.897c-3.793,0.989-6.784,3.98-7.773,7.773l-1.897,7.249c-0.873,3.328-2.351,6.342-4.096,9.181v14.778v48.128h23.273   V353.14c0.989-2.211,2.735-4.026,5.132-4.655l6.342-1.664c9.577-2.502,17.233-9.193,21.027-18.327   c3.793-9.135,3.095-19.281-1.897-27.823L364.73,295.005z"/>
</g>
<path style="fill:#AFC3D7;" d="M488.727,46.545c0-6.412-5.225-11.636-11.636-11.636H34.909c-6.412,0-11.636,5.225-11.636,11.636  v34.909h465.455V46.545z"/>
<g>
	<path style="fill:#004463;" d="M477.091,11.636H34.909C15.663,11.636,0,27.299,0,46.545v372.364   c0,19.247,15.663,34.909,34.909,34.909h442.182c19.247,0,34.909-15.663,34.909-34.909V46.545   C512,27.299,496.337,11.636,477.091,11.636z M23.273,46.545c0-6.412,5.225-11.636,11.636-11.636h442.182   c6.412,0,11.636,5.225,11.636,11.636v34.909H23.273V46.545z M488.727,418.909c0,6.412-5.225,11.636-11.636,11.636H34.909   c-6.412,0-11.636-5.225-11.636-11.636V104.727h465.455V418.909z"/>
	<circle style="fill:#004463;" cx="58.182" cy="58.182" r="11.636"/>
	<circle style="fill:#004463;" cx="104.727" cy="58.182" r="11.636"/>
	<circle style="fill:#004463;" cx="151.273" cy="58.182" r="11.636"/>
</g>
<g>
	<rect x="58.182" y="139.636" style="fill:#FFFFFF;" width="395.636" height="128"/>
	<rect x="58.182" y="290.909" style="fill:#FFFFFF;" width="395.636" height="104.727"/>
</g>
<path style="fill:#EF4C4E;" d="M227.91,453.818c7.505-7.505,17.478-11.636,28.09-11.636c10.612,0,20.596,4.131,28.09,11.636  l6.819,6.819V349.091h-69.818v111.546L227.91,453.818z"/>
<path style="fill:#DB3440;" d="M221.091,349.091v44.928c8.425,2.665,17.443,1.85,25.169-2.665l5.655-3.305  c1.257-0.733,2.665-1.105,4.084-1.105v55.238c10.601,0,20.585,4.131,28.09,11.636l6.819,6.819v-66.572v-33.338v-11.636H221.091z"/>
<path style="fill:#FFC95C;" d="M335.953,255.546c1.734-2.967,1.978-6.493,0.663-9.67c-1.315-3.177-3.98-5.504-7.308-6.365  l-7.249-1.897c-11.927-3.119-21.283-12.474-24.401-24.39l-1.897-7.261c-0.873-3.328-3.188-5.981-6.365-7.296  c-3.177-1.303-6.703-1.082-9.67,0.663l-6.47,3.782c-10.647,6.225-23.866,6.225-34.513,0l-6.47-3.782  c-1.699-1.012-3.584-1.513-5.481-1.513c-1.408,0-2.828,0.279-4.177,0.838c-3.177,1.315-5.504,3.98-6.365,7.308l-1.897,7.249  c-3.119,11.927-12.474,21.283-24.39,24.401l-7.273,1.897c-3.328,0.873-5.981,3.188-7.296,6.365c-1.315,3.177-1.071,6.703,0.663,9.67  l3.782,6.47c6.225,10.636,6.225,23.866,0,34.502l-3.782,6.47c-1.734,2.967-1.978,6.493-0.663,9.67s3.98,5.504,7.308,6.365  l7.249,1.897c11.927,3.119,21.283,12.474,24.401,24.39l1.897,7.261c0.873,3.328,3.188,5.981,6.365,7.296  c3.165,1.303,6.691,1.071,9.67-0.663l6.47-3.782c10.636-6.225,23.855-6.225,34.502,0l6.47,3.782c2.967,1.745,6.505,1.967,9.67,0.663  c3.177-1.315,5.504-3.98,6.365-7.308l1.897-7.249c3.119-11.927,12.474-21.283,24.39-24.401l7.261-1.897  c3.328-0.873,5.981-3.188,7.296-6.365c1.315-3.177,1.071-6.703-0.663-9.67l-3.782-6.47c-6.225-10.636-6.225-23.866,0-34.502  L335.953,255.546z"/>
<path style="fill:#004463;" d="M352.256,284.765c-1.99-3.386-1.99-7.599,0-10.996l3.782-6.47c5.446-9.309,6.202-20.364,2.071-30.324  c-4.131-9.961-12.474-17.245-22.912-19.968l-7.249-1.897c-3.805-0.989-6.784-3.98-7.773-7.773l-1.897-7.261  c-2.723-10.426-10.007-18.781-19.968-22.912c-9.961-4.119-21.015-3.375-30.324,2.071l-6.47,3.782l0,0  c-3.386,1.99-7.599,1.99-10.996,0l-6.47-3.782c-9.309-5.434-20.352-6.191-30.324-2.071c-9.961,4.131-17.245,12.474-19.968,22.912  l-1.897,7.249c-0.989,3.805-3.98,6.784-7.773,7.773l-7.261,1.897c-10.426,2.723-18.781,10.007-22.912,19.968  c-4.119,9.961-3.375,21.015,2.071,30.324l3.782,6.481c1.99,3.386,1.99,7.599,0,10.996l-3.782,6.47  c-5.446,9.309-6.202,20.364-2.071,30.324c4.131,9.961,12.474,17.245,22.912,19.968l7.249,1.897c3.805,0.989,6.784,3.98,7.773,7.773  l1.897,7.261c0.873,3.328,2.351,6.342,4.096,9.181v121.088c0,4.701,2.839,8.948,7.18,10.752c4.352,1.792,9.344,0.803,12.684-2.525  l26.659-26.682c6.121-6.121,17.152-6.121,23.273,0l26.682,26.682c2.223,2.223,5.201,3.409,8.227,3.409  c1.501,0,3.014-0.291,4.457-0.884c4.34-1.804,7.18-6.051,7.18-10.752V367.651c1.734-2.839,3.223-5.853,4.096-9.181l1.897-7.249  c0.989-3.805,3.98-6.784,7.773-7.773l7.261-1.897c10.426-2.723,18.781-10.007,22.912-19.968c4.119-9.961,3.375-21.015-2.071-30.324  L352.256,284.765z M284.09,453.818c-7.505-7.505-17.478-11.636-28.09-11.636c-10.612,0-20.596,4.131-28.09,11.636l-6.819,6.819  v-77.184c1.908,0.326,3.817,0.57,5.725,0.57c5.958,0,11.869-1.583,17.21-4.701l6.481-3.782c3.386-1.99,7.599-1.99,10.996,0  l6.47,3.782c7.063,4.131,15.116,5.527,22.935,4.189v77.137L284.09,453.818z M332.16,296.518l3.782,6.47  c1.734,2.967,1.978,6.493,0.663,9.67s-3.98,5.504-7.296,6.365l-7.261,1.897c-11.916,3.119-21.271,12.474-24.39,24.401l-1.897,7.261  c-0.873,3.328-3.188,5.993-6.365,7.308c-3.165,1.303-6.703,1.082-9.67-0.663l-6.47-3.782c-10.647-6.225-23.866-6.225-34.502,0  l-6.47,3.782c-2.979,1.734-6.505,1.967-9.67,0.663c-3.177-1.315-5.504-3.98-6.365-7.296l-1.897-7.261  c-3.119-11.916-12.474-21.271-24.401-24.39l-7.261-1.908c-3.328-0.873-5.993-3.188-7.308-6.365c-1.315-3.177-1.071-6.703,0.663-9.67  l3.782-6.47c6.225-10.647,6.225-23.866,0-34.502l-3.782-6.47c-1.734-2.967-1.978-6.493-0.663-9.67  c1.315-3.177,3.98-5.504,7.296-6.365l7.261-1.897c11.916-3.119,21.271-12.474,24.39-24.401l1.897-7.249  c0.873-3.328,3.188-5.993,6.365-7.308c1.373-0.57,2.793-0.849,4.201-0.849c1.897,0,3.782,0.5,5.492,1.501l6.47,3.782  c10.647,6.225,23.866,6.225,34.513,0l6.47-3.782c2.967-1.745,6.493-1.967,9.67-0.663c3.177,1.315,5.504,3.98,6.365,7.296  l1.897,7.261c3.119,11.916,12.474,21.271,24.401,24.39l7.249,1.897c3.328,0.873,5.993,3.188,7.308,6.365  c1.315,3.177,1.071,6.703-0.663,9.67l-3.782,6.47C325.935,272.663,325.935,285.882,332.16,296.518z"/>
<circle style="fill:#F4B344;" cx="256" cy="279.273" r="46.545"/>
<circle style="fill:#FFC95C;" cx="256" cy="279.273" r="23.273"/>
<g>
	<path style="fill:#D3E2EC;" d="M368.058,300.672l-3.316-5.667c-0.745-1.268-1.105-2.676-1.105-4.096h-7.796l0.198,0.337   c5.446,9.309,6.202,20.364,2.071,30.324c-4.131,9.961-12.474,17.245-22.912,19.968l-7.261,1.897   c-3.793,0.989-6.784,3.98-7.773,7.773l-1.897,7.249c-0.873,3.328-2.351,6.342-4.096,9.181v14.778v13.219h23.273V353.14   c0.989-2.211,2.735-4.026,5.132-4.655l6.342-1.664c9.577-2.502,17.233-9.193,21.027-18.327   C373.737,319.36,373.039,309.213,368.058,300.672z"/>
	<path style="fill:#D3E2EC;" d="M356.038,267.299l-0.198,0.337h16.419c0.349-4.783-0.407-9.647-2.316-14.266   c-2.316-5.609-6.225-10.124-11.008-13.487C361.833,249.065,360.96,258.874,356.038,267.299z"/>
	<path style="fill:#D3E2EC;" d="M320.175,207.325c0.989,3.793,3.98,6.784,7.773,7.773l5.353,1.396   c-2.967-6.679-8.087-12.032-14.732-15.29L320.175,207.325z"/>
</g>
<g>
</g>
<g>
</g>
<g>
</g>
<g>
</g>
<g>
</g>
<g>
</g>
<g>
</g>
<g>
</g>
<g>
</g>
<g>
</g>
<g>
</g>
<g>
</g>
<g>
</g>
<g>
</g>
<g>
</g>
</svg>
