<?xml version="1.0" encoding="iso-8859-1"?>
<!-- Generator: Adobe Illustrator 19.0.0, SVG Export Plug-In . SVG Version: 6.00 Build 0)  -->
<svg xmlns="http://www.w3.org/2000/svg" xmlns:xlink="http://www.w3.org/1999/xlink" version="1.1" id="Capa_1" x="0px" y="0px" viewBox="0 0 512 512" style="enable-background:new 0 0 512 512;" xml:space="preserve">
<path style="fill:#8EC861;" d="M34.909,302.545h442.182c6.412,0,11.636-5.225,11.636-11.636V58.182  c0-6.412-5.225-11.636-11.636-11.636H34.909c-6.412,0-11.636,5.225-11.636,11.636v232.727  C23.273,297.321,28.497,302.545,34.909,302.545z"/>
<path style="fill:#004463;" d="M477.091,325.818H34.909C15.663,325.818,0,310.156,0,290.909V58.182  c0-19.247,15.663-34.909,34.909-34.909h442.182c19.247,0,34.909,15.663,34.909,34.909v232.727  C512,310.156,496.337,325.818,477.091,325.818z M34.909,46.545c-6.412,0-11.636,5.225-11.636,11.636v232.727  c0,6.412,5.225,11.636,11.636,11.636h442.182c6.412,0,11.636-5.225,11.636-11.636V58.182c0-6.412-5.225-11.636-11.636-11.636H34.909  z"/>
<ellipse style="fill:#C4DD91;" cx="256" cy="174.545" rx="81.455" ry="93.091"/>
<g>
	<path style="fill:#004463;" d="M256,290.909c-57.74,0-104.727-52.201-104.727-116.364S198.26,58.182,256,58.182   s104.727,52.201,104.727,116.364S313.74,290.909,256,290.909z M256,81.455c-44.916,0-81.455,41.763-81.455,93.091   s36.538,93.091,81.455,93.091s81.455-41.763,81.455-93.091S300.916,81.455,256,81.455z"/>
	<path style="fill:#004463;" d="M465.455,128c-32.081,0-58.182-26.1-58.182-58.182c0-6.423,5.213-11.636,11.636-11.636   c6.423,0,11.636,5.213,11.636,11.636c0,19.247,15.663,34.909,34.909,34.909c6.423,0,11.636,5.213,11.636,11.636   S471.878,128,465.455,128z"/>
	<path style="fill:#004463;" d="M418.909,290.909c-6.423,0-11.636-5.213-11.636-11.636c0-32.081,26.1-58.182,58.182-58.182   c6.423,0,11.636,5.213,11.636,11.636s-5.213,11.636-11.636,11.636c-19.247,0-34.909,15.663-34.909,34.909   C430.545,285.696,425.332,290.909,418.909,290.909z"/>
	<path style="fill:#004463;" d="M93.091,290.909c-6.423,0-11.636-5.213-11.636-11.636c0-19.247-15.663-34.909-34.909-34.909   c-6.423,0-11.636-5.213-11.636-11.636s5.213-11.636,11.636-11.636c32.081,0,58.182,26.1,58.182,58.182   C104.727,285.696,99.514,290.909,93.091,290.909z"/>
	<path style="fill:#004463;" d="M46.545,128c-6.423,0-11.636-5.213-11.636-11.636s5.213-11.636,11.636-11.636   c19.247,0,34.909-15.663,34.909-34.909c0-6.423,5.213-11.636,11.636-11.636s11.636,5.213,11.636,11.636   C104.727,101.9,78.627,128,46.545,128z"/>
	<circle style="fill:#004463;" cx="116.364" cy="174.545" r="23.273"/>
	<circle style="fill:#004463;" cx="395.636" cy="174.545" r="23.273"/>
	<path style="fill:#004463;" d="M267.636,162.909h-23.273c-6.412,0-11.636-5.225-11.636-11.636c0-6.412,5.225-11.636,11.636-11.636   h34.909c6.423,0,11.636-5.213,11.636-11.636c0-6.423-5.213-11.636-11.636-11.636h-11.636c0-6.423-5.213-11.636-11.636-11.636   c-6.423,0-11.636,5.213-11.636,11.636c-19.247,0-34.909,15.663-34.909,34.909s15.663,34.909,34.909,34.909h23.273   c6.412,0,11.636,5.225,11.636,11.636c0,6.412-5.225,11.636-11.636,11.636h-34.909c-6.423,0-11.636,5.213-11.636,11.636   c0,6.423,5.213,11.636,11.636,11.636h11.636c0,6.423,5.213,11.636,11.636,11.636c6.423,0,11.636-5.213,11.636-11.636   c19.247,0,34.909-15.663,34.909-34.909S286.883,162.909,267.636,162.909z"/>
</g>
<circle style="fill:#FFC95C;" cx="407.273" cy="314.182" r="58.182"/>
<path style="fill:#004463;" d="M407.273,395.636c-44.916,0-81.455-36.538-81.455-81.455s36.538-81.455,81.455-81.455  s81.455,36.538,81.455,81.455S452.189,395.636,407.273,395.636z M407.273,256c-32.081,0-58.182,26.1-58.182,58.182  s26.1,58.182,58.182,58.182s58.182-26.1,58.182-58.182S439.354,256,407.273,256z"/>
<circle style="fill:#FFC95C;" cx="302.545" cy="337.455" r="58.182"/>
<path style="fill:#004463;" d="M302.545,418.909c-44.916,0-81.455-36.538-81.455-81.455S257.629,256,302.545,256  S384,292.538,384,337.455S347.462,418.909,302.545,418.909z M302.545,279.273c-32.081,0-58.182,26.1-58.182,58.182  s26.1,58.182,58.182,58.182s58.182-26.1,58.182-58.182S334.627,279.273,302.545,279.273z"/>
<circle style="fill:#FFC95C;" cx="360.727" cy="407.273" r="58.182"/>
<path style="fill:#004463;" d="M360.727,488.727c-44.916,0-81.455-36.538-81.455-81.455s36.538-81.455,81.455-81.455  s81.455,36.538,81.455,81.455S405.644,488.727,360.727,488.727z M360.727,349.091c-32.081,0-58.182,26.1-58.182,58.182  s26.1,58.182,58.182,58.182s58.182-26.1,58.182-58.182S392.809,349.091,360.727,349.091z"/>
<path style="fill:#F4B344;" d="M383.581,329.146c20.317,5.958,37.236,19.7,47.616,37.667c4.841-2.269,9.437-5.004,13.475-8.425  c-10.147-19.572-27.939-34.56-49.455-40.867c-1.943-19.095-10.566-36.201-23.424-49.094c-4.352,3.386-8.157,7.401-11.427,11.846  C373.097,293.12,381.649,310.144,383.581,329.146z"/>
<g>
</g>
<g>
</g>
<g>
</g>
<g>
</g>
<g>
</g>
<g>
</g>
<g>
</g>
<g>
</g>
<g>
</g>
<g>
</g>
<g>
</g>
<g>
</g>
<g>
</g>
<g>
</g>
<g>
</g>
</svg>
