<?xml version="1.0" encoding="iso-8859-1"?>
<!-- Generator: Adobe Illustrator 19.0.0, SVG Export Plug-In . SVG Version: 6.00 Build 0)  -->
<svg xmlns="http://www.w3.org/2000/svg" xmlns:xlink="http://www.w3.org/1999/xlink" version="1.1" id="Capa_1" x="0px" y="0px" viewBox="0 0 512 512" style="enable-background:new 0 0 512 512;" xml:space="preserve">
<path style="fill:#8EC861;" d="M446.836,434.036c-17.478-13.114-27.927-33.99-27.927-55.855c0-68.177-26.554-132.282-74.764-180.492  l-49.827-49.827c-2.188-2.176-3.409-5.143-3.409-8.227v-34.909c0-2.641,0.896-5.201,2.548-7.273l40.879-51.107  c2.013-2.502,3.119-5.655,3.119-8.867c0-7.831-6.377-14.208-14.208-14.208h-35.596l-8.983,26.95  c-1.408,4.212-5.097,7.261-9.495,7.855c-4.457,0.57-8.762-1.396-11.229-5.085l-19.805-29.719h-49.385  c-7.831,0-14.208,6.377-14.208,14.208c0,3.212,1.105,6.365,3.119,8.879l40.879,51.107c1.652,2.06,2.548,4.62,2.548,7.261v34.909  c0,3.084-1.222,6.051-3.409,8.227l-49.827,49.827C119.645,245.9,93.091,310.004,93.091,378.182c0,21.853-10.438,42.74-27.927,55.855  c-11.66,8.739-18.618,22.656-18.618,37.225c0,9.635,7.831,17.466,17.455,17.466h384c9.623,0,17.455-7.831,17.455-17.455  C465.455,456.704,458.496,442.775,446.836,434.036z"/>
<path style="fill:#004463;" d="M267.636,302.545h-23.273c-6.412,0-11.636-5.213-11.636-11.636c0-6.423,5.225-11.636,11.636-11.636  h34.909c6.423,0,11.636-5.201,11.636-11.636S285.696,256,279.273,256h-11.636l0,0c0-6.423-5.213-11.636-11.636-11.636  c-6.423,0-11.636,5.213-11.636,11.636l0,0c-19.247,0-34.909,15.663-34.909,34.909c0,19.247,15.663,34.909,34.909,34.909h23.273  c6.412,0,11.636,5.213,11.636,11.636s-5.225,11.636-11.636,11.636h-34.909c-6.423,0-11.636,5.201-11.636,11.636  s5.213,11.636,11.636,11.636h11.636l0,0c0,6.423,5.213,11.636,11.636,11.636c6.423,0,11.636-5.213,11.636-11.636l0,0  c19.247,0,34.909-15.663,34.909-34.909C302.545,318.208,286.883,302.545,267.636,302.545z"/>
<path style="fill:#70B856;" d="M446.836,434.036c-18.129-13.603-28.695-35.549-27.892-58.275  c2.374-67.13-28.044-131.305-75.543-178.804l-34.036-34.048l-11.636-11.636l-3.409-3.409c-2.188-2.188-3.409-5.143-3.409-8.227  v-34.921c0-2.641,0.896-5.201,2.548-7.261l40.89-51.107c2.001-2.502,3.107-5.655,3.107-8.867c0-7.831-6.377-14.208-14.208-14.208  h-9.588c0.163,0.861,0.524,1.652,0.524,2.572c0,3.212-1.105,6.365-3.119,8.879l-40.879,51.095c-1.652,2.06-2.548,4.631-2.548,7.273  L256,128c0,3.084,1.222,6.039,3.409,8.227l15.046,15.046h-60.183l-11.636,11.636h56.052c17.548,0,34.374,6.97,46.79,19.375l0,0  c41.996,41.996,77.335,124.94,78.534,184.32l0.012,0.605c1.408,40.378-27.927,74.973-68.329,74.973c0,0-176.5,0.524-237.452,0  c-16.756-0.14-31.569,11.985-31.697,28.742c0,0.116,0,0.221,0,0.337c0,3.945,1.361,7.54,3.572,10.473  c0.023,0.023,0.047,0.047,0.058,0.081c1.036,1.35,2.246,2.56,3.619,3.561c0.035,0.035,0.07,0.058,0.105,0.093  c1.303,0.931,2.746,1.652,4.282,2.199c0.303,0.105,0.617,0.198,0.919,0.291c1.571,0.442,3.188,0.768,4.899,0.768h378.182H448  c9.647,0,17.478-7.901,17.455-17.548C465.431,456.646,458.473,442.764,446.836,434.036z"/>
<path style="fill:#004463;" d="M448,512H64c-22.458,0-40.727-18.269-40.727-40.727c0-21.865,10.438-42.74,27.927-55.855  c11.66-8.739,18.618-22.656,18.618-37.225c0-74.403,28.975-144.349,81.583-196.957l46.417-46.417v-26.007l-38.33-47.919  c-5.306-6.621-8.215-14.941-8.215-23.412C151.273,16.815,168.087,0,188.753,0h55.61c3.887,0,7.517,1.943,9.681,5.178l10.077,15.116  l4.119-12.346C269.824,3.2,274.257,0,279.273,0h43.974c20.666,0,37.481,16.815,37.481,37.481c0,8.471-2.909,16.791-8.215,23.412  l-38.33,47.919v26.007l46.417,46.417c52.608,52.608,81.583,122.554,81.583,196.945c0,14.569,6.959,28.486,18.618,37.225  c17.478,13.114,27.927,33.99,27.927,55.855C488.727,493.731,470.458,512,448,512z M188.753,23.273  c-7.831,0-14.208,6.377-14.208,14.208c0,3.212,1.105,6.365,3.119,8.879l40.879,51.107c1.652,2.06,2.548,4.62,2.548,7.261v34.909  c0,3.084-1.222,6.051-3.409,8.227l-49.827,49.827C119.645,245.9,93.091,310.004,93.091,378.182c0,21.853-10.438,42.74-27.927,55.855  c-11.66,8.739-18.618,22.656-18.618,37.225c0,9.635,7.831,17.466,17.455,17.466h384c9.623,0,17.455-7.831,17.455-17.455  c0-14.569-6.959-28.497-18.618-37.236c-17.478-13.114-27.927-33.99-27.927-55.855c0-68.177-26.554-132.282-74.764-180.492  l-49.827-49.827c-2.188-2.176-3.409-5.143-3.409-8.227v-34.909c0-2.641,0.896-5.201,2.548-7.273l40.879-51.107  c2.013-2.502,3.119-5.655,3.119-8.867c0-7.831-6.377-14.208-14.208-14.208h-35.596l-8.983,26.95  c-1.408,4.212-5.097,7.261-9.495,7.855c-4.457,0.57-8.762-1.396-11.229-5.085l-19.805-29.719H188.753z"/>
<path style="fill:#EBEEF7;" d="M203.636,128h104.727c3.212,0,5.818-2.607,5.818-5.818c0-3.212-2.607-5.818-5.818-5.818H203.636  c-3.212,0-5.818,2.607-5.818,5.818C197.818,125.393,200.425,128,203.636,128z"/>
<path style="fill:#004463;" d="M308.364,151.273H203.636c-16.035,0-29.091-13.056-29.091-29.091s13.056-29.091,29.091-29.091  h104.727c16.035,0,29.091,13.056,29.091,29.091S324.399,151.273,308.364,151.273z M203.636,116.364  c-3.212,0-5.818,2.607-5.818,5.818c0,3.212,2.607,5.818,5.818,5.818h104.727c3.212,0,5.818-2.607,5.818-5.818  c0-3.212-2.607-5.818-5.818-5.818H203.636z"/>
<g>
</g>
<g>
</g>
<g>
</g>
<g>
</g>
<g>
</g>
<g>
</g>
<g>
</g>
<g>
</g>
<g>
</g>
<g>
</g>
<g>
</g>
<g>
</g>
<g>
</g>
<g>
</g>
<g>
</g>
</svg>
