<?xml version="1.0" encoding="iso-8859-1"?>
<!-- Generator: Adobe Illustrator 19.0.0, SVG Export Plug-In . SVG Version: 6.00 Build 0)  -->
<svg xmlns="http://www.w3.org/2000/svg" xmlns:xlink="http://www.w3.org/1999/xlink" version="1.1" id="Capa_1" x="0px" y="0px" viewBox="0 0 512 512" style="enable-background:new 0 0 512 512;" xml:space="preserve">
<path style="fill:#EBEEF7;" d="M488.727,104.727H23.273v314.182c0,6.412,5.225,11.636,11.636,11.636h442.182  c6.412,0,11.636-5.225,11.636-11.636V104.727z"/>
<path style="fill:#AFC3D7;" d="M488.727,46.545c0-6.412-5.225-11.636-11.636-11.636H34.909c-6.412,0-11.636,5.225-11.636,11.636  v34.909h465.455V46.545z"/>
<g>
	<path style="fill:#004463;" d="M477.091,11.636H34.909C15.663,11.636,0,27.299,0,46.545v372.364   c0,19.247,15.663,34.909,34.909,34.909h442.182c19.247,0,34.909-15.663,34.909-34.909V46.545   C512,27.299,496.337,11.636,477.091,11.636z M23.273,46.545c0-6.412,5.225-11.636,11.636-11.636h442.182   c6.412,0,11.636,5.225,11.636,11.636v34.909H23.273V46.545z M488.727,418.909c0,6.412-5.225,11.636-11.636,11.636H34.909   c-6.412,0-11.636-5.225-11.636-11.636V104.727h465.455V418.909z"/>
	<circle style="fill:#004463;" cx="58.182" cy="58.182" r="11.636"/>
	<circle style="fill:#004463;" cx="104.727" cy="58.182" r="11.636"/>
	<circle style="fill:#004463;" cx="151.273" cy="58.182" r="11.636"/>
</g>
<g>
	<rect x="58.182" y="139.636" style="fill:#C3D6E4;" width="395.636" height="116.364"/>
	<rect x="58.182" y="279.273" style="fill:#C3D6E4;" width="174.545" height="116.364"/>
	<rect x="256" y="279.273" style="fill:#C3D6E4;" width="197.818" height="116.364"/>
</g>
<circle style="fill:#FFC95C;" cx="302.545" cy="290.909" r="58.182"/>
<path style="fill:#004463;" d="M302.545,372.364c-44.916,0-81.455-36.538-81.455-81.455s36.538-81.455,81.455-81.455  S384,245.993,384,290.909S347.462,372.364,302.545,372.364z M302.545,232.727c-32.081,0-58.182,26.1-58.182,58.182  s26.1,58.182,58.182,58.182s58.182-26.1,58.182-58.182S334.627,232.727,302.545,232.727z"/>
<path style="fill:#F4B344;" d="M335.453,258.001l-65.827,65.827c18.176,18.176,47.651,18.176,65.827,0  C353.641,305.641,353.641,276.177,335.453,258.001z"/>
<circle style="fill:#FFC95C;" cx="395.636" cy="337.455" r="58.182"/>
<path style="fill:#004463;" d="M395.636,418.909c-44.916,0-81.455-36.538-81.455-81.455S350.72,256,395.636,256  s81.455,36.538,81.455,81.455S440.553,418.909,395.636,418.909z M395.636,279.273c-32.081,0-58.182,26.1-58.182,58.182  s26.1,58.182,58.182,58.182s58.182-26.1,58.182-58.182S427.718,279.273,395.636,279.273z"/>
<path style="fill:#F4B344;" d="M428.544,304.547l-65.827,65.827c18.176,18.176,47.651,18.176,65.827,0  C446.732,352.186,446.732,322.723,428.544,304.547z"/>
<ellipse style="fill:#FFC95C;" cx="337.46" cy="418.906" rx="58.181" ry="58.181"/>
<path style="fill:#004463;" d="M337.513,500.364c-20.864,0-41.74-7.936-57.623-23.831c-31.779-31.767-31.779-83.479,0-115.247  c31.779-31.779,83.468-31.779,115.247,0c31.779,31.767,31.779,83.479,0,115.247C379.241,492.428,358.377,500.364,337.513,500.364z   M337.513,360.727c-14.906,0-29.812,5.679-41.158,17.024c-22.691,22.703-22.691,59.625,0,82.327  c22.691,22.691,59.625,22.691,82.316,0c22.691-22.703,22.691-59.625,0-82.327C367.325,366.406,352.419,360.727,337.513,360.727z"/>
<path style="fill:#F4B344;" d="M370.362,384l-65.827,65.827c18.176,18.176,47.651,18.176,65.827,0  C388.55,431.651,388.55,402.176,370.362,384z"/>
<g>
</g>
<g>
</g>
<g>
</g>
<g>
</g>
<g>
</g>
<g>
</g>
<g>
</g>
<g>
</g>
<g>
</g>
<g>
</g>
<g>
</g>
<g>
</g>
<g>
</g>
<g>
</g>
<g>
</g>
</svg>
