<?xml version="1.0" encoding="iso-8859-1"?>
<!-- Generator: Adobe Illustrator 19.0.0, SVG Export Plug-In . SVG Version: 6.00 Build 0)  -->
<svg xmlns="http://www.w3.org/2000/svg" xmlns:xlink="http://www.w3.org/1999/xlink" version="1.1" id="Capa_1" x="0px" y="0px" viewBox="0 0 512 512" style="enable-background:new 0 0 512 512;" xml:space="preserve">
<path style="fill:#EBEEF7;" d="M372.364,23.273H139.636c-12.835,0-23.273,10.438-23.273,23.273v418.909  c0,12.835,10.438,23.273,23.273,23.273h232.727c12.835,0,23.273-10.438,23.273-23.273V46.545  C395.636,33.711,385.199,23.273,372.364,23.273z"/>
<g>
	<path style="fill:#004463;" d="M372.364,512H139.636c-25.67,0-46.545-20.876-46.545-46.545V46.545   C93.091,20.876,113.967,0,139.636,0h232.727c25.67,0,46.545,20.876,46.545,46.545v418.909C418.909,491.124,398.033,512,372.364,512   z M139.636,23.273c-12.835,0-23.273,10.438-23.273,23.273v418.909c0,12.835,10.438,23.273,23.273,23.273h232.727   c12.835,0,23.273-10.438,23.273-23.273V46.545c0-12.835-10.438-23.273-23.273-23.273H139.636z"/>
	<path style="fill:#004463;" d="M256,477.091c-12.835,0-23.273-10.438-23.273-23.273c0-12.835,10.438-23.273,23.273-23.273   c12.835,0,23.273,10.438,23.273,23.273C279.273,466.653,268.835,477.091,256,477.091z M256,453.818h0.116H256z M256,453.818h0.116   H256z M256,453.818h0.116H256z M256,453.818h0.116H256z M256,453.818h0.116H256z M256,453.807h0.116H256z M256,453.807h0.116H256z    M256,453.807h0.116H256z"/>
	<path style="fill:#004463;" d="M279.273,69.818h-46.545c-6.423,0-11.636-5.213-11.636-11.636s5.213-11.636,11.636-11.636h46.545   c6.423,0,11.636,5.213,11.636,11.636S285.696,69.818,279.273,69.818z"/>
</g>
<rect x="151.273" y="116.364" style="fill:#ACD6F2;" width="209.455" height="279.273"/>
<path style="fill:#004463;" d="M372.364,418.909H139.636c-6.423,0-11.636-5.213-11.636-11.636V104.727  c0-6.423,5.213-11.636,11.636-11.636h232.727c6.423,0,11.636,5.213,11.636,11.636v302.545  C384,413.696,378.787,418.909,372.364,418.909z M151.273,395.636h209.455V116.364H151.273V395.636z"/>
<path style="fill:#DD333F;" d="M267.636,279.273h-23.273c-6.423,0-11.636-5.213-11.636-11.636V151.273  c0-6.423,5.213-11.636,11.636-11.636h23.273c6.423,0,11.636,5.213,11.636,11.636v116.364  C279.273,274.06,274.06,279.273,267.636,279.273z"/>
<path style="fill:#0E9247;" d="M325.818,279.273h-23.273c-6.423,0-11.636-5.213-11.636-11.636v-81.455  c0-6.423,5.213-11.636,11.636-11.636h23.273c6.423,0,11.636,5.213,11.636,11.636v81.455  C337.455,274.06,332.241,279.273,325.818,279.273z"/>
<path style="fill:#1470B7;" d="M209.455,279.273h-23.273c-6.423,0-11.636-5.213-11.636-11.636v-46.545  c0-6.423,5.213-11.636,11.636-11.636h23.273c6.423,0,11.636,5.213,11.636,11.636v46.545  C221.091,274.06,215.878,279.273,209.455,279.273z"/>
<g>
	<path style="fill:#004463;" d="M325.818,325.818H186.182c-6.423,0-11.636-5.213-11.636-11.636s5.213-11.636,11.636-11.636h139.636   c6.423,0,11.636,5.213,11.636,11.636S332.241,325.818,325.818,325.818z"/>
	<path style="fill:#004463;" d="M267.636,360.727h-81.455c-6.423,0-11.636-5.213-11.636-11.636s5.213-11.636,11.636-11.636h81.455   c6.423,0,11.636,5.213,11.636,11.636S274.06,360.727,267.636,360.727z"/>
</g>
<g>
</g>
<g>
</g>
<g>
</g>
<g>
</g>
<g>
</g>
<g>
</g>
<g>
</g>
<g>
</g>
<g>
</g>
<g>
</g>
<g>
</g>
<g>
</g>
<g>
</g>
<g>
</g>
<g>
</g>
</svg>
