<?xml version="1.0" encoding="iso-8859-1"?>
<!-- Generator: Adobe Illustrator 19.0.0, SVG Export Plug-In . SVG Version: 6.00 Build 0)  -->
<svg xmlns="http://www.w3.org/2000/svg" xmlns:xlink="http://www.w3.org/1999/xlink" version="1.1" id="Capa_1" x="0px" y="0px" viewBox="0 0 512 512" style="enable-background:new 0 0 512 512;" xml:space="preserve">
<g>
	<path style="fill:#EBEEF7;" d="M488.727,244.364c0-19.247-15.663-34.909-34.909-34.909v69.818   C473.065,279.273,488.727,263.61,488.727,244.364z"/>
	<path style="fill:#EBEEF7;" d="M279.273,309.004l95.313,85.725c6.051,5.446,13.289,9.239,21.05,11.148V82.851   c-7.796,1.897-15.046,5.702-21.108,11.148l-95.255,85.725V309.004z"/>
</g>
<g>
	<rect x="418.909" y="81.455" style="fill:#EF4C4E;" width="23.273" height="325.818"/>
	<path style="fill:#EF4C4E;" d="M81.455,325.818h162.909c6.412,0,11.636-5.225,11.636-11.636V174.545   c0-6.412-5.225-11.636-11.636-11.636H81.455c-6.412,0-11.636,5.225-11.636,11.636v139.636   C69.818,320.593,75.043,325.818,81.455,325.818z"/>
</g>
<path style="fill:#EBEEF7;" d="M34.909,279.273h11.636v-69.818H34.909c-6.412,0-11.636,5.225-11.636,11.636v46.545  C23.273,274.048,28.497,279.273,34.909,279.273z"/>
<path style="fill:#AFC3D7;" d="M186.182,425.728c0-1.268-0.512-2.513-1.408-3.398l-4.201-4.201  c-11.392-11.392-17.664-26.554-17.664-42.659v-26.38h-23.273v69.818c0,6.423,5.225,11.636,11.636,11.636h30.092  C184.017,430.545,186.182,428.381,186.182,425.728z"/>
<g>
	<path style="fill:#004463;" d="M512,244.364c0-28.09-20.026-51.596-46.545-57.007V81.455c0-12.835-10.438-23.273-23.273-23.273   h-34.909c-0.012,0-0.012,0-0.023,0s-0.012,0-0.023,0c-17.85,0-34.991,6.575-48.268,18.525l-86.237,77.615   c-6.342-8.855-16.663-14.685-28.358-14.685H81.455c-19.247,0-34.909,15.663-34.909,34.909v11.636H34.909   C15.663,186.182,0,201.844,0,221.091v46.545c0,19.247,15.663,34.909,34.909,34.909h11.636v11.636   c0,19.247,15.663,34.909,34.909,34.909h34.909v69.818c0,19.247,15.663,34.909,34.909,34.909h30.092   c15.488,0,28.09-12.602,28.09-28.09c0-7.412-3.002-14.65-8.227-19.863l-4.189-4.189c-7.005-7.005-10.857-16.314-10.857-26.205   v-26.38h58.182c11.695,0,22.016-5.83,28.346-14.685l86.307,77.626c13.277,11.939,30.406,18.513,48.256,18.513h34.909   c12.835,0,23.273-10.438,23.273-23.273V301.37C491.974,295.959,512,272.454,512,244.364z M34.909,279.273   c-6.412,0-11.636-5.225-11.636-11.636v-46.545c0-6.412,5.225-11.636,11.636-11.636h11.636v69.818H34.909z M180.585,418.129   l4.201,4.201c0.884,0.884,1.396,2.129,1.396,3.398c0,2.653-2.164,4.817-4.817,4.817h-30.092c-6.412,0-11.636-5.213-11.636-11.636   v-69.818h23.273v26.38C162.909,391.575,169.181,406.737,180.585,418.129z M244.364,325.818h-69.818H128H81.455   c-6.412,0-11.636-5.225-11.636-11.636v-23.273v-93.091v-23.273c0-6.412,5.225-11.636,11.636-11.636h162.909   c6.412,0,11.636,5.225,11.636,11.636v139.636C256,320.593,250.775,325.818,244.364,325.818z M279.273,309.004v-129.28   l95.255-85.725c6.063-5.446,13.312-9.251,21.108-11.148v323.025c-7.761-1.897-15.011-5.702-21.05-11.148L279.273,309.004z    M418.909,407.273V81.455h23.273l0.012,116.329c0,0.012-0.012,0.023-0.012,0.035s0.012,0.023,0.012,0.035v93.009   c0,0.012-0.012,0.023-0.012,0.047s0.012,0.035,0.012,0.058v116.305H418.909z M465.455,277.132v-65.524   c13.51,4.817,23.273,17.617,23.273,32.768S478.964,272.314,465.455,277.132z"/>
	<circle style="fill:#004463;" cx="116.364" cy="209.455" r="11.636"/>
	<circle style="fill:#004463;" cx="162.909" cy="209.455" r="11.636"/>
</g>
<path style="fill:#DB3440;" d="M244.364,162.909v128c0,6.423-5.213,11.636-11.636,11.636H69.818v11.636  c0,6.423,5.213,11.636,11.636,11.636h162.909c6.423,0,11.636-5.213,11.636-11.636V174.545  C256,168.122,250.787,162.909,244.364,162.909z"/>
<path style="fill:#D3E2EC;" d="M374.575,337.955l-50.525-33.117c-13.417-8.797-21.504-23.761-21.504-39.82v-106.24l-23.273,20.945  v95.756v33.513l95.302,85.737c6.051,5.434,13.289,9.228,21.062,11.136v-56.774C387.863,347.183,380.625,343.389,374.575,337.955z"/>
<rect x="418.909" y="349.091" style="fill:#DB3440;" width="23.273" height="58.182"/>
<polygon style="fill:#97B3CC;" points="162.909,372.364 139.636,360.727 139.636,349.091 162.909,349.091 "/>
<path style="fill:#D3E2EC;" d="M46.545,279.273H34.909c-6.423,0-11.636-5.213-11.636-11.636V256h23.273V279.273z"/>
<g>
</g>
<g>
</g>
<g>
</g>
<g>
</g>
<g>
</g>
<g>
</g>
<g>
</g>
<g>
</g>
<g>
</g>
<g>
</g>
<g>
</g>
<g>
</g>
<g>
</g>
<g>
</g>
<g>
</g>
</svg>
