<?xml version="1.0" encoding="iso-8859-1"?>
<!-- Generator: Adobe Illustrator 19.0.0, SVG Export Plug-In . SVG Version: 6.00 Build 0)  -->
<svg xmlns="http://www.w3.org/2000/svg" xmlns:xlink="http://www.w3.org/1999/xlink" version="1.1" id="Capa_1" x="0px" y="0px" viewBox="0 0 511.997 511.997" style="enable-background:new 0 0 511.997 511.997;" xml:space="preserve">
<path style="fill:#D3E2EC;" d="M255.991,418.906c-82.816,0-128,23.063-128,34.909s45.184,34.909,128,34.909s128-23.063,128-34.909  S338.807,418.906,255.991,418.906z"/>
<path style="fill:#004463;" d="M255.991,511.997c-75.171,0-151.273-19.98-151.273-58.182s76.102-58.182,151.273-58.182  s151.273,19.98,151.273,58.182S331.162,511.997,255.991,511.997z M255.991,418.906c-82.816,0-128,23.063-128,34.909  s45.184,34.909,128,34.909s128-23.063,128-34.909S338.807,418.906,255.991,418.906z"/>
<path style="fill:#AFC3D7;" d="M368.899,439.398c-19.584-10.31-57.879-20.492-112.908-20.492v46.545L368.899,439.398z"/>
<path style="fill:#EF4C4E;" d="M407.264,175.124c0-42.845-17.862-83.468-49.012-112.07c-31.569-28.986-72.623-42.938-115.642-39.226  c-66.676,5.725-123.66,57.926-135.517,124.125c-1.943,10.799-2.688,21.748-2.257,32.535c0.896,22.284,8.541,45.335,22.109,66.7  l120.983,190.569c3.526,5.551,12.591,5.551,16.116,0l123.217-194.071C400.306,223.159,407.218,199.456,407.264,175.124z   M255.991,244.361c-38.505,0-69.818-31.313-69.818-69.818s31.313-69.818,69.818-69.818s69.818,31.313,69.818,69.818  S294.484,244.361,255.991,244.361z"/>
<path style="fill:#004463;" d="M255.991,465.452c-11.299,0-21.644-5.69-27.706-15.22L107.302,259.674  c-15.756-24.809-24.646-51.863-25.705-78.231c-0.5-12.486,0.372-25.123,2.607-37.585C98.086,66.243,162.4,7.351,240.62,0.649l0,0  c49.583-4.166,96.943,11.823,133.376,45.265c35.933,32.989,56.541,79.86,56.541,128.617c-0.058,29.37-8.227,57.379-23.622,81.629  L283.698,450.231C277.635,459.762,267.29,465.452,255.991,465.452z M242.598,23.84c-66.665,5.713-123.648,57.914-135.505,124.113  c-1.943,10.799-2.688,21.748-2.257,32.535c0.896,22.284,8.541,45.335,22.109,66.7l120.983,190.569  c3.526,5.551,12.591,5.551,16.116,0l123.217-194.071c13.044-20.527,19.956-44.23,20.003-68.561  c0-42.845-17.862-83.468-49.012-112.07C326.682,34.08,285.629,20.128,242.598,23.84L242.598,23.84z M241.609,12.239h0.116H241.609z   M255.991,244.361c-38.505,0-69.818-31.313-69.818-69.818s31.313-69.818,69.818-69.818s69.818,31.313,69.818,69.818  S294.484,244.361,255.991,244.361z M255.991,127.986c-25.67,0-46.545,20.876-46.545,46.545s20.876,46.545,46.545,46.545  c25.67,0,46.545-20.876,46.545-46.545S281.65,127.986,255.991,127.986z"/>
<g>
	<path style="fill:#DB3440;" d="M186.173,174.531c0-38.563,31.255-69.818,69.818-69.818c16.314,0,31.279,5.644,43.171,15.011   c-12.788-16.209-32.559-26.647-54.807-26.647c-38.563,0-69.818,31.255-69.818,69.818c0,22.249,10.438,42.019,26.647,54.807   C191.805,205.821,186.173,190.845,186.173,174.531z"/>
	<path style="fill:#DB3440;" d="M358.263,63.066c-2.723-2.502-5.609-4.736-8.483-7.017c21.841,26.845,34.211,60.649,34.211,96.07   c-0.058,24.32-6.97,48.035-19.991,68.561c0,0-42.531,66.292-78.65,122.077c-19.165,29.626-29.359,64.128-29.359,99.421l0,0   c3.095,0,6.179-1.478,8.064-4.433l123.229-194.06c13.021-20.527,19.933-44.241,19.991-68.561   C407.264,132.291,389.402,91.657,358.263,63.066z"/>
</g>
<g>
</g>
<g>
</g>
<g>
</g>
<g>
</g>
<g>
</g>
<g>
</g>
<g>
</g>
<g>
</g>
<g>
</g>
<g>
</g>
<g>
</g>
<g>
</g>
<g>
</g>
<g>
</g>
<g>
</g>
</svg>
