<?xml version="1.0" encoding="iso-8859-1"?>
<!-- Generator: Adobe Illustrator 19.0.0, SVG Export Plug-In . SVG Version: 6.00 Build 0)  -->
<svg xmlns="http://www.w3.org/2000/svg" xmlns:xlink="http://www.w3.org/1999/xlink" version="1.1" id="Capa_1" x="0px" y="0px" viewBox="0 0 512 512" style="enable-background:new 0 0 512 512;" xml:space="preserve">
<path style="fill:#D3E2EC;" d="M349.091,279.273c0-51.328-41.763-93.091-93.091-93.091s-93.091,41.763-93.091,93.091v116.364  c0,51.328,41.763,93.091,93.091,93.091s93.091-41.763,93.091-93.091V279.273z M325.818,395.636  c0,38.505-31.313,69.818-69.818,69.818s-69.818-31.313-69.818-69.818V279.273c0-38.505,31.313-69.818,69.818-69.818  s69.818,31.313,69.818,69.818V395.636z"/>
<path style="fill:#004463;" d="M256,512c-64.163,0-116.364-52.201-116.364-116.364V279.273c0-64.163,52.201-116.364,116.364-116.364  s116.364,52.201,116.364,116.364v116.364C372.364,459.799,320.163,512,256,512z M256,186.182c-51.328,0-93.091,41.763-93.091,93.091  v116.364c0,51.328,41.763,93.091,93.091,93.091s93.091-41.763,93.091-93.091V279.273C349.091,227.945,307.328,186.182,256,186.182z   M256,465.455c-38.505,0-69.818-31.313-69.818-69.818V279.273c0-38.505,31.313-69.818,69.818-69.818s69.818,31.313,69.818,69.818  v116.364C325.818,434.141,294.505,465.455,256,465.455z M256,232.727c-25.67,0-46.545,20.876-46.545,46.545v116.364  c0,25.67,20.876,46.545,46.545,46.545c25.67,0,46.545-20.876,46.545-46.545V279.273C302.545,253.603,281.67,232.727,256,232.727z"/>
<path style="fill:#EBEEF7;" d="M349.091,116.364c0-51.328-41.763-93.091-93.091-93.091s-93.091,41.763-93.091,93.091v93.091  c6.551-8.751,14.371-16.582,23.273-23.261v-69.83c0-38.505,31.313-69.818,69.818-69.818s69.818,31.313,69.818,69.818v116.364  c0,38.505-31.313,69.818-69.818,69.818c-17.513,0-33.978-6.563-46.545-17.839v28.637c14.115,8.18,30.092,12.474,46.545,12.474  c51.328,0,93.091-41.763,93.091-93.091V116.364z"/>
<path style="fill:#004463;" d="M256,349.091c-23.121,0-45.475-6.784-64.652-19.631c-3.223-2.153-5.167-5.783-5.167-9.67v-40.518  c0-9.612,1.978-19.014,5.888-27.939c1.862-4.236,6.039-6.97,10.659-6.97l0,0c4.62,0,8.809,2.735,10.659,6.97  c7.436,16.977,24.157,27.939,42.612,27.939c25.67,0,46.545-20.876,46.545-46.545V116.364c0-25.67-20.876-46.545-46.545-46.545  c-25.67,0-46.545,20.876-46.545,46.545v75.846c0,3.875-1.943,7.517-5.167,9.67c-19.852,13.289-33.699,33.431-38.982,56.704  c-1.199,5.295-5.911,9.053-11.345,9.053c-5.434,0-10.147-3.759-11.345-9.053c-1.978-8.692-2.979-17.385-2.979-25.856V116.364  C139.636,52.201,191.837,0,256,0s116.364,52.201,116.364,116.364v116.364C372.364,296.89,320.163,349.091,256,349.091z   M209.455,313.344c14.115,8.18,30.092,12.474,46.545,12.474c51.328,0,93.091-41.763,93.091-93.091V116.364  c0-51.328-41.763-93.091-93.091-93.091s-93.091,41.763-93.091,93.091v93.091c6.551-8.751,14.371-16.582,23.273-23.261v-69.83  c0-38.505,31.313-69.818,69.818-69.818s69.818,31.313,69.818,69.818v116.364c0,38.505-31.313,69.818-69.818,69.818  c-17.513,0-33.978-6.563-46.545-17.839V313.344z"/>
<path style="fill:#CCD9E4;" d="M232.727,322.828c-8.122-2.095-15.953-5.236-23.273-9.484v-28.625  c6.761,6.063,14.697,10.612,23.273,13.661V322.828z"/>
<path style="fill:#AFC3D7;" d="M349.091,302.243v34.351c-7.145,6.412-14.918,12.09-23.273,16.931v-27.939  C334.639,318.941,342.47,311.087,349.091,302.243z"/>
<g>
</g>
<g>
</g>
<g>
</g>
<g>
</g>
<g>
</g>
<g>
</g>
<g>
</g>
<g>
</g>
<g>
</g>
<g>
</g>
<g>
</g>
<g>
</g>
<g>
</g>
<g>
</g>
<g>
</g>
</svg>
