<?xml version="1.0" encoding="iso-8859-1"?>
<!-- Generator: Adobe Illustrator 19.0.0, SVG Export Plug-In . SVG Version: 6.00 Build 0)  -->
<svg xmlns="http://www.w3.org/2000/svg" xmlns:xlink="http://www.w3.org/1999/xlink" version="1.1" id="Capa_1" x="0px" y="0px" viewBox="0 0 512 512" style="enable-background:new 0 0 512 512;" xml:space="preserve">
<path style="fill:#EEC8AD;" d="M214.947,450.874l28.986,6.447c24.308,5.399,49.257,8.134,74.135,8.134h80.454  c27.136,0,50.42-18.444,56.634-44.858l26.659-113.292c4.585-19.514,6.912-39.552,6.912-59.567v-15.011  c0-19.247-15.663-34.909-34.909-34.909H314.182c-3.735,0-7.249-1.792-9.437-4.841c-2.188-3.037-2.781-6.935-1.606-10.484  l25.705-77.126c5.713-17.129,8.611-34.956,8.611-53.004c0-16.035-13.056-29.091-29.091-29.091s-29.091,13.056-29.091,29.091  c0,14.569-5.446,27.718-15.337,37.609c-29.638,29.638-53.05,64.209-69.562,102.737c-7.377,17.233-24.273,28.381-43.043,28.381H128  v221.091h7.75C162.327,442.182,188.975,445.103,214.947,450.874z"/>
<path style="fill:#E1B597;" d="M477.091,206.673v6.156c0,20.049-2.327,40.087-6.924,59.567L443.52,385.687  c-6.214,26.415-29.498,44.858-56.634,44.858h-80.454c-24.89,0-49.839-2.735-74.147-8.134l-28.975-6.447  c-24.704-5.481-50.013-8.32-75.311-8.588v34.804h7.75c26.577,0,53.225,2.921,79.197,8.692l28.975,6.447  c24.308,5.399,49.257,8.134,74.147,8.134h80.454c27.136,0,50.42-18.444,56.634-44.858l26.647-113.292  c4.596-19.479,6.924-39.517,6.924-59.567v-15.011C488.727,222.452,484.177,213.062,477.091,206.673z"/>
<rect x="23.273" y="209.455" style="fill:#EBEEF7;" width="93.091" height="279.273"/>
<circle style="fill:#004463;" cx="69.818" cy="430.545" r="23.273"/>
<rect x="23.273" y="465.455" style="fill:#CCD9E4;" width="93.091" height="23.273"/>
<path style="fill:#E1B597;" d="M314.182,52.364c0,18.071-2.897,35.898-8.599,53.015l-25.705,77.126  c-1.199,3.549-0.593,7.447,1.594,10.484c2.188,3.037,5.702,4.829,9.437,4.829h23.273c-3.735,0-7.249-1.792-9.449-4.829  c-2.188-3.037-2.781-6.935-1.594-10.484l25.705-77.126c5.713-17.117,8.611-34.944,8.611-53.015  c0-16.035-13.044-29.091-29.091-29.091c-4.143,0-8.064,0.896-11.636,2.467C306.991,30.243,314.182,40.46,314.182,52.364z"/>
<path style="fill:#004463;" d="M453.818,174.545H330.321l20.608-61.812c6.505-19.514,9.798-39.82,9.798-60.369  C360.727,23.494,337.233,0,308.364,0S256,23.494,256,52.945c0,7.773-3.025,15.069-8.518,20.573  c-31.744,31.744-56.809,68.759-74.484,110.022c-3.724,8.681-12.23,14.278-21.667,14.278h-11.695c0-6.423-5.213-11.636-11.636-11.636  H11.636C5.213,186.182,0,191.395,0,197.818v302.545C0,506.787,5.213,512,11.636,512H128c6.423,0,11.636-5.213,11.636-11.636v-34.804  c23.599,0.268,47.209,2.909,70.26,8.029l28.986,6.447c25.961,5.772,52.608,8.692,79.185,8.692h80.454  c37.981,0,70.586-25.821,79.29-62.801l26.659-113.292c4.992-21.248,7.529-43.089,7.529-64.896v-15.011  C512,200.646,485.9,174.545,453.818,174.545z M116.364,488.727H23.273V209.455h93.091V488.727z M488.727,247.738  c0,20.015-2.327,40.052-6.912,59.567l-26.659,113.292c-6.214,26.415-29.498,44.858-56.634,44.858h-80.454  c-24.89,0-49.839-2.735-74.147-8.134l-28.986-6.447c-24.704-5.481-50.025-8.32-75.311-8.588V221.091h11.695  c18.758,0,35.654-11.148,43.043-28.381c16.512-38.528,39.913-73.1,69.562-102.737c9.902-9.891,15.348-23.04,15.348-37.609  c0-16.035,13.056-29.091,29.091-29.091s29.091,13.056,29.091,29.091c0,18.048-2.897,35.875-8.599,53.004l-25.705,77.126  c-1.187,3.549-0.582,7.447,1.606,10.484c2.176,3.049,5.69,4.841,9.425,4.841h139.636c19.247,0,34.909,15.663,34.909,34.909V247.738z  "/>
<g>
</g>
<g>
</g>
<g>
</g>
<g>
</g>
<g>
</g>
<g>
</g>
<g>
</g>
<g>
</g>
<g>
</g>
<g>
</g>
<g>
</g>
<g>
</g>
<g>
</g>
<g>
</g>
<g>
</g>
</svg>
