<?xml version="1.0" encoding="iso-8859-1"?>
<!-- Generator: Adobe Illustrator 19.0.0, SVG Export Plug-In . SVG Version: 6.00 Build 0)  -->
<svg xmlns="http://www.w3.org/2000/svg" xmlns:xlink="http://www.w3.org/1999/xlink" version="1.1" id="Capa_1" x="0px" y="0px" viewBox="0 0 512 512" style="enable-background:new 0 0 512 512;" xml:space="preserve">
<path style="fill:#ACD6F2;" d="M488.425,244.131C482.223,121.297,380.346,23.273,256,23.273  C127.674,23.273,23.273,127.674,23.273,256c0,124.346,98.025,226.223,220.858,232.425c-22.505-29.987-34.676-66.257-34.676-104.425  c0-96.244,78.301-174.545,174.545-174.545C422.167,209.455,458.438,221.626,488.425,244.131z"/>
<path style="fill:#004463;" d="M221.091,384H46.545c-6.423,0-11.636-5.213-11.636-11.636s5.213-11.636,11.636-11.636h174.545  c6.423,0,0,5.213,0,11.636C221.091,378.787,227.514,384,221.091,384z"/>
<path style="fill:#FFC95C;" d="M463.43,366.255c-2.048-9.181-5.644-17.862-10.694-25.809c-5.679-8.925-4.247-20.934,3.398-28.567  l1.932-1.932l-1.932,1.92c-7.657,7.645-19.665,9.065-28.579,3.398c-7.948-5.05-16.628-8.646-25.809-10.694  C391.459,302.278,384,292.771,384,281.972c0,10.799-7.459,20.294-17.734,22.586c-9.193,2.048-17.873,5.644-25.821,10.694  c-8.913,5.679-20.911,4.259-28.556-3.375l-1.943-1.955l1.943,1.943c7.633,7.622,9.065,19.642,3.386,28.567  c-5.05,7.948-8.646,16.628-10.694,25.809C302.289,376.529,292.783,384,281.972,384c10.81,0,20.305,7.471,22.586,17.745  c2.048,9.181,5.644,17.862,10.694,25.809c5.679,8.925,4.247,20.934-3.398,28.567l-1.932,1.932l1.932-1.92  c4.515-4.503,10.543-6.854,16.559-6.854c4.189,0,8.367,1.14,12.02,3.456c7.948,5.05,16.628,8.646,25.809,10.694  C376.541,465.722,384,475.229,384,486.028c0-10.799,7.459-20.294,17.734-22.586c9.193-2.048,17.873-5.644,25.821-10.694  c8.913-5.667,20.922-4.236,28.556,3.375l1.943,1.955l-1.943-1.943c-7.633-7.622-9.065-19.642-3.386-28.567  c5.05-7.948,8.646-16.628,10.694-25.809c2.292-10.287,11.799-17.757,22.61-17.757C475.217,384,465.711,376.529,463.43,366.255z   M384,442.182c-32.081,0-58.182-26.1-58.182-58.182s26.1-58.182,58.182-58.182s58.182,26.1,58.182,58.182  S416.081,442.182,384,442.182z"/>
<path style="fill:#004463;" d="M384,512c-12.835,0-23.273-10.438-23.273-23.273v-2.7c-11.357-2.502-22.54-7.145-32.768-13.649  l-1.536,2.129c-9.088,9.065-23.843,9.076-32.919,0.012c-9.076-9.076-9.076-23.843-0.012-32.919l1.943-1.943  c-6.307-9.856-10.938-21.039-13.568-32.861l-2.595,0.477C266.438,407.273,256,396.835,256,384c0-12.835,10.438-23.273,23.273-23.273  h2.7c2.502-11.357,7.145-22.54,13.649-32.768l-2.141-1.548c-9.065-9.076-9.065-23.843,0-32.908  c9.065-9.076,23.843-9.065,32.908-0.012l1.943,1.955c9.844-6.319,21.027-10.95,32.849-13.58l-0.454-2.595  C360.727,266.438,371.165,256,384,256c12.835,0,23.273,10.438,23.273,23.273v2.7c11.357,2.502,22.54,7.145,32.768,13.649  l1.536-2.129c9.076-9.076,23.843-9.088,32.919-0.012c9.076,9.076,9.076,23.843,0.012,32.919l-1.943,1.943  c6.307,9.856,10.938,21.039,13.568,32.861l2.595-0.477C501.562,360.727,512,371.165,512,384c0,12.835-10.438,23.273-23.273,23.273  h-2.7c-2.502,11.357-7.145,22.54-13.649,32.768l2.141,1.548c9.065,9.076,9.065,23.843,0,32.908  c-9.076,9.076-23.843,9.065-32.919,0.012l-1.943-1.955c-9.844,6.319-21.027,10.95-32.849,13.58l0.465,2.595  C407.273,501.562,396.835,512,384,512z M328.425,449.28c4.189,0,8.367,1.14,12.02,3.456c7.948,5.05,16.628,8.646,25.809,10.694  C376.541,465.722,384,475.229,384,486.028v2.7v-2.7c0-10.799,7.459-20.294,17.734-22.586c9.193-2.048,17.873-5.644,25.821-10.694  c8.913-5.667,20.922-4.236,28.556,3.375l1.943,1.955l-1.943-1.943c-7.633-7.622-9.065-19.642-3.386-28.567  c5.05-7.948,8.646-16.628,10.694-25.809c2.292-10.287,11.799-17.757,22.61-17.757h2.7h-2.7c-10.81,0-20.305-7.471-22.586-17.745  c-2.048-9.181-5.644-17.862-10.694-25.809c-5.679-8.925-4.247-20.934,3.398-28.567l1.932-1.932l-1.932,1.92  c-7.657,7.645-19.665,9.065-28.579,3.398c-7.948-5.05-16.628-8.646-25.809-10.694C391.459,302.278,384,292.771,384,281.972  c0,10.799-7.459,20.294-17.734,22.586c-9.193,2.048-17.873,5.644-25.821,10.694c-8.913,5.679-20.911,4.259-28.556-3.375  l-1.943-1.955l1.943,1.943c7.633,7.622,9.065,19.642,3.386,28.567c-5.05,7.948-8.646,16.628-10.694,25.809  C302.289,376.529,292.783,384,281.972,384h-2.7h2.7c10.81,0,20.305,7.471,22.586,17.745c2.048,9.181,5.644,17.862,10.694,25.809  c5.679,8.925,4.247,20.934-3.398,28.567l-1.932,1.932l1.932-1.92C316.381,451.631,322.42,449.28,328.425,449.28z M384,442.182  c-32.081,0-58.182-26.1-58.182-58.182s26.1-58.182,58.182-58.182s58.182,26.1,58.182,58.182S416.081,442.182,384,442.182z   M384,349.091c-19.247,0-34.909,15.663-34.909,34.909c0,19.247,15.663,34.909,34.909,34.909c19.247,0,34.909-15.663,34.909-34.909  C418.909,364.753,403.247,349.091,384,349.091z"/>
<g>
	<path style="fill:#70B6E4;" d="M441.681,219.415c16.919,5.935,32.617,14.383,46.697,24.925   c-3.537-71.331-39.296-134.063-92.916-174.336c29.207,38.889,46.72,87.063,46.72,139.45   C442.182,212.817,441.821,216.087,441.681,219.415z"/>
	<path style="fill:#70B6E4;" d="M219.415,441.681c-3.328,0.14-6.598,0.5-9.961,0.5c-52.387,0-100.561-17.513-139.45-46.732   c40.273,53.632,103.005,89.379,174.336,92.916C233.798,474.287,225.35,458.601,219.415,441.681z"/>
</g>
<path style="fill:#004463;" d="M256,0C114.839,0,0,114.839,0,256s114.839,256,256,256c3.398,0,6.761-0.221,10.112-0.454l3.875-0.244  c4.596-0.244,8.611-3.188,10.24-7.494c1.629-4.305,0.582-9.158-2.688-12.393C248.646,462.79,232.727,424.634,232.727,384  c0-83.409,67.863-151.273,151.273-151.273c40.634,0,78.79,15.919,107.415,44.812c3.235,3.27,8.122,4.305,12.393,2.688  c4.305-1.641,7.238-5.644,7.494-10.24l0.244-3.875C511.779,262.761,512,259.398,512,256C512,114.839,397.161,0,256,0z M450.188,128  h-73.181c-12.102-39.145-29.545-71.412-50.607-93.708C377.565,50.583,421.108,84.108,450.188,128z M352.535,128h-84.899V24.576  C302.604,31.779,333.556,70.993,352.535,128z M244.364,24.495V128h-84.876C178.513,71.599,209.431,31.802,244.364,24.495z   M23.75,244.364c1.652-33.35,10.287-64.861,24.588-93.091h79.907c-6.831,28.497-10.892,59.857-11.671,93.091H23.75z   M152.657,151.273h91.706v93.091H139.939C140.812,211.212,145.28,179.654,152.657,151.273z M185.46,34.269  C164.236,56.646,146.711,88.983,134.598,128H61.929C90.973,84.143,134.353,50.572,185.46,34.269z M23.75,267.636h92.823  c2.129,90.764,28.893,167.727,68.666,209.839C94.999,448.57,28.649,366.138,23.75,267.636z M243.27,487.18  c-55.436-12.719-100.399-107.078-103.343-219.543h104.436v11.974c-21.865,29.126-34.909,65.233-34.909,104.39  C209.455,421.655,221.347,457.425,243.27,487.18z M279.552,244.364h-11.916v-93.091h91.788c4.678,18.351,8.227,38.086,10.356,58.903  C336.116,212.911,305.129,225.222,279.552,244.364z M393.1,209.815c-2.013-20.62-5.388-40.145-9.786-58.543h80.279  c14.301,28.172,23.156,59.555,24.832,92.858C460.835,223.43,427.916,211.596,393.1,209.815z"/>
<g>
</g>
<g>
</g>
<g>
</g>
<g>
</g>
<g>
</g>
<g>
</g>
<g>
</g>
<g>
</g>
<g>
</g>
<g>
</g>
<g>
</g>
<g>
</g>
<g>
</g>
<g>
</g>
<g>
</g>
</svg>
