<?xml version="1.0" encoding="iso-8859-1"?>
<!-- Generator: Adobe Illustrator 19.0.0, SVG Export Plug-In . SVG Version: 6.00 Build 0)  -->
<svg xmlns="http://www.w3.org/2000/svg" xmlns:xlink="http://www.w3.org/1999/xlink" version="1.1" id="Capa_1" x="0px" y="0px" viewBox="0 0 512 512" style="enable-background:new 0 0 512 512;" xml:space="preserve">
<path style="fill:#D3E2EC;" d="M488.727,128H23.273v290.909c0,6.412,5.225,11.636,11.636,11.636h442.182  c6.412,0,11.636-5.225,11.636-11.636V128z"/>
<path style="fill:#AFC3D7;" d="M488.727,69.818c0-6.412-5.225-11.636-11.636-11.636H34.909c-6.412,0-11.636,5.225-11.636,11.636  v34.909h465.455V69.818z"/>
<g>
	<path style="fill:#004463;" d="M477.091,34.909H34.909C15.663,34.909,0,50.572,0,69.818v349.091   c0,19.247,15.663,34.909,34.909,34.909h442.182c19.247,0,34.909-15.663,34.909-34.909V69.818   C512,50.572,496.337,34.909,477.091,34.909z M23.273,69.818c0-6.412,5.225-11.636,11.636-11.636h442.182   c6.412,0,11.636,5.225,11.636,11.636v34.909H23.273V69.818z M488.727,418.909c0,6.412-5.225,11.636-11.636,11.636H34.909   c-6.412,0-11.636-5.225-11.636-11.636V128h465.455V418.909z"/>
	<circle style="fill:#004463;" cx="58.182" cy="81.455" r="11.636"/>
	<circle style="fill:#004463;" cx="104.727" cy="81.455" r="11.636"/>
	<circle style="fill:#004463;" cx="151.273" cy="81.455" r="11.636"/>
</g>
<g>
	<rect x="58.182" y="151.273" style="fill:#C3D6E4;" width="395.636" height="116.364"/>
	<rect x="58.182" y="290.909" style="fill:#C3D6E4;" width="174.545" height="116.364"/>
	<rect x="256" y="290.909" style="fill:#C3D6E4;" width="197.818" height="116.364"/>
</g>
<path style="fill:#EBEEF7;" d="M104.727,423.517v18.665c0,6.412,5.225,11.636,11.636,11.636h279.273  c6.412,0,11.636-5.225,11.636-11.636v-23.273c0-41.763-16.652-80.64-46.871-109.475c-30.208-28.823-69.935-43.636-111.732-41.623  C167.959,271.604,104.727,340.003,104.727,423.517z"/>
<path style="fill:#004463;" d="M395.636,477.091H116.364c-19.247,0-34.909-15.663-34.909-34.909v-18.665  c0-95.965,72.972-174.557,166.121-178.944l0,0c48.163-2.153,94.033,14.79,128.884,48.035  c34.886,33.257,54.086,78.115,54.086,126.301v23.273C430.545,461.428,414.883,477.091,395.636,477.091z M248.669,267.811  c-80.71,3.793-143.942,72.192-143.942,155.706v18.665c0,6.412,5.225,11.636,11.636,11.636h279.273  c6.412,0,11.636-5.225,11.636-11.636v-23.273c0-41.763-16.652-80.64-46.871-109.475  C330.193,280.611,290.467,265.798,248.669,267.811L248.669,267.811z M248.122,256.186h0.116H248.122z"/>
<circle style="fill:#3BB44A;" cx="139.636" cy="418.909" r="11.636"/>
<circle style="fill:#F16A56;" cx="372.364" cy="418.909" r="11.636"/>
<ellipse style="fill:#88C663;" cx="173.754" cy="336.633" rx="11.636" ry="11.636"/>
<ellipse style="fill:#F69348;" cx="338.27" cy="336.643" rx="11.636" ry="11.636"/>
<circle style="fill:#FFCA5B;" cx="256" cy="302.545" r="11.636"/>
<path style="fill:#EF4D4E;" d="M236.986,406.016l65.559-91.834l-24.436,110.057c-2.746,12.346-14.999,20.131-27.38,17.396  c-12.381-2.735-20.189-14.953-17.455-27.299C233.949,411.287,235.287,408.425,236.986,406.016z"/>
<circle style="fill:#C61C31;" cx="256" cy="418.909" r="11.636"/>
<g>
</g>
<g>
</g>
<g>
</g>
<g>
</g>
<g>
</g>
<g>
</g>
<g>
</g>
<g>
</g>
<g>
</g>
<g>
</g>
<g>
</g>
<g>
</g>
<g>
</g>
<g>
</g>
<g>
</g>
</svg>
