<?xml version="1.0" encoding="iso-8859-1"?>
<!-- Generator: Adobe Illustrator 19.0.0, SVG Export Plug-In . SVG Version: 6.00 Build 0)  -->
<svg xmlns="http://www.w3.org/2000/svg" xmlns:xlink="http://www.w3.org/1999/xlink" version="1.1" id="Capa_1" x="0px" y="0px" viewBox="0 0 511.998 511.998" style="enable-background:new 0 0 511.998 511.998;" xml:space="preserve">
<path style="fill:#ACD6F2;" d="M264.97,278.818c49.28-40.39,99.316-57.728,165.574-57.728c22.272,0,37.679,0.838,58.182,5.178  V58.181c0-6.412-5.225-11.636-11.636-11.636H81.453c-6.412,0-11.636,5.225-11.636,11.636v199.796  c24.774-9.169,50.735-13.684,76.602-13.684C187.937,244.293,229.234,255.964,264.97,278.818z"/>
<path style="fill:#8EC861;" d="M69.816,282.995v77.731c0,6.412,5.225,11.636,11.636,11.636h395.636  c6.412,0,11.636-5.225,11.636-11.636V250.111c-21.167-4.887-35.491-5.748-58.182-5.748c-63.244,0-110.255,17.28-157.172,57.798  c-4.026,3.479-9.903,3.782-14.278,0.721C203.832,264.226,131.943,256.825,69.816,282.995z"/>
<path style="fill:#AAD59A;" d="M270.741,314.518c4.34,3.049,10.228,2.758,14.278-0.721c46.313-39.983,92.73-68.631,154.752-69.364  c-2.956-0.047-5.993-0.07-9.228-0.07c-63.255,0-110.255,17.28-157.172,57.798c-4.049,3.491-9.937,3.77-14.278,0.721  c-55.261-38.668-127.162-46.045-189.277-19.887v15.092C131.675,276.479,218.808,278.19,270.741,314.518z"/>
<g>
	<path style="fill:#D3E2EC;" d="M24.365,165.619c-1.338,2.769-1.466,6.179-0.349,9.391l22.528,64.617v-84.224l-17.559,5.958   C26.471,162.21,25.086,164.153,24.365,165.619z"/>
	<path style="fill:#D3E2EC;" d="M134.922,465.035l204.172-69.399H100.862l21.481,61.568   C124.391,463.103,130.139,466.722,134.922,465.035z"/>
</g>
<circle style="fill:#FFC95C;" cx="209.453" cy="139.635" r="23.273"/>
<path style="fill:#004463;" d="M255.998,127.999h-1.652c-1.094-4.224-2.769-8.192-4.945-11.857l1.187-1.187  c4.55-4.55,4.55-11.904,0-16.454c-4.55-4.55-11.904-4.55-16.454,0l-1.187,1.187c-3.677-2.176-7.633-3.852-11.857-4.945V93.09  c0-6.423-5.213-11.636-11.636-11.636c-6.423,0-11.636,5.213-11.636,11.636v1.652c-4.224,1.094-8.192,2.769-11.857,4.945  l-1.187-1.187c-4.55-4.55-11.904-4.55-16.454,0c-4.55,4.55-4.55,11.904,0,16.454l1.187,1.187c-2.164,3.677-3.84,7.633-4.945,11.857  h-1.652c-6.423,0-11.636,5.213-11.636,11.636s5.213,11.636,11.636,11.636h1.652c1.094,4.224,2.769,8.192,4.945,11.857l-1.187,1.187  c-4.55,4.55-4.55,11.904,0,16.454c2.269,2.269,5.248,3.409,8.227,3.409c2.979,0,5.958-1.14,8.227-3.409l1.187-1.187  c3.677,2.164,7.633,3.84,11.857,4.945v1.652c0,6.423,5.213,11.636,11.636,11.636c6.423,0,11.636-5.213,11.636-11.636v-1.652  c4.224-1.094,8.192-2.769,11.857-4.945l1.187,1.187c2.269,2.269,5.248,3.409,8.227,3.409s5.958-1.14,8.227-3.409  c4.55-4.55,4.55-11.904,0-16.454l-1.187-1.187c2.164-3.677,3.84-7.633,4.945-11.857h1.652c6.423,0,11.636-5.213,11.636-11.636  S262.421,127.999,255.998,127.999z M209.453,162.908c-12.835,0-23.273-10.438-23.273-23.273s10.438-23.273,23.273-23.273  s23.273,10.438,23.273,23.273S222.287,162.908,209.453,162.908z"/>
<polygon style="fill:#C3D6E4;" points="270.637,418.908 339.105,395.635 100.862,395.635 108.984,418.908 "/>
<g>
	<path style="fill:#004463;" d="M395.634,174.544h-69.818c-6.423,0-11.636-5.213-11.636-11.636c0-6.423,5.213-11.636,11.636-11.636   h69.818c6.423,0,11.636,5.213,11.636,11.636C407.271,169.331,402.058,174.544,395.634,174.544z"/>
	<path style="fill:#004463;" d="M337.453,127.999h-46.545c-6.423,0-11.636-5.213-11.636-11.636s5.213-11.636,11.636-11.636h46.545   c6.423,0,11.636,5.213,11.636,11.636S343.876,127.999,337.453,127.999z"/>
	<path style="fill:#004463;" d="M477.089,23.272H81.453c-19.247,0-34.909,15.663-34.909,34.909v72.646l-25.053,8.495   c-7.889,2.688-14.301,8.413-18.048,16.116c-4.038,8.297-4.55,18.234-1.396,27.241l44.497,127.651v50.397   c0,17.385,12.812,31.732,29.475,34.362l24.343,69.748c5.05,14.592,18.316,23.889,32.14,23.889c3.316,0,6.668-0.535,9.937-1.664   l268.963-91.427h65.687c19.247,0,34.909-15.663,34.909-34.909V58.181C511.998,38.934,496.335,23.272,477.089,23.272z    M24.015,175.01c-1.117-3.2-0.989-6.621,0.349-9.391c0.721-1.466,2.106-3.409,4.62-4.271l17.559-5.946v84.224L24.015,175.01z    M134.922,465.035c-4.771,1.687-10.531-1.943-12.579-7.843l-21.481-61.556h238.231L134.922,465.035z M488.725,337.454v23.273   c0,6.412-5.225,11.636-11.636,11.636H84.478h-3.025c-6.412,0-11.636-5.225-11.636-11.636v-77.615   c62.138-26.17,134.004-18.897,189.289,19.77c0.035,0.023,0.175,0.128,0.209,0.151c8.332,5.562,16.151,12.753,23.715,19.712   c2.234,2.06,5.062,3.072,7.866,3.072c3.142,0,6.272-1.257,8.564-3.759c4.352-4.736,4.049-12.09-0.687-16.442   c-4.375-4.026-9.146-8.285-14.161-12.463c43.299-33.908,87.727-48.791,145.932-48.791c22.679,0,37.039,0.873,58.182,5.76V337.454z    M488.725,226.268c-20.503-4.34-35.91-5.178-58.182-5.178c-66.257,0-116.294,17.338-165.574,57.728   c-35.735-22.854-77.033-34.525-118.551-34.525c-25.868,0-51.828,4.527-76.602,13.684V58.181c0-6.412,5.225-11.636,11.636-11.636   h395.636c6.412,0,11.636,5.225,11.636,11.636V226.268z"/>
</g>
<g>
</g>
<g>
</g>
<g>
</g>
<g>
</g>
<g>
</g>
<g>
</g>
<g>
</g>
<g>
</g>
<g>
</g>
<g>
</g>
<g>
</g>
<g>
</g>
<g>
</g>
<g>
</g>
<g>
</g>
</svg>
