<?xml version="1.0" encoding="iso-8859-1"?>
<!-- Generator: Adobe Illustrator 19.0.0, SVG Export Plug-In . SVG Version: 6.00 Build 0)  -->
<svg xmlns="http://www.w3.org/2000/svg" xmlns:xlink="http://www.w3.org/1999/xlink" version="1.1" id="Capa_1" x="0px" y="0px" viewBox="0 0 512 512" style="enable-background:new 0 0 512 512;" xml:space="preserve">
<path style="fill:#EBEEF7;" d="M397.172,151.273H114.828c-27.357,0-51.293,19.433-56.937,46.196L28.369,337.734  c-3.386,16.047-5.097,32.512-5.097,48.931c0,24.204,19.677,43.881,43.881,43.881c18.048,0,34.036-10.822,40.739-27.578l23.796-59.52  c7.11-17.78,24.076-29.265,43.217-29.265h162.188c19.142,0,36.108,11.485,43.217,29.254l23.808,59.532  c6.703,16.745,22.691,27.578,40.727,27.578c24.204,0,43.881-19.677,43.881-43.881c0-16.419-1.711-32.884-5.097-48.943  l-29.533-140.253C448.465,170.705,424.518,151.273,397.172,151.273z"/>
<g>
	<path style="fill:#CCD9E4;" d="M483.631,337.722l-29.533-140.253c-4.655-22.109-21.865-39.273-43.101-44.556   c9.844,8.18,17.059,19.77,19.828,32.919l29.533,140.253c3.386,16.093,5.097,32.559,5.097,48.943   c0,24.204-19.677,43.881-43.881,43.881c-2.397,0-4.876-0.244-7.191-0.617c7.994,7.692,18.839,12.253,30.464,12.253   c24.204,0,43.881-19.677,43.881-43.881C488.727,370.281,487.017,353.815,483.631,337.722z"/>
	<path style="fill:#CCD9E4;" d="M313.821,302.545H151.633c-19.153,0-36.119,11.485-43.217,29.254l-23.808,59.532   c-6.714,16.756-22.703,27.578-40.727,27.578c-2.444,0-4.887-0.337-7.226-0.721c7.889,7.622,18.688,12.358,30.499,12.358   c18.036,0,34.025-10.822,40.727-27.578l23.82-59.532c7.098-17.769,24.064-29.254,43.206-29.254h162.188   c2.897,0,5.713,0.349,8.471,0.849C337.14,307.153,325.923,302.545,313.821,302.545z"/>
</g>
<g>
	<circle style="fill:#004463;" cx="325.818" cy="232.727" r="11.636"/>
	<circle style="fill:#004463;" cx="395.636" cy="232.727" r="11.636"/>
	<circle style="fill:#004463;" cx="360.727" cy="267.636" r="11.636"/>
	<circle style="fill:#004463;" cx="360.727" cy="197.818" r="11.636"/>
	<path style="fill:#004463;" d="M186.182,221.091h-23.273v-23.273c0-6.423-5.213-11.636-11.636-11.636   c-6.423,0-11.636,5.213-11.636,11.636v23.273h-23.273c-6.423,0-11.636,5.213-11.636,11.636s5.213,11.636,11.636,11.636h23.273   v23.273c0,6.423,5.213,11.636,11.636,11.636c6.423,0,11.636-5.213,11.636-11.636v-23.273h23.273   c6.423,0,11.636-5.213,11.636-11.636S192.605,221.091,186.182,221.091z"/>
	<path style="fill:#004463;" d="M506.403,332.94L476.87,192.675C468.992,155.194,435.468,128,397.172,128h-117.9   c0-6.423-5.213-11.636-11.636-11.636V93.091c0-6.412,5.225-11.636,11.636-11.636h34.909c6.423,0,11.636-5.213,11.636-11.636   s-5.213-11.636-11.636-11.636h-34.909c-19.247,0-34.909,15.663-34.909,34.909v23.273c-6.423,0-11.636,5.213-11.636,11.636h-117.9   c-38.295,0-71.82,27.194-79.709,64.675L5.597,332.94C1.885,350.557,0,368.64,0,386.665c0,37.027,30.127,67.153,67.153,67.153   c27.613,0,52.084-16.57,62.348-42.205l23.796-59.52c3.549-8.89,12.032-14.639,21.609-14.639h162.188   c9.577,0,18.06,5.748,21.609,14.627l23.808,59.532c10.252,25.635,34.723,42.205,62.336,42.205   c37.027,0,67.153-30.127,67.153-67.153C512,368.64,510.115,350.557,506.403,332.94z M444.847,430.545   c-18.048,0-34.036-10.822-40.727-27.578l-23.808-59.532c-7.11-17.769-24.076-29.254-43.217-29.254H174.906   c-19.142,0-36.108,11.485-43.217,29.265l-23.808,59.52c-6.703,16.756-22.691,27.578-40.727,27.578   c-24.204,0-43.881-19.677-43.881-43.881c0-16.419,1.711-32.884,5.097-48.943l29.533-140.253   c5.632-26.764,29.58-46.196,56.925-46.196h282.345c27.357,0,51.293,19.433,56.937,46.196l29.533,140.265   c3.375,16.047,5.085,32.512,5.085,48.931C488.727,410.868,469.05,430.545,444.847,430.545z"/>
</g>
<circle style="fill:#AFC3D7;" cx="325.818" cy="325.818" r="11.636"/>
<path style="fill:#004463;" d="M325.818,360.727c-19.247,0-34.909-15.663-34.909-34.909c0-19.247,15.663-34.909,34.909-34.909  c19.247,0,34.909,15.663,34.909,34.909C360.727,345.065,345.065,360.727,325.818,360.727z M325.818,314.182  c-6.412,0-11.636,5.225-11.636,11.636c0,6.412,5.225,11.636,11.636,11.636c6.412,0,11.636-5.225,11.636-11.636  C337.455,319.407,332.23,314.182,325.818,314.182z"/>
<circle style="fill:#AFC3D7;" cx="186.182" cy="325.818" r="11.636"/>
<path style="fill:#004463;" d="M186.182,360.727c-19.247,0-34.909-15.663-34.909-34.909c0-19.247,15.663-34.909,34.909-34.909  s34.909,15.663,34.909,34.909C221.091,345.065,205.428,360.727,186.182,360.727z M186.182,314.182  c-6.412,0-11.636,5.225-11.636,11.636c0,6.412,5.225,11.636,11.636,11.636c6.412,0,11.636-5.225,11.636-11.636  C197.818,319.407,192.593,314.182,186.182,314.182z"/>
<g>
</g>
<g>
</g>
<g>
</g>
<g>
</g>
<g>
</g>
<g>
</g>
<g>
</g>
<g>
</g>
<g>
</g>
<g>
</g>
<g>
</g>
<g>
</g>
<g>
</g>
<g>
</g>
<g>
</g>
</svg>
