<?xml version="1.0" encoding="iso-8859-1"?>
<!-- Generator: Adobe Illustrator 19.0.0, SVG Export Plug-In . SVG Version: 6.00 Build 0)  -->
<svg xmlns="http://www.w3.org/2000/svg" xmlns:xlink="http://www.w3.org/1999/xlink" version="1.1" id="Capa_1" x="0px" y="0px" viewBox="0 0 512 512" style="enable-background:new 0 0 512 512;" xml:space="preserve">
<path style="fill:#EBEEF7;" d="M116.364,197.818v27.264c0,12.346,4.899,24.18,13.638,32.908l77.463,77.463  c8.727,8.727,13.638,20.573,13.638,32.908v132.003l69.818-23.273V368.372c0-12.346,4.899-24.18,13.638-32.908l77.463-77.463  c8.727-8.727,13.638-20.573,13.638-32.908v-27.276H116.364z"/>
<path style="fill:#CCD9E4;" d="M349.091,209.455v10.042c0,8.471-3.363,16.605-9.356,22.586l-63.279,63.279  C263.354,318.464,256,336.221,256,354.735v121.728l23.273-7.761V368.372c0-15.43,6.132-30.243,17.047-41.146l77.452-77.452  c6.551-6.551,10.228-15.43,10.228-24.692v-15.628H349.091z"/>
<circle style="fill:#FFC95C;" cx="186.182" cy="93.091" r="23.273"/>
<path style="fill:#004463;" d="M186.182,139.636c-25.67,0-46.545-20.876-46.545-46.545s20.876-46.545,46.545-46.545  s46.545,20.876,46.545,46.545S211.852,139.636,186.182,139.636z M186.182,69.818c-12.835,0-23.273,10.438-23.273,23.273  s10.438,23.273,23.273,23.273c12.835,0,23.273-10.438,23.273-23.273S199.017,69.818,186.182,69.818z"/>
<circle style="fill:#FFC95C;" cx="302.545" cy="46.545" r="23.273"/>
<path style="fill:#004463;" d="M302.545,93.091c-25.67,0-46.545-20.876-46.545-46.545S276.876,0,302.545,0  c25.67,0,46.545,20.876,46.545,46.545S328.215,93.091,302.545,93.091z M302.545,23.273c-12.835,0-23.273,10.438-23.273,23.273  s10.438,23.273,23.273,23.273c12.835,0,23.273-10.438,23.273-23.273S315.38,23.273,302.545,23.273z"/>
<circle style="fill:#FFC95C;" cx="290.909" cy="162.909" r="23.273"/>
<g>
	<path style="fill:#004463;" d="M290.909,209.455c-25.67,0-46.545-20.876-46.545-46.545s20.876-46.545,46.545-46.545   c25.67,0,46.545,20.876,46.545,46.545C337.455,188.579,316.579,209.455,290.909,209.455z M290.909,139.636   c-12.835,0-23.273,10.438-23.273,23.273c0,12.835,10.438,23.273,23.273,23.273c12.835,0,23.273-10.438,23.273-23.273   C314.182,150.074,303.744,139.636,290.909,139.636z"/>
	<path style="fill:#004463;" d="M395.636,186.182H116.364c-6.423,0-11.636,5.213-11.636,11.636v27.264   c0,15.535,6.051,30.15,17.036,41.135l77.463,77.463c6.505,6.505,10.228,15.5,10.228,24.692v131.991   c0,3.735,1.792,7.249,4.841,9.437c2.001,1.455,4.387,2.199,6.796,2.199c1.233,0,2.479-0.198,3.677-0.593l69.818-23.273   c4.759-1.594,7.959-6.028,7.959-11.043V368.372c0-9.193,3.724-18.176,10.217-24.681l77.463-77.463   c10.996-10.996,17.047-25.6,17.047-41.146v-27.264C407.273,191.395,402.06,186.182,395.636,186.182z M296.308,327.238   c-10.985,10.985-17.036,25.588-17.036,41.135v100.34l-46.545,15.511V368.372c0-15.535-6.051-30.15-17.036-41.135l-77.463-77.463   c-6.505-6.505-10.228-15.5-10.228-24.692v-15.628h256v15.628c0,2.583-0.361,5.132-0.931,7.645H186.182   c-6.423,0-11.636,5.213-11.636,11.636c0,6.423,5.213,11.636,11.636,11.636h181.364L296.308,327.238z"/>
</g>
<g>
</g>
<g>
</g>
<g>
</g>
<g>
</g>
<g>
</g>
<g>
</g>
<g>
</g>
<g>
</g>
<g>
</g>
<g>
</g>
<g>
</g>
<g>
</g>
<g>
</g>
<g>
</g>
<g>
</g>
</svg>
