<?xml version="1.0" encoding="iso-8859-1"?>
<!-- Generator: Adobe Illustrator 19.0.0, SVG Export Plug-In . SVG Version: 6.00 Build 0)  -->
<svg xmlns="http://www.w3.org/2000/svg" xmlns:xlink="http://www.w3.org/1999/xlink" version="1.1" id="Capa_1" x="0px" y="0px" viewBox="0 0 512 512" style="enable-background:new 0 0 512 512;" xml:space="preserve">
<path style="fill:#EBEEF7;" d="M488.727,128H23.273v314.182c0,6.412,5.225,11.636,11.636,11.636h442.182  c6.412,0,11.636-5.225,11.636-11.636V128z"/>
<path style="fill:#AFC3D7;" d="M488.727,69.818c0-6.412-5.225-11.636-11.636-11.636H34.909c-6.412,0-11.636,5.225-11.636,11.636  v34.909h465.455V69.818z"/>
<g>
	<path style="fill:#004463;" d="M477.091,34.909H34.909C15.663,34.909,0,50.572,0,69.818v372.364   c0,19.247,15.663,34.909,34.909,34.909h442.182c19.247,0,34.909-15.663,34.909-34.909V69.818   C512,50.572,496.337,34.909,477.091,34.909z M23.273,69.818c0-6.412,5.225-11.636,11.636-11.636h442.182   c6.412,0,11.636,5.225,11.636,11.636v34.909H23.273V69.818z M488.727,442.182c0,6.412-5.225,11.636-11.636,11.636H34.909   c-6.412,0-11.636-5.225-11.636-11.636V128h465.455V442.182z"/>
	<circle style="fill:#004463;" cx="58.182" cy="81.455" r="11.636"/>
	<circle style="fill:#004463;" cx="104.727" cy="81.455" r="11.636"/>
	<circle style="fill:#004463;" cx="151.273" cy="81.455" r="11.636"/>
</g>
<path style="fill:#FFFFFF;" d="M256,221.091c-57.588,0-111.057,25.332-148.049,69.818c36.992,44.486,90.461,69.818,148.049,69.818  s111.057-25.332,148.049-69.818C367.057,246.423,313.588,221.091,256,221.091z"/>
<path style="fill:#004463;" d="M256,384c-67.898,0-130.653-31.36-172.172-86.063c-3.153-4.154-3.153-9.914,0-14.068  c41.519-54.691,104.273-86.051,172.172-86.051s130.653,31.36,172.172,86.063c3.153,4.154,3.153,9.914,0,14.068  C386.653,352.64,323.898,384,256,384z M107.951,290.909c36.992,44.486,90.461,69.818,148.049,69.818s111.057-25.332,148.049-69.818  c-36.992-44.486-90.461-69.818-148.049-69.818S144.943,246.423,107.951,290.909z"/>
<circle style="fill:#70B6E4;" cx="256" cy="290.909" r="46.545"/>
<g>
	<path style="fill:#004463;" d="M256,360.727c-38.505,0-69.818-31.313-69.818-69.818s31.313-69.818,69.818-69.818   s69.818,31.313,69.818,69.818S294.505,360.727,256,360.727z M256,244.364c-25.67,0-46.545,20.876-46.545,46.545   c0,25.67,20.876,46.545,46.545,46.545c25.67,0,46.545-20.876,46.545-46.545C302.545,265.239,281.67,244.364,256,244.364z"/>
	<circle style="fill:#004463;" cx="256" cy="290.909" r="23.273"/>
</g>
<g>
</g>
<g>
</g>
<g>
</g>
<g>
</g>
<g>
</g>
<g>
</g>
<g>
</g>
<g>
</g>
<g>
</g>
<g>
</g>
<g>
</g>
<g>
</g>
<g>
</g>
<g>
</g>
<g>
</g>
</svg>
