<?xml version="1.0" encoding="iso-8859-1"?>
<!-- Generator: Adobe Illustrator 19.0.0, SVG Export Plug-In . SVG Version: 6.00 Build 0)  -->
<svg xmlns="http://www.w3.org/2000/svg" xmlns:xlink="http://www.w3.org/1999/xlink" version="1.1" id="Capa_1" x="0px" y="0px" viewBox="0 0 512 512" style="enable-background:new 0 0 512 512;" xml:space="preserve">
<path style="fill:#FFC95C;" d="M292.922,368.687c-21.376,17.606-52.468,17.606-73.879-0.023L23.273,206.848v270.243  c0,4.166,2.188,7.936,5.865,10.077c1.722,1.012,3.759,1.559,5.772,1.559h442.182c2.013,0,4.049-0.547,5.76-1.548  c3.689-2.153,5.876-5.923,5.876-10.089V206.848L292.922,368.687z"/>
<path style="fill:#F4B344;" d="M465.455,226.095v230.33c0,4.166-2.188,7.948-5.888,10.089c-1.699,1.001-3.735,1.548-5.748,1.548  H23.273v9.03c0,4.166,2.188,7.948,5.876,10.089c1.699,1.001,3.747,1.548,5.76,1.548h442.182c2.013,0,4.061-0.547,5.748-1.548  c3.7-2.141,5.888-5.923,5.888-10.089V206.848L465.455,226.095z"/>
<g>
	<path style="fill:#F09820;" d="M29.009,181.411l64.081,52.911v-95.267l-53.504,31.872   C35.398,173.545,31.756,177.164,29.009,181.411z"/>
	<path style="fill:#F09820;" d="M418.909,140.102v94.301l63.965-52.899c-2.793-4.748-5.888-7.703-10.705-10.729L418.909,140.102z"/>
</g>
<path style="fill:#EBEEF7;" d="M278.167,350.697l117.469-97.047V34.909c0-6.412-5.225-11.636-11.636-11.636H128  c-6.412,0-11.636,5.225-11.636,11.636v218.647l117.492,97.152C246.679,361.263,265.321,361.251,278.167,350.697z"/>
<path style="fill:#C3D6E4;" d="M233.856,327.436l-117.492-73.879l117.492,97.152c12.812,10.554,31.453,10.566,44.311,0  l117.469-97.059c0,0-89.344,53.492-117.481,73.775C264.657,337.164,246.656,337.99,233.856,327.436z"/>
<polygon style="fill:#E68724;" points="442.182,153.507 418.909,140.102 418.909,234.403 442.182,215.156 "/>
<g>
	<path style="fill:#C87629;" d="M407.273,453.818c-19.247,0-34.909-15.663-34.909-34.909c0-19.247,15.663-34.909,34.909-34.909   c19.247,0,34.909,15.663,34.909,34.909C442.182,438.156,426.519,453.818,407.273,453.818z M407.273,407.273   c-6.412,0-11.636,5.225-11.636,11.636c0,6.412,5.225,11.636,11.636,11.636s11.636-5.225,11.636-11.636   C418.909,412.497,413.684,407.273,407.273,407.273z"/>
	<path style="fill:#C87629;" d="M349.091,418.909h-58.182c-6.423,0-11.636-5.213-11.636-11.636s5.213-11.636,11.636-11.636h58.182   c6.423,0,11.636,5.213,11.636,11.636S355.514,418.909,349.091,418.909z"/>
	<path style="fill:#C87629;" d="M349.091,453.818h-81.455c-6.423,0-11.636-5.213-11.636-11.636s5.213-11.636,11.636-11.636h81.455   c6.423,0,11.636,5.213,11.636,11.636S355.514,453.818,349.091,453.818z"/>
</g>
<g>
	<path style="fill:#004463;" d="M508.276,180.282c-4.34-11.974-12.742-22.284-24.099-29.428l-65.268-37.609V34.909   C418.909,15.663,403.247,0,384,0H128c-19.247,0-34.909,15.663-34.909,34.909v77.056l-65.617,39.087   c-10.985,6.854-19.479,17.338-23.878,29.545C1.21,186.764,0,193.455,0,200.495v276.596c0,12.544,6.505,23.82,17.396,30.173   C22.679,510.359,28.742,512,34.909,512h442.182c6.167,0,12.23-1.641,17.501-4.724C505.495,500.911,512,489.635,512,477.091V200.495   C512,193.327,510.755,186.531,508.276,180.282z M472.169,170.775c4.399,2.769,7.971,6.505,10.705,10.729l-63.965,52.899v-94.301   L472.169,170.775z M116.364,34.909c0-6.412,5.225-11.636,11.636-11.636h256c6.412,0,11.636,5.225,11.636,11.636v218.74   l-117.469,97.047c-12.847,10.554-31.488,10.566-44.311,0l-117.492-97.14V34.909z M39.587,170.927l53.504-31.872v95.279   l-64.081-52.922C31.756,177.164,35.398,173.545,39.587,170.927z M488.727,477.091c0,4.166-2.188,7.936-5.876,10.089   c-1.711,1.001-3.747,1.548-5.76,1.548H34.909c-2.013,0-4.049-0.547-5.772-1.559c-3.677-2.141-5.865-5.911-5.865-10.077V206.848   l195.782,161.815c21.399,17.629,52.492,17.629,73.879,0.023l195.793-161.839V477.091z"/>
	<path style="fill:#004463;" d="M360.727,81.455h-128c-6.423,0-11.636-5.213-11.636-11.636s5.213-11.636,11.636-11.636h128   c6.423,0,11.636,5.213,11.636,11.636S367.151,81.455,360.727,81.455z"/>
	<path style="fill:#004463;" d="M325.818,174.545H151.273c-6.423,0-11.636-5.213-11.636-11.636c0-6.423,5.213-11.636,11.636-11.636   h174.545c6.423,0,11.636,5.213,11.636,11.636C337.455,169.332,332.241,174.545,325.818,174.545z"/>
	<path style="fill:#004463;" d="M279.273,221.091h-128c-6.423,0-11.636-5.213-11.636-11.636c0-6.423,5.213-11.636,11.636-11.636h128   c6.423,0,11.636,5.213,11.636,11.636C290.909,215.878,285.696,221.091,279.273,221.091z"/>
	<path style="fill:#004463;" d="M302.545,128h-69.818c-6.423,0-11.636-5.213-11.636-11.636s5.213-11.636,11.636-11.636h69.818   c6.423,0,11.636,5.213,11.636,11.636S308.969,128,302.545,128z"/>
</g>
<rect x="162.909" y="81.455" style="fill:#FFC95C;" width="23.273" height="23.273"/>
<path style="fill:#004463;" d="M197.818,128h-46.545c-6.423,0-11.636-5.213-11.636-11.636V69.818  c0-6.423,5.213-11.636,11.636-11.636h46.545c6.423,0,11.636,5.213,11.636,11.636v46.545C209.455,122.787,204.241,128,197.818,128z   M162.909,104.727h23.273V81.455h-23.273V104.727z"/>
<g>
</g>
<g>
</g>
<g>
</g>
<g>
</g>
<g>
</g>
<g>
</g>
<g>
</g>
<g>
</g>
<g>
</g>
<g>
</g>
<g>
</g>
<g>
</g>
<g>
</g>
<g>
</g>
<g>
</g>
</svg>
