<?xml version="1.0" encoding="iso-8859-1"?>
<!-- Generator: Adobe Illustrator 19.0.0, SVG Export Plug-In . SVG Version: 6.00 Build 0)  -->
<svg xmlns="http://www.w3.org/2000/svg" xmlns:xlink="http://www.w3.org/1999/xlink" version="1.1" id="Capa_1" x="0px" y="0px" viewBox="0 0 512 512" style="enable-background:new 0 0 512 512;" xml:space="preserve">
<g>
	<path style="fill:#FFC95C;" d="M34.909,430.545h442.182c6.412,0,11.636-5.225,11.636-11.636v-23.273   c0-6.412-5.225-11.636-11.636-11.636H34.909c-6.412,0-11.636,5.225-11.636,11.636v23.273   C23.273,425.321,28.497,430.545,34.909,430.545z"/>
	<path style="fill:#FFC95C;" d="M161.897,267.636c-17.792,0-34.525-9.472-43.683-24.727l-54.982-91.636h-5.05v80.512   c0,43.043,3.34,86.365,9.914,128.943h375.808c6.575-42.589,9.914-85.911,9.914-128.943v-80.512h-5.05l-54.982,91.636   c-9.146,15.255-25.891,24.727-43.683,24.727c-19.421,0-36.876-10.787-45.568-28.16l-44.09-88.204h-8.902l-44.102,88.204   C198.772,256.849,181.318,267.636,161.897,267.636z"/>
</g>
<g>
	<path style="fill:#F4B344;" d="M326.842,267.636c3.956,0,7.855-0.535,11.636-1.443c-14.557-3.386-27.031-12.916-33.932-26.717   l-44.102-88.204H256l25.274,88.204C289.955,256.849,307.421,267.636,326.842,267.636z"/>
	<path style="fill:#F4B344;" d="M138.612,267.636c3.991,0,7.866-0.559,11.636-1.443c-13.207-3.142-24.925-11.427-32.047-23.284   l-54.97-91.636h-5.05l36.748,91.636C104.099,258.164,120.844,267.636,138.612,267.636z"/>
	<path style="fill:#F4B344;" d="M449.373,151.273L449.373,151.273c-12.183,24.367-18.979,51.06-19.921,78.278   c-0.5,14.58-1.175,29.836-2.025,39.703c-2.746,31.895-29.137,56.564-61.137,56.564H97.676c-18.385,0-32.442,16.396-29.626,34.56   l0.058,0.349h375.796c6.586-42.554,9.914-85.888,9.914-128.943v-80.512H449.373z"/>
</g>
<g>
	<circle style="fill:#EBEEF7;" cx="256" cy="104.727" r="23.273"/>
	<circle style="fill:#EBEEF7;" cx="58.182" cy="104.727" r="23.273"/>
	<circle style="fill:#EBEEF7;" cx="453.818" cy="104.727" r="23.273"/>
</g>
<g>
	<path style="fill:#CCD9E4;" d="M463.36,83.549c1.315,2.921,2.095,6.132,2.095,9.542c0,12.858-10.415,23.273-23.273,23.273   c-3.409,0-6.621-0.78-9.542-2.095c3.642,8.087,11.741,13.731,21.178,13.731c12.858,0,23.273-10.415,23.273-23.273   C477.091,95.279,471.447,87.191,463.36,83.549z"/>
	<path style="fill:#CCD9E4;" d="M265.542,83.549c1.315,2.921,2.095,6.132,2.095,9.542c0,12.858-10.415,23.273-23.273,23.273   c-3.409,0-6.621-0.78-9.542-2.095C238.464,122.356,246.563,128,256,128c12.858,0,23.273-10.415,23.273-23.273   C279.273,95.279,273.629,87.191,265.542,83.549z"/>
	<path style="fill:#CCD9E4;" d="M67.724,83.549c1.315,2.921,2.095,6.132,2.095,9.542c0,12.858-10.415,23.273-23.273,23.273   c-3.409,0-6.621-0.78-9.542-2.095C40.646,122.356,48.745,128,58.182,128c12.858,0,23.273-10.415,23.273-23.273   C81.455,95.279,75.811,87.191,67.724,83.549z"/>
</g>
<path style="fill:#F4B344;" d="M477.091,384h-23.273v11.636c0,12.858-10.415,23.273-23.273,23.273H23.273  c0,6.412,5.213,11.636,11.636,11.636h442.182c6.423,0,11.636-5.213,11.636-11.636v-23.273C488.727,389.213,483.514,384,477.091,384z  "/>
<path style="fill:#EF4C4E;" d="M186.612,229.073l26.473-52.864c-34.816,2.746-67.817,8.809-97.024,17.839l22.179,36.876  c4.957,8.297,14.01,13.44,23.657,13.44C172.463,244.364,181.935,238.511,186.612,229.073z"/>
<path style="fill:#DB3440;" d="M186.612,205.801c-5.12,10.31-15.953,16.349-27.683,15.139c-8.995-0.919-16.768-6.772-21.423-14.511  l-9.542-15.849c-4.015,1.094-8.029,2.257-11.916,3.468l21.446,35.654c5.143,8.774,12.428,13.591,21.423,14.511  c11.729,1.21,22.575-4.829,27.683-15.139l26.473-52.864c-0.047,0-0.081,0.012-0.128,0.012c-9.332,0.605-17.769,5.644-20.922,14.452  L186.612,205.801z"/>
<path style="fill:#EF4C4E;" d="M298.915,176.198l26.449,52.829c4.701,9.484,14.173,15.337,24.739,15.337  c9.635,0,18.688-5.143,23.645-13.417l22.202-36.899C366.732,185.007,333.731,178.944,298.915,176.198z"/>
<path style="fill:#DB3440;" d="M325.388,205.801c5.12,10.31,15.953,16.349,27.683,15.139c8.995-0.919,16.768-6.772,21.423-14.511  l9.53-15.849c4.015,1.094,8.041,2.269,11.916,3.468l-21.446,35.654c-4.55,8.483-12.428,13.591-21.423,14.511  c-11.729,1.21-22.575-4.829-27.683-15.139l-26.473-52.864c0.047,0,0.081,0.012,0.128,0.012c9.332,0.605,17.769,5.644,20.922,14.452  L325.388,205.801z"/>
<path style="fill:#004463;" d="M477.091,360.727h-9.821c6.412-42.624,9.821-85.911,9.821-128.943v-86.993  c13.847-8.076,23.273-22.924,23.273-40.064c0-25.67-20.876-46.545-46.545-46.545s-46.545,20.876-46.545,46.545  c0,15.604,7.785,29.359,19.596,37.807l-18.641,31.069c-35.991-11.729-77.568-19.072-121.309-21.434l-4.573-9.146  c12.183-8.401,20.201-22.412,20.201-38.295c0-25.67-20.876-46.545-46.545-46.545c-25.67,0-46.545,20.876-46.545,46.545  c0,15.884,8.017,29.894,20.201,38.307l-4.573,9.146c-43.741,2.362-85.318,9.705-121.309,21.434l-18.641-31.069  c11.811-8.46,19.596-22.214,19.596-37.818c0-25.67-20.876-46.545-46.545-46.545s-46.545,20.876-46.545,46.545  c0,17.152,9.425,32,23.273,40.076v86.982c0,43.043,3.421,86.319,9.821,128.943h-9.821C15.663,360.727,0,376.39,0,395.636v23.273  c0,19.247,15.663,34.909,34.909,34.909h442.182c19.247,0,34.909-15.663,34.909-34.909v-23.273  C512,376.39,496.337,360.727,477.091,360.727z M453.818,81.455c12.835,0,23.273,10.438,23.273,23.273S466.653,128,453.818,128  c-12.835,0-23.273-10.438-23.273-23.273S440.983,81.455,453.818,81.455z M395.939,194.036v0.047l-22.109,36.852  c-4.969,8.285-14.057,13.428-23.727,13.428c-10.543,0-20.026-5.853-24.739-15.29l-26.426-52.864  C333.743,178.944,366.743,185.007,395.939,194.036z M256,81.455c12.835,0,23.273,10.438,23.273,23.273S268.835,128,256,128  c-12.835,0-23.273-10.438-23.273-23.273S243.165,81.455,256,81.455z M116.061,194.036c29.207-9.03,62.208-15.092,97.012-17.839  l-26.426,52.864c-4.724,9.449-14.208,15.302-24.751,15.302c-9.67,0-18.758-5.143-23.727-13.428l-22.109-36.852L116.061,194.036  L116.061,194.036z M58.182,81.455c12.835,0,23.273,10.438,23.273,23.273S71.017,128,58.182,128s-23.273-10.438-23.273-23.273  S45.347,81.455,58.182,81.455z M63.232,151.273l54.982,91.636c9.146,15.255,25.891,24.727,43.683,24.727  c19.421,0,36.876-10.787,45.568-28.16l44.102-88.204h8.902l44.102,88.204c8.692,17.373,26.147,28.16,45.568,28.16  c17.792,0,34.525-9.472,43.683-24.727l54.947-91.636h5.05v80.512c0,43.031-3.34,86.353-9.914,128.943H68.096  c-6.575-42.577-9.914-85.9-9.914-128.943v-80.512H63.232z M488.727,418.909c0,6.412-5.225,11.636-11.636,11.636H34.909  c-6.412,0-11.636-5.225-11.636-11.636v-23.273c0-6.412,5.225-11.636,11.636-11.636h442.182c6.412,0,11.636,5.225,11.636,11.636  V418.909z"/>
<g>
</g>
<g>
</g>
<g>
</g>
<g>
</g>
<g>
</g>
<g>
</g>
<g>
</g>
<g>
</g>
<g>
</g>
<g>
</g>
<g>
</g>
<g>
</g>
<g>
</g>
<g>
</g>
<g>
</g>
</svg>
