<?xml version="1.0" encoding="iso-8859-1"?>
<!-- Generator: Adobe Illustrator 19.0.0, SVG Export Plug-In . SVG Version: 6.00 Build 0)  -->
<svg xmlns="http://www.w3.org/2000/svg" xmlns:xlink="http://www.w3.org/1999/xlink" version="1.1" id="Capa_1" x="0px" y="0px" viewBox="0 0 512 512" style="enable-background:new 0 0 512 512;" xml:space="preserve">
<circle style="fill:#EBEEF7;" cx="232.727" cy="279.273" r="58.182"/>
<circle style="fill:#8EC861;" cx="58.182" cy="453.818" r="46.545"/>
<circle style="fill:#EF4C4E;" cx="453.818" cy="279.273" r="34.909"/>
<circle style="fill:#ACD6F2;" cx="232.727" cy="46.545" r="23.273"/>
<circle style="fill:#FFC95C;" cx="69.818" cy="279.273" r="23.273"/>
<circle style="fill:#70B6E4;" cx="360.727" cy="407.273" r="23.273"/>
<path style="fill:#004463;" d="M453.818,221.091c-28.09,0-51.596,20.026-57.007,46.545h-83.561  c-5.132-35.596-33.292-63.767-68.887-68.887V91.439c20.015-5.201,34.909-23.273,34.909-44.893C279.273,20.876,258.397,0,232.727,0  s-46.545,20.876-46.545,46.545c0,21.62,14.895,39.692,34.909,44.893v107.311c-35.596,5.132-63.767,33.292-68.887,68.887h-37.492  c-5.201-20.015-23.273-34.909-44.893-34.909c-25.67,0-46.545,20.876-46.545,46.545s20.876,46.545,46.545,46.545  c21.62,0,39.692-14.895,44.893-34.909h37.492c1.978,13.754,7.459,26.368,15.418,37.015l-77.405,77.405  c-9.204-6.097-20.201-9.693-32.035-9.693C26.1,395.636,0,421.737,0,453.818S26.1,512,58.182,512s58.182-26.1,58.182-58.182  c0-11.834-3.596-22.831-9.693-32.035l77.347-77.347c13.591,10.205,30.429,16.291,48.71,16.291s35.119-6.086,48.71-16.291  l39.343,39.343c-4.096,6.924-6.598,14.883-6.598,23.494c0,25.67,20.876,46.545,46.545,46.545s46.545-20.876,46.545-46.545  s-20.876-46.545-46.545-46.545c-8.611,0-16.57,2.502-23.494,6.598l-39.401-39.401c7.959-10.647,13.44-23.261,15.418-37.015h83.561  c5.411,26.519,28.905,46.545,57.007,46.545c32.081,0,58.182-26.1,58.182-58.182S485.9,221.091,453.818,221.091z M69.818,302.545  c-12.835,0-23.273-10.438-23.273-23.273c0-12.835,10.438-23.273,23.273-23.273s23.273,10.438,23.273,23.273  C93.091,292.108,82.653,302.545,69.818,302.545z M360.727,384C373.562,384,384,394.438,384,407.273  c0,12.835-10.438,23.273-23.273,23.273c-12.835,0-23.273-10.438-23.273-23.273C337.455,394.438,347.892,384,360.727,384z   M209.455,46.545c0-12.835,10.438-23.273,23.273-23.273S256,33.711,256,46.545s-10.438,23.273-23.273,23.273  S209.455,59.38,209.455,46.545z M58.182,488.727c-19.247,0-34.909-15.663-34.909-34.909c0-19.247,15.663-34.909,34.909-34.909  s34.909,15.663,34.909,34.909C93.091,473.065,77.428,488.727,58.182,488.727z M232.727,337.455c-32.081,0-58.182-26.1-58.182-58.182  s26.1-58.182,58.182-58.182s58.182,26.1,58.182,58.182S264.809,337.455,232.727,337.455z M453.818,314.182  c-19.247,0-34.909-15.663-34.909-34.909c0-19.247,15.663-34.909,34.909-34.909c19.247,0,34.909,15.663,34.909,34.909  C488.727,298.519,473.065,314.182,453.818,314.182z"/>
<path style="fill:#CCD9E4;" d="M260.364,228.364c4.492,8.262,7.273,17.583,7.273,27.636c0,32.128-26.054,58.182-58.182,58.182  c-10.054,0-19.375-2.781-27.636-7.273c9.868,18.106,28.835,30.545,50.909,30.545c32.128,0,58.182-26.054,58.182-58.182  C290.909,257.199,278.47,238.231,260.364,228.364z"/>
<g>
</g>
<g>
</g>
<g>
</g>
<g>
</g>
<g>
</g>
<g>
</g>
<g>
</g>
<g>
</g>
<g>
</g>
<g>
</g>
<g>
</g>
<g>
</g>
<g>
</g>
<g>
</g>
<g>
</g>
</svg>
