<?xml version="1.0" encoding="iso-8859-1"?>
<!-- Generator: Adobe Illustrator 19.0.0, SVG Export Plug-In . SVG Version: 6.00 Build 0)  -->
<svg xmlns="http://www.w3.org/2000/svg" xmlns:xlink="http://www.w3.org/1999/xlink" version="1.1" id="Capa_1" x="0px" y="0px" viewBox="0 0 512 512" style="enable-background:new 0 0 512 512;" xml:space="preserve">
<path style="fill:#EBEEF7;" d="M488.727,128H23.273v314.182c0,6.412,5.225,11.636,11.636,11.636h442.182  c6.412,0,11.636-5.225,11.636-11.636V128z"/>
<path style="fill:#AFC3D7;" d="M488.727,69.818c0-6.412-5.225-11.636-11.636-11.636H34.909c-6.412,0-11.636,5.225-11.636,11.636  v34.909h465.455V69.818z"/>
<g>
	<path style="fill:#004463;" d="M477.091,34.909H34.909C15.663,34.909,0,50.572,0,69.818v372.364   c0,19.247,15.663,34.909,34.909,34.909h442.182c19.247,0,34.909-15.663,34.909-34.909V69.818   C512,50.572,496.337,34.909,477.091,34.909z M23.273,69.818c0-6.412,5.225-11.636,11.636-11.636h442.182   c6.412,0,11.636,5.225,11.636,11.636v34.909H23.273V69.818z M488.727,442.182c0,6.412-5.225,11.636-11.636,11.636H34.909   c-6.412,0-11.636-5.225-11.636-11.636V128h465.455V442.182z"/>
	<circle style="fill:#004463;" cx="58.182" cy="81.455" r="11.636"/>
	<circle style="fill:#004463;" cx="104.727" cy="81.455" r="11.636"/>
	<circle style="fill:#004463;" cx="151.273" cy="81.455" r="11.636"/>
	<path style="fill:#004463;" d="M325.818,360.727c-2.979,0-5.958-1.14-8.227-3.409c-4.55-4.55-4.55-11.904,0-16.454l38.319-38.319   c3.06-3.06,4.817-7.308,4.817-11.636c0-4.329-1.757-8.576-4.817-11.636l-38.319-38.319c-4.55-4.55-4.55-11.904,0-16.454   c4.55-4.55,11.904-4.55,16.454,0l38.319,38.319c7.505,7.505,11.636,17.478,11.636,28.09c0,10.612-4.131,20.596-11.636,28.09   l-38.319,38.319C331.776,359.587,328.797,360.727,325.818,360.727z"/>
	<path style="fill:#004463;" d="M186.182,360.727c-2.979,0-5.958-1.14-8.227-3.409l-38.319-38.319   c-7.505-7.505-11.636-17.478-11.636-28.09c0-10.612,4.131-20.596,11.636-28.09l38.319-38.319c4.55-4.55,11.904-4.55,16.454,0   c4.55,4.55,4.55,11.904,0,16.454l-38.319,38.319c-3.06,3.06-4.817,7.308-4.817,11.636c0,4.329,1.757,8.576,4.817,11.636   l38.319,38.319c4.55,4.55,4.55,11.904,0,16.454C192.14,359.587,189.161,360.727,186.182,360.727z"/>
	<path style="fill:#004463;" d="M232.727,384c-1.059,0-2.141-0.151-3.2-0.454c-6.179-1.769-9.751-8.204-7.994-14.383l46.545-162.909   c1.769-6.167,8.204-9.751,14.383-7.994c6.179,1.769,9.751,8.204,7.994,14.383L243.91,375.552   C242.455,380.672,237.801,384,232.727,384z"/>
</g>
<g>
</g>
<g>
</g>
<g>
</g>
<g>
</g>
<g>
</g>
<g>
</g>
<g>
</g>
<g>
</g>
<g>
</g>
<g>
</g>
<g>
</g>
<g>
</g>
<g>
</g>
<g>
</g>
<g>
</g>
</svg>
