<?xml version="1.0" encoding="iso-8859-1"?>
<!-- Generator: Adobe Illustrator 19.0.0, SVG Export Plug-In . SVG Version: 6.00 Build 0)  -->
<svg xmlns="http://www.w3.org/2000/svg" xmlns:xlink="http://www.w3.org/1999/xlink" version="1.1" id="Capa_1" x="0px" y="0px" viewBox="0 0 512 512" style="enable-background:new 0 0 512 512;" xml:space="preserve">
<path style="fill:#EBEEF7;" d="M407.273,128c-4.62,0-9.367,0.454-14.487,1.373c-5.783,1.047-11.497-2.444-13.207-8.122  c-13.149-43.985-54.4-74.705-100.305-74.705c-42.287,0-80.198,25.204-96.582,64.198c-1.489,3.549-4.62,6.121-8.39,6.889  c-3.77,0.768-7.668-0.372-10.426-3.037c-6.586-6.365-15.197-9.868-24.239-9.868c-19.247,0-34.909,15.663-34.909,34.909  c0,6.423-5.213,11.636-11.636,11.636c-38.505,0-69.818,31.313-69.818,69.818s31.313,69.818,69.818,69.818h314.182  c44.916,0,81.455-36.538,81.455-81.455S452.189,128,407.273,128z"/>
<g>
	<path style="fill:#D3E2EC;" d="M112.047,153.949c16.745,12.753,27.59,32.838,27.59,55.505c0,38.563-31.255,69.818-69.818,69.818   c-6.575,0-12.916-0.977-18.956-2.676c11.729,8.948,26.333,14.313,42.228,14.313c38.563,0,69.818-31.255,69.818-69.818   C162.909,189.114,141.382,162.211,112.047,153.949z"/>
	<path style="fill:#D3E2EC;" d="M431.348,131.619c20.62,14.778,34.106,38.889,34.106,66.199c0,44.986-36.468,81.455-81.455,81.455   H279.273l-11.636,11.636h139.636c44.986,0,81.455-36.468,81.455-81.455C488.727,172.847,464.582,141.894,431.348,131.619z"/>
</g>
<g>
	<circle style="fill:#004463;" cx="256" cy="477.091" r="11.636"/>
	<circle style="fill:#004463;" cx="384" cy="418.909" r="11.636"/>
	<path style="fill:#004463;" d="M256,337.455c-6.423,0-11.636,5.213-11.636,11.636v93.091c0,6.423,5.213,11.636,11.636,11.636   c6.423,0,11.636-5.213,11.636-11.636v-93.091C267.636,342.668,262.423,337.455,256,337.455z"/>
	<path style="fill:#004463;" d="M349.091,407.273h-23.273c-6.412,0-11.636-5.225-11.636-11.636v-46.545   c0-6.423-5.213-11.636-11.636-11.636s-11.636,5.213-11.636,11.636v46.545c0,19.247,15.663,34.909,34.909,34.909h23.273   c6.423,0,11.636-5.213,11.636-11.636C360.727,412.486,355.514,407.273,349.091,407.273z"/>
	<circle style="fill:#004463;" cx="128" cy="418.909" r="11.636"/>
	<path style="fill:#004463;" d="M209.455,337.455c-6.423,0-11.636,5.213-11.636,11.636v46.545c0,6.412-5.225,11.636-11.636,11.636   h-23.273c-6.423,0-11.636,5.213-11.636,11.636c0,6.423,5.213,11.636,11.636,11.636h23.273c19.247,0,34.909-15.663,34.909-34.909   v-46.545C221.091,342.668,215.878,337.455,209.455,337.455z"/>
	<path style="fill:#004463;" d="M221.964,123.008c-2.292,0-4.62-0.675-6.644-2.095c-5.271-3.677-6.563-10.927-2.886-16.209   c15.244-21.841,40.227-34.886,66.839-34.886c6.423,0,11.636,5.213,11.636,11.636c0,6.423-5.213,11.636-11.636,11.636   c-19.014,0-36.864,9.321-47.756,24.937C229.248,121.274,225.641,123.008,221.964,123.008z"/>
	<path style="fill:#004463;" d="M407.273,104.727c-2.851,0-5.725,0.128-8.646,0.384c-18.874-48.652-66.595-81.839-119.354-81.839   c-46.79,0-89.193,25.239-111.663,65.385c-8.506-4.701-18.071-7.203-27.974-7.203c-28.311,0-51.956,20.329-57.135,47.139   C36.131,133.865,0,173.335,0,221.091c0,51.328,41.763,93.091,93.091,93.091h314.182c57.74,0,104.727-46.988,104.727-104.727   S465.012,104.727,407.273,104.727z M407.273,290.909h-129.28c15.127-14.801,24.553-35.398,24.553-58.182   c0-6.423-5.213-11.636-11.636-11.636c-6.423,0-11.636,5.213-11.636,11.636c0,32.081-26.1,58.182-58.182,58.182h-128   c-38.505,0-69.818-31.313-69.818-69.818s31.313-69.818,69.818-69.818c18.653,0,36.177,7.261,49.373,20.445   c2.269,2.269,5.248,3.409,8.227,3.409c2.979,0,5.958-1.14,8.227-3.409c4.55-4.538,4.55-11.904,0-16.454   c-14.359-14.371-32.617-23.354-52.375-26.193c4.503-14.068,17.548-24.343,33.094-24.343c9.041,0,17.652,3.503,24.239,9.879   c2.758,2.665,6.656,3.805,10.426,3.037c3.77-0.768,6.9-3.351,8.39-6.889c16.384-39.005,54.295-64.209,96.582-64.209   c45.731,0,86.831,30.487,100.143,74.217c3.002,9.844,4.585,20.096,4.585,30.511c0,10.729-1.617,21.306-4.794,31.43   c-1.932,6.132,1.478,12.66,7.61,14.592c1.164,0.361,2.339,0.535,3.491,0.535c4.945,0,9.53-3.177,11.101-8.157   c3.898-12.369,5.865-25.297,5.865-38.4c0-7.82-0.791-15.558-2.188-23.168c0.721-0.023,1.466-0.105,2.188-0.105   c44.916,0,81.455,36.538,81.455,81.455S452.189,290.909,407.273,290.909z"/>
</g>
<g>
</g>
<g>
</g>
<g>
</g>
<g>
</g>
<g>
</g>
<g>
</g>
<g>
</g>
<g>
</g>
<g>
</g>
<g>
</g>
<g>
</g>
<g>
</g>
<g>
</g>
<g>
</g>
<g>
</g>
</svg>
