<?xml version="1.0" encoding="iso-8859-1"?>
<!-- Generator: Adobe Illustrator 19.0.0, SVG Export Plug-In . SVG Version: 6.00 Build 0)  -->
<svg xmlns="http://www.w3.org/2000/svg" xmlns:xlink="http://www.w3.org/1999/xlink" version="1.1" id="Capa_1" x="0px" y="0px" viewBox="0 0 512 512" style="enable-background:new 0 0 512 512;" xml:space="preserve">
<g>
	<path style="fill:#AFC3D7;" d="M407.273,477.091c0-6.412-5.225-11.636-11.636-11.636H116.364c-6.412,0-11.636,5.225-11.636,11.636   v11.636h302.545V477.091z"/>
	<path style="fill:#AFC3D7;" d="M180.364,186.182h151.273l22.109-29.475c4.503-6.004,6.982-13.44,6.982-20.945V34.909   c0-6.412-5.225-11.636-11.636-11.636c-6.412,0-11.636,5.225-11.636,11.636v23.273c0,19.247-15.663,34.909-34.909,34.909   c-19.247,0-34.909-15.663-34.909-34.909V34.909c0-6.412-5.225-11.636-11.636-11.636c-6.412,0-11.636,5.225-11.636,11.636v23.273   c0,19.247-15.663,34.909-34.909,34.909s-34.909-15.663-34.909-34.909V34.909c0-6.412-5.225-11.636-11.636-11.636   c-6.412,0-11.636,5.225-11.636,11.636v100.852c0,7.505,2.479,14.953,6.982,20.957L180.364,186.182z"/>
	<path style="fill:#AFC3D7;" d="M186.147,209.455c-0.687,120.413-12.369,180.98-46.836,232.727h233.379   c-34.455-51.747-46.15-112.314-46.836-232.727H186.147z"/>
</g>
<g>
	<path style="fill:#90ABC2;" d="M267.636,58.182V34.909c0-6.423-5.213-11.636-11.636-11.636v46.545   c0,12.858,10.415,23.273,23.273,23.273h23.273C283.264,93.091,267.636,77.463,267.636,58.182z"/>
	<path style="fill:#90ABC2;" d="M174.545,58.182V34.909c0-6.423-5.213-11.636-11.636-11.636v46.545   c0,12.858,10.415,23.273,23.273,23.273h23.273C190.173,93.091,174.545,77.463,174.545,58.182z"/>
	<path style="fill:#90ABC2;" d="M360.727,139.636h-23.273l0,0c7.447-7.447,11.636-17.559,11.636-28.09V23.273   c6.423,0,11.636,5.213,11.636,11.636V139.636z"/>
	<polygon style="fill:#90ABC2;" points="325.818,162.909 308.364,186.182 331.636,186.182 349.091,162.909  "/>
	<path style="fill:#90ABC2;" d="M372.678,442.182c-32.151-48.303-44.474-104.32-46.534-209.455l0,0   c-0.151-7.517-0.256-15.244-0.291-23.273h-23.587H186.147c-0.047,8.029-0.151,15.756-0.291,23.273h94.092   c12.521,0,22.772,9.984,23.238,22.493c3.351,90.868,16.128,142.231,45.905,186.961H372.678z"/>
	<rect x="104.727" y="477.091" style="fill:#90ABC2;" width="302.545" height="11.636"/>
</g>
<path style="fill:#004463;" d="M401.885,442.81c-39.913-51.793-52.515-109.812-52.771-241.152l23.249-30.988  c7.505-10.007,11.636-22.4,11.636-34.909V34.909C384,15.663,368.337,0,349.091,0c-19.247,0-34.909,15.663-34.909,34.909v23.273  c0,6.412-5.225,11.636-11.636,11.636c-6.412,0-11.636-5.225-11.636-11.636V34.909C290.909,15.663,275.247,0,256,0  s-34.909,15.663-34.909,34.909v23.273c0,6.412-5.225,11.636-11.636,11.636c-6.412,0-11.636-5.225-11.636-11.636V34.909  C197.818,15.663,182.156,0,162.909,0S128,15.663,128,34.909v100.852c0,12.509,4.131,24.902,11.636,34.909l23.249,30.999  c-0.244,131.328-12.858,189.347-52.771,241.152c-16.268,2.956-28.66,17.152-28.66,34.269v23.273c0,6.423,5.213,11.636,11.636,11.636  h325.818c6.423,0,11.636-5.213,11.636-11.636v-23.273C430.545,459.974,418.153,445.777,401.885,442.81z M162.909,162.909h186.182  l-17.455,23.273H180.364L162.909,162.909z M151.273,135.761V34.909c0-6.412,5.225-11.636,11.636-11.636  c6.412,0,11.636,5.225,11.636,11.636v23.273c0,19.247,15.663,34.909,34.909,34.909s34.909-15.663,34.909-34.909V34.909  c0-6.412,5.225-11.636,11.636-11.636c6.412,0,11.636,5.225,11.636,11.636v23.273c0,19.247,15.663,34.909,34.909,34.909  c19.247,0,34.909-15.663,34.909-34.909V34.909c0-6.412,5.225-11.636,11.636-11.636c6.412,0,11.636,5.225,11.636,11.636v100.852  c0,1.303-0.175,2.595-0.314,3.875H151.587C151.447,138.345,151.273,137.053,151.273,135.761z M186.147,209.455h139.706  c0.687,120.413,12.369,180.98,46.836,232.727H139.311C173.777,390.435,185.46,329.868,186.147,209.455z M407.273,488.727H104.727  v-11.636c0-6.412,5.225-11.636,11.636-11.636h279.273c6.412,0,11.636,5.225,11.636,11.636V488.727z"/>
<g>
</g>
<g>
</g>
<g>
</g>
<g>
</g>
<g>
</g>
<g>
</g>
<g>
</g>
<g>
</g>
<g>
</g>
<g>
</g>
<g>
</g>
<g>
</g>
<g>
</g>
<g>
</g>
<g>
</g>
</svg>
