<?xml version="1.0" encoding="iso-8859-1"?>
<!-- Generator: Adobe Illustrator 19.0.0, SVG Export Plug-In . SVG Version: 6.00 Build 0)  -->
<svg xmlns="http://www.w3.org/2000/svg" xmlns:xlink="http://www.w3.org/1999/xlink" version="1.1" id="Capa_1" x="0px" y="0px" viewBox="0 0 512 512" style="enable-background:new 0 0 512 512;" xml:space="preserve">
<path style="fill:#EBEEF7;" d="M143.511,325.818h217.216c6.412,0,11.636-5.225,11.636-11.636V104.727  c0-6.412-5.225-11.636-11.636-11.636H34.909c-6.412,0-11.636,5.225-11.636,11.636v285.091c0,4.468,5.69,7.354,9.321,4.643  l76.009-57.007C118.598,329.949,131.002,325.818,143.511,325.818z"/>
<path style="fill:#004463;" d="M29.091,418.909C13.056,418.909,0,405.865,0,389.818V104.727c0-19.247,15.663-34.909,34.909-34.909  h325.818c19.247,0,34.909,15.663,34.909,34.909v209.455c0,19.247-15.663,34.909-34.909,34.909H143.511  c-7.517,0-14.953,2.479-20.945,6.982l-76.02,57.018C41.53,416.849,35.34,418.909,29.091,418.909z M34.909,93.091  c-6.412,0-11.636,5.225-11.636,11.636v285.091c0,4.468,5.69,7.354,9.321,4.643l76.009-57.007c9.996-7.505,22.4-11.636,34.909-11.636  h217.216c6.412,0,11.636-5.225,11.636-11.636V104.727c0-6.412-5.225-11.636-11.636-11.636H34.909z"/>
<path style="fill:#CCD9E4;" d="M360.727,93.091h-11.636v197.958c0,6.423-5.213,11.636-11.636,11.636H120.239  c-12.509,0-24.913,4.131-34.897,11.636l-62.068,46.545v28.951c0,4.457,5.725,7.331,9.332,4.643l76.009-57.007  c9.984-7.505,22.388-11.636,34.897-11.636h217.216c6.423,0,11.636-5.213,11.636-11.636V104.727  C372.364,98.304,367.151,93.091,360.727,93.091z"/>
<path style="fill:#8EC861;" d="M290.909,372.364h102.272c11.532,0,22.691,3.375,32.279,9.775l53.585,35.724  c3.887,2.583,9.681-0.524,9.681-5.178v-168.32c0-6.412-5.225-11.636-11.636-11.636H290.909c-6.412,0-11.636,5.225-11.636,11.636  v116.364C279.273,367.151,284.497,372.364,290.909,372.364z"/>
<path style="fill:#004463;" d="M482.502,442.182c-5.841,0-11.497-1.711-16.361-4.957l-53.585-35.724  c-5.76-3.84-12.451-5.865-19.375-5.865H290.909c-19.247,0-34.909-15.663-34.909-34.909V244.364  c0-19.247,15.663-34.909,34.909-34.909h186.182c19.247,0,34.909,15.663,34.909,34.909v168.32  C512,428.94,498.769,442.182,482.502,442.182z M290.909,232.727c-6.412,0-11.636,5.225-11.636,11.636v116.364  c0,6.423,5.225,11.636,11.636,11.636h102.272c11.532,0,22.691,3.375,32.279,9.775l53.585,35.724  c3.887,2.583,9.681-0.524,9.681-5.178v-168.32c0-6.412-5.225-11.636-11.636-11.636H290.909z"/>
<path style="fill:#70B856;" d="M477.091,232.727h-11.636v136.006c0,6.516-7.273,10.391-12.684,6.772l-24.867-16.652  c-9.53-6.377-20.748-9.786-32.209-9.775l-116.422,0.128v11.52c0,6.423,5.213,11.636,11.636,11.636h102.272  c11.485,0,22.714,3.398,32.268,9.775l53.597,35.735c4.143,2.746,9.681-0.221,9.681-5.19v-168.32  C488.727,237.94,483.514,232.727,477.091,232.727z"/>
<g>
	<circle style="fill:#004463;" cx="384" cy="302.545" r="11.636"/>
	<circle style="fill:#004463;" cx="197.818" cy="209.455" r="23.273"/>
	<circle style="fill:#004463;" cx="116.364" cy="209.455" r="23.273"/>
	<circle style="fill:#004463;" cx="279.273" cy="209.455" r="23.273"/>
	<circle style="fill:#004463;" cx="337.455" cy="302.545" r="11.636"/>
	<circle style="fill:#004463;" cx="430.545" cy="302.545" r="11.636"/>
</g>
<g>
</g>
<g>
</g>
<g>
</g>
<g>
</g>
<g>
</g>
<g>
</g>
<g>
</g>
<g>
</g>
<g>
</g>
<g>
</g>
<g>
</g>
<g>
</g>
<g>
</g>
<g>
</g>
<g>
</g>
</svg>
