<?xml version="1.0" encoding="iso-8859-1"?>
<!-- Generator: Adobe Illustrator 19.0.0, SVG Export Plug-In . SVG Version: 6.00 Build 0)  -->
<svg xmlns="http://www.w3.org/2000/svg" xmlns:xlink="http://www.w3.org/1999/xlink" version="1.1" id="Capa_1" x="0px" y="0px" viewBox="0 0 512 512" style="enable-background:new 0 0 512 512;" xml:space="preserve">
<path style="fill:#AFC3D7;" d="M488.727,174.545H23.273v279.273c0,6.423,5.225,11.636,11.636,11.636h442.182  c6.412,0,11.636-5.213,11.636-11.636V174.545z"/>
<path style="fill:#EBEEF7;" d="M81.455,418.909h271.628c9.193,0,18.176-3.724,24.681-10.228l54.191-54.191  c6.505-6.493,10.228-15.488,10.228-24.681V174.545H69.818v232.727C69.818,413.696,75.043,418.909,81.455,418.909z"/>
<path style="fill:#70B6E4;" d="M488.727,81.455c0-6.412-5.225-11.636-11.636-11.636H34.909c-6.412,0-11.636,5.225-11.636,11.636  v69.818h465.455V81.455z"/>
<path style="fill:#4C9BD5;" d="M477.091,69.818h-11.636v34.909c0,12.858-10.415,23.273-23.273,23.273H46.545  c-12.858,0-23.273,10.415-23.273,23.273l0,0h465.455V81.455C488.727,75.031,483.514,69.818,477.091,69.818z"/>
<g>
	<circle style="fill:#004463;" cx="209.455" cy="244.364" r="23.273"/>
	<circle style="fill:#004463;" cx="302.545" cy="244.364" r="23.273"/>
	<circle style="fill:#004463;" cx="395.636" cy="244.364" r="23.273"/>
	<circle style="fill:#004463;" cx="116.364" cy="337.455" r="23.273"/>
	<circle style="fill:#004463;" cx="209.455" cy="337.455" r="23.273"/>
</g>
<circle style="fill:#EF4B4D;" cx="302.545" cy="337.455" r="23.273"/>
<path style="fill:#004463;" d="M453.818,151.273H58.182c-6.423,0-11.636,5.213-11.636,11.636v244.364  c0,19.247,15.663,34.909,34.909,34.909h271.628c15.535,0,30.15-6.063,41.135-17.047l54.191-54.191  c10.996-10.985,17.047-25.588,17.047-41.135v-166.9C465.455,156.486,460.241,151.273,453.818,151.273z M69.818,407.273V174.545  h372.364v139.636c0,12.835-10.438,23.273-23.273,23.273h-23.273c-19.247,0-34.909,15.663-34.909,34.909v23.273  c0,12.835-10.438,23.273-23.273,23.273h-256C75.043,418.909,69.818,413.696,69.818,407.273z M384,402.455v-30.092  c0-6.412,5.225-11.636,11.636-11.636h30.092L384,402.455z"/>
<rect x="69.818" y="174.545" style="fill:#C3D6E4;" width="372.364" height="23.273"/>
<g>
	<polygon style="fill:#4C9BD5;" points="174.545,104.727 162.909,104.727 162.909,69.818 186.182,69.818  "/>
	<polygon style="fill:#4C9BD5;" points="384,104.727 372.364,104.727 372.364,69.818 395.636,69.818  "/>
</g>
<path style="fill:#004463;" d="M477.091,46.545H372.364V34.909c0-6.423-5.213-11.636-11.636-11.636  c-6.423,0-11.636,5.213-11.636,11.636v11.636H162.909V34.909c0-6.423-5.213-11.636-11.636-11.636  c-6.423,0-11.636,5.213-11.636,11.636v11.636H34.909C15.663,46.545,0,62.208,0,81.455v372.364c0,19.247,15.663,34.909,34.909,34.909  h442.182c19.247,0,34.909-15.663,34.909-34.909V81.455C512,62.208,496.337,46.545,477.091,46.545z M488.727,453.818  c0,6.423-5.225,11.636-11.636,11.636H34.909c-6.412,0-11.636-5.213-11.636-11.636V174.545h465.455V453.818z M488.727,151.273H23.273  V81.455c0-6.412,5.225-11.636,11.636-11.636h104.727v14.871C132.713,88.727,128,96.14,128,104.727  C128,117.585,138.438,128,151.284,128s23.261-10.415,23.261-23.273c0-8.599-4.713-16.023-11.636-20.049v-14.86h186.182v14.871  c-6.924,4.038-11.636,11.45-11.636,20.038c0,12.858,10.438,23.273,23.284,23.273C373.585,128,384,117.585,384,104.727  c0-8.599-4.713-16.023-11.636-20.049v-14.86h104.727c6.412,0,11.636,5.225,11.636,11.636V151.273z"/>
<g>
	<path style="fill:#97B3CC;" d="M394.205,425.158c-10.822,10.822-25.821,17.024-41.158,17.024h44.591   c6.167,0,12.09-2.455,16.454-6.819l44.544-44.544c4.364-4.364,6.819-10.287,6.819-16.454v-44.591   c0,15.337-6.202,30.336-17.024,41.158L394.205,425.158z"/>
	<rect x="465.455" y="174.545" style="fill:#97B3CC;" width="23.273" height="23.273"/>
	<rect x="23.273" y="174.545" style="fill:#97B3CC;" width="23.273" height="23.273"/>
</g>
<g>
</g>
<g>
</g>
<g>
</g>
<g>
</g>
<g>
</g>
<g>
</g>
<g>
</g>
<g>
</g>
<g>
</g>
<g>
</g>
<g>
</g>
<g>
</g>
<g>
</g>
<g>
</g>
<g>
</g>
</svg>
