<?xml version="1.0" encoding="iso-8859-1"?>
<!-- Generator: Adobe Illustrator 19.0.0, SVG Export Plug-In . SVG Version: 6.00 Build 0)  -->
<svg xmlns="http://www.w3.org/2000/svg" xmlns:xlink="http://www.w3.org/1999/xlink" version="1.1" id="Capa_1" x="0px" y="0px" viewBox="0 0 512 512" style="enable-background:new 0 0 512 512;" xml:space="preserve">
<path style="fill:#EBEEF7;" d="M209.455,104.727c-10.135,0-19.444-4.247-26.007-11.636H128v349.091h166.865  c9.216,0,18.211-3.724,24.704-10.205l54.225-54.225c6.481-6.493,10.205-15.488,10.205-24.704V93.091h-55.447  c-6.563,7.389-15.872,11.636-26.007,11.636H209.455z"/>
<path style="fill:#D88A36;" d="M93.091,488.727h325.818c6.412,0,11.636-5.225,11.636-11.636V58.182  c0-6.412-5.225-11.636-11.636-11.636h-81.455v23.273h58.182c6.423,0,11.636,5.213,11.636,11.636v271.628  c0,15.535-6.051,30.15-17.036,41.135l-54.191,54.191c-10.996,10.996-25.6,17.047-41.146,17.047H116.364  c-6.423,0-11.636-5.213-11.636-11.636V81.455c0-6.423,5.213-11.636,11.636-11.636h58.182V46.545H93.091  c-6.412,0-11.636,5.225-11.636,11.636v418.909C81.455,483.503,86.679,488.727,93.091,488.727z"/>
<path style="fill:#B0C4D8;" d="M197.818,46.545v23.273c0,2.013,0.547,4.049,1.548,5.76c2.153,3.689,5.923,5.876,10.089,5.876h93.091  c4.166,0,7.936-2.188,10.077-5.865c1.012-1.722,1.559-3.759,1.559-5.772V46.545h-34.909c-6.423,0-11.636-5.213-11.636-11.636  c0-6.412-5.225-11.636-11.636-11.636c-3.107,0-5.969,1.187-8.076,3.351c-2.374,2.316-3.561,5.178-3.561,8.285  c0,6.423-5.213,11.636-11.636,11.636H197.818z"/>
<path style="fill:#004463;" d="M418.909,23.273h-93.091h-36.899C284.113,9.728,271.174,0,256,0c-9.437,0-18.211,3.689-24.529,10.17  c-3.828,3.724-6.668,8.192-8.413,13.103h-36.876H93.091c-19.247,0-34.909,15.663-34.909,34.909v418.909  c0,19.247,15.663,34.909,34.909,34.909h325.818c19.247,0,34.909-15.663,34.909-34.909V58.182  C453.818,38.935,438.156,23.273,418.909,23.273z M360.727,360.727h-46.545c-6.423,0-11.636,5.213-11.636,11.636v46.545  c0,12.835-10.438,23.273-23.273,23.273H128V93.091h55.715c6.551,7.296,15.674,11.636,25.74,11.636h93.091  c10.077,0,19.2-4.34,25.74-11.636H384v244.364C384,350.289,373.562,360.727,360.727,360.727z M367.546,384l-41.728,41.728V384  H367.546z M232.727,46.545c6.423,0,11.636-5.213,11.636-11.636c0-3.107,1.187-5.969,3.561-8.285  c2.106-2.164,4.969-3.351,8.076-3.351c6.412,0,11.636,5.225,11.636,11.636c0,6.423,5.213,11.636,11.636,11.636h34.909v23.273  c0,2.013-0.547,4.049-1.559,5.772c-2.141,3.677-5.911,5.865-10.077,5.865h-93.091c-4.166,0-7.936-2.188-10.089-5.876  c-1.001-1.711-1.548-3.747-1.548-5.76V46.545H232.727z M430.545,477.091c0,6.412-5.225,11.636-11.636,11.636H93.091  c-6.412,0-11.636-5.225-11.636-11.636V58.182c0-6.412,5.225-11.636,11.636-11.636h81.455v23.273h-58.182  c-6.423,0-11.636,5.213-11.636,11.636v372.364c0,6.423,5.213,11.636,11.636,11.636H294.9c15.535,0,30.15-6.051,41.135-17.036  l54.191-54.191c10.996-10.996,17.047-25.6,17.047-41.146V81.455c0-6.423-5.213-11.636-11.636-11.636h-58.182V46.545h81.455  c6.412,0,11.636,5.225,11.636,11.636V477.091z"/>
<g>
	<path style="fill:#C77629;" d="M336.023,448.431c-10.822,10.822-25.821,17.024-41.158,17.024h44.591   c6.167,0,12.09-2.455,16.454-6.819l44.544-44.544c4.364-4.364,6.819-10.287,6.819-16.454v-44.591   c0,15.337-6.202,30.336-17.024,41.158L336.023,448.431z"/>
	<rect x="337.455" y="46.545" style="fill:#C77629;" width="11.636" height="23.273"/>
</g>
<path style="fill:#70B6E4;" d="M256,151.273c-38.563,0-69.818,31.255-69.818,69.818s31.255,69.818,69.818,69.818  s69.818-31.255,69.818-69.818H256V151.273z"/>
<path style="fill:#F16A56;" d="M267.636,139.636v69.818h69.818C337.455,170.892,306.199,139.636,267.636,139.636z"/>
<g>
	<path style="fill:#004463;" d="M279.273,360.727h-69.818c-6.423,0-11.636-5.213-11.636-11.636s5.213-11.636,11.636-11.636h69.818   c6.423,0,11.636,5.213,11.636,11.636S285.696,360.727,279.273,360.727z"/>
	<path style="fill:#004463;" d="M256,395.636h-46.545c-6.423,0-11.636-5.213-11.636-11.636s5.213-11.636,11.636-11.636H256   c6.423,0,11.636,5.213,11.636,11.636S262.423,395.636,256,395.636z"/>
</g>
<circle style="fill:#70B6E4;" cx="174.545" cy="349.091" r="11.636"/>
<circle style="fill:#F16A56;" cx="174.545" cy="384" r="11.636"/>
<g>
</g>
<g>
</g>
<g>
</g>
<g>
</g>
<g>
</g>
<g>
</g>
<g>
</g>
<g>
</g>
<g>
</g>
<g>
</g>
<g>
</g>
<g>
</g>
<g>
</g>
<g>
</g>
<g>
</g>
</svg>
