<?xml version="1.0" encoding="iso-8859-1"?>
<!-- Generator: Adobe Illustrator 19.0.0, SVG Export Plug-In . SVG Version: 6.00 Build 0)  -->
<svg xmlns="http://www.w3.org/2000/svg" xmlns:xlink="http://www.w3.org/1999/xlink" version="1.1" id="Capa_1" x="0px" y="0px" viewBox="0 0 512 512" style="enable-background:new 0 0 512 512;" xml:space="preserve">
<path style="fill:#EBEEF7;" d="M488.727,325.818H46.545V384c0,6.412,5.225,11.636,11.636,11.636h418.909  c6.412,0,11.636-5.225,11.636-11.636V325.818z"/>
<path style="fill:#70B6E4;" d="M488.727,58.182c0-6.412-5.225-11.636-11.636-11.636H58.182c-6.412,0-11.636,5.225-11.636,11.636  v244.364h442.182V58.182z"/>
<path style="fill:#EBEEF7;" d="M232.727,418.909v34.909c0,4.084-0.71,7.994-1.99,11.636h73.809  c-1.292-3.642-2.001-7.552-2.001-11.636v-34.909H232.727z"/>
<path style="fill:#004463;" d="M477.091,23.273H58.182c-19.247,0-34.909,15.663-34.909,34.909V384  c0,19.247,15.663,34.909,34.909,34.909h151.273v34.909c0,6.412-5.225,11.636-11.636,11.636h-11.636  c-6.423,0-11.636,5.213-11.636,11.636s5.213,11.636,11.636,11.636h162.909c6.423,0,11.636-5.213,11.636-11.636  s-5.213-11.636-11.636-11.636h-11.636c-6.412,0-11.636-5.225-11.636-11.636v-34.909h151.273C496.337,418.909,512,403.247,512,384  V58.182C512,38.935,496.337,23.273,477.091,23.273z M46.545,58.182c0-6.412,5.225-11.636,11.636-11.636h418.909  c6.412,0,11.636,5.225,11.636,11.636v244.364H46.545V58.182z M304.535,465.455h-73.809c1.292-3.642,2.001-7.552,2.001-11.636  v-34.909h69.818v34.909C302.545,457.903,303.255,461.812,304.535,465.455z M488.727,384c0,6.412-5.225,11.636-11.636,11.636H314.182  h-93.091H58.182c-6.412,0-11.636-5.225-11.636-11.636v-58.182h442.182V384z"/>
<path style="fill:#CCD9E4;" d="M302.545,453.818v-23.273v-11.636h-13.626h-56.192v11.636h44.556c6.423,0,11.636,5.213,11.636,11.636  v11.636c0,4.084,0.71,8.006,1.99,11.636h13.626C303.255,461.824,302.545,457.903,302.545,453.818z"/>
<circle style="fill:#004463;" cx="267.636" cy="360.727" r="11.636"/>
<path style="fill:#4C9BD5;" d="M174.545,186.182h-23.273c19.281,0,34.909,15.628,34.909,34.909v81.455h23.273v-81.455  C209.455,201.809,193.827,186.182,174.545,186.182z"/>
<path style="fill:#EBEEF7;" d="M34.909,465.455h116.364c6.412,0,11.636-5.225,11.636-11.636V221.091  c0-6.412-5.225-11.636-11.636-11.636H34.909c-6.412,0-11.636,5.225-11.636,11.636v232.727  C23.273,460.23,28.497,465.455,34.909,465.455z"/>
<g>
	<circle style="fill:#004463;" cx="93.091" cy="442.182" r="11.636"/>
	<path style="fill:#004463;" d="M116.364,244.364H69.818c-6.423,0-11.636-5.213-11.636-11.636s5.213-11.636,11.636-11.636h46.545   c6.423,0,11.636,5.213,11.636,11.636S122.787,244.364,116.364,244.364z"/>
</g>
<rect x="23.273" y="279.273" style="fill:#70B6E4;" width="139.636" height="116.364"/>
<path style="fill:#004463;" d="M151.273,186.182H34.909C15.663,186.182,0,201.844,0,221.091v232.727  c0,19.247,15.663,34.909,34.909,34.909h116.364c19.247,0,34.909-15.663,34.909-34.909V221.091  C186.182,201.844,170.519,186.182,151.273,186.182z M34.909,209.455h116.364c6.412,0,11.636,5.225,11.636,11.636V256H23.273v-34.909  C23.273,214.679,28.497,209.455,34.909,209.455z M162.909,395.636H23.273V279.273h139.636V395.636z M151.273,465.455H34.909  c-6.412,0-11.636-5.225-11.636-11.636v-34.909h139.636v34.909C162.909,460.23,157.684,465.455,151.273,465.455z"/>
<g>
	<path style="fill:#ACD6F2;" d="M459.636,128c-2.979,0-5.958-1.14-8.227-3.409L416.5,89.681c-4.55-4.55-4.55-11.904,0-16.454   c4.55-4.55,11.904-4.55,16.454,0l34.909,34.909c4.55,4.55,4.55,11.904,0,16.454C465.594,126.86,462.615,128,459.636,128z"/>
	<path style="fill:#ACD6F2;" d="M453.818,180.364c-2.979,0-5.958-1.14-8.227-3.409L364.137,95.5c-4.55-4.55-4.55-11.904,0-16.454   c4.55-4.55,11.904-4.55,16.454,0l81.455,81.455c4.55,4.55,4.55,11.904,0,16.454C459.776,179.223,456.797,180.364,453.818,180.364z"/>
</g>
<path style="fill:#CCD9E4;" d="M477.091,325.818v46.545c0,6.423-5.213,11.636-11.636,11.636H221.091  c-6.423,0-11.636-5.213-11.636-11.636v-46.545h-23.273V384v11.636h290.909c6.423,0,11.636-5.213,11.636-11.636v-58.182H477.091z"/>
<g>
</g>
<g>
</g>
<g>
</g>
<g>
</g>
<g>
</g>
<g>
</g>
<g>
</g>
<g>
</g>
<g>
</g>
<g>
</g>
<g>
</g>
<g>
</g>
<g>
</g>
<g>
</g>
<g>
</g>
</svg>
